SplineFontDB: 3.0
FontName: Experiment-Sinhala-Cursive
FullName: Experiment-Sinhala
FamilyName: Experiment-Sinhala
Weight: Cursive
Copyright: Copyright (c) 2015, Pathum Egodawatta
UComments: "2015-9-29: Created with FontForge (http://fontforge.org)"
Version: 0.001
ItalicAngle: 0
UnderlinePosition: -99
UnderlineWidth: 49
Ascent: 750
Descent: 250
InvalidEm: 0
LayerCount: 4
Layer: 0 0 "Back" 1
Layer: 1 0 "Fore" 0
Layer: 2 0 "Back 3" 1
Layer: 3 0 "s1" 1
PreferredKerning: 4
XUID: [1021 779 -1439063335 14876943]
FSType: 0
OS2Version: 0
OS2_WeightWidthSlopeOnly: 0
OS2_UseTypoMetrics: 1
CreationTime: 1443542790
ModificationTime: 1462288674
PfmFamily: 17
TTFWeight: 400
TTFWidth: 5
LineGap: 122
VLineGap: 0
OS2TypoAscent: 879
OS2TypoAOffset: 0
OS2TypoDescent: -250
OS2TypoDOffset: 0
OS2TypoLinegap: 122
OS2WinAscent: 879
OS2WinAOffset: 0
OS2WinDescent: 49
OS2WinDOffset: 0
HheadAscent: 779
HheadAOffset: 0
HheadDescent: -27
HheadDOffset: 0
OS2CapHeight: 0
OS2XHeight: 0
OS2Vendor: 'PfEd'
Lookup: 4 0 0 "'abvs' Above Base Substitutions in Sinhala lookup 0" { "'abvs' Above Base Substitutions in Sinhala lookup 0-1"  "'abvs' Above Base Substitutions in Sinhala lookup 0-2"  } ['abvs' ('DFLT' <'dflt' > 'sinh' <'dflt' > ) ]
Lookup: 4 0 0 "si_akhands" { "si_akhands subtable"  } ['akhn' ('sinh' <'dflt' > ) ]
Lookup: 4 0 0 "si_reph" { "si_reph subtable"  } ['rphf' ('sinh' <'dflt' > ) ]
Lookup: 4 0 0 "si_halant_1" { "si_halant_1 subtable"  } ['abvs' ('sinh' <'dflt' > ) ]
Lookup: 4 0 0 "si_halant_2" { "si_halant_2 subtable"  } ['abvs' ('sinh' <'dflt' > ) ]
Lookup: 4 0 0 "si_halant_3" { "si_halant_3 subtable"  } ['abvs' ('sinh' <'dflt' > ) ]
Lookup: 4 0 0 "si_abvs_1" { "si_abvs_1 subtable"  } ['abvs' ('sinh' <'dflt' > ) ]
Lookup: 4 0 0 "si_abvs_2" { "si_abvs_2 subtable"  } ['abvs' ('sinh' <'dflt' > ) ]
Lookup: 4 0 0 "si_abvs_3" { "si_abvs_3 subtable"  } ['abvs' ('sinh' <'dflt' > ) ]
Lookup: 4 0 0 "si_abvs_4" { "si_abvs_4 subtable"  } ['abvs' ('sinh' <'dflt' > ) ]

StartChar: si_Tta
Encoding: 34 3495 0
GlifName: si_T_ta
Width: 693
VWidth: 2
Flags: HMW
LayerCount: 4
Back
SplineSet
353.442382812 334 m 1
 327.442382812 346 293.442382812 352 260.442382812 350 c 0
 190.369140625 345.8515625 117.307617188 292.790039062 116.442382812 208 c 0
 115.355802726 108.803477281 199.944466063 42.2948424889 367.442382812 43 c 4
 557.228705606 43.7949037201 650.722119379 185.697659139 656.442382812 327 c 0
 665.150342129 540.589788945 569.467974964 673.364858982 358.442382812 676 c 0
 223.275384718 677.536957205 121.442382812 595 118.442382812 595 c 1
 85.4423828125 648 l 0
 136.296506486 685.638514727 246.850823715 734.567254144 360.442382812 734 c 0
 588.166195662 732.855778392 728.943480374 561.636312573 728.442382812 332 c 0
 727.995573089 105.602165284 585.341587056 -56.8921832884 361.442382812 -59 c 0
 155.835286459 -60.677734375 38.7778735192 38.0029296875 35.4423828125 176 c 0
 32.1533989173 320.966632951 154.427734375 394.418945312 265.442382812 398 c 0
 327.442382812 400 367.442382812 379 367.442382812 379 c 1
 353.442382812 334 l 1
EndSplineSet
Fore
SplineSet
320 336 m 1
 245.684570312 344.587890625 106.736328125 317.918945312 98 190 c 0
 92.912109375 98.587890625 184.94140625 52.3544921875 301 55 c 0
 551.239257812 60.7041015625 605.618164062 236.662109375 616 379 c 0
 628.91796875 557.151367188 507.637695312 651 368 651 c 0
 265.26171875 651 207.415039062 632.131835938 126 571 c 1
 94 593 l 1
 143.512695312 651.524414062 244.408203125 728 378 728 c 0
 571.096679688 728 657 578.21875 657 424 c 0
 657 169.735351562 563.446289062 -40.359375 287 -45 c 0
 142.497070312 -47.42578125 37.15234375 47.193359375 45 168 c 0
 55 315 165 414 323 432 c 1
 334.01171875 352 l 1
 320 336 l 1
EndSplineSet
Layer: 2
SplineSet
374.567382812 272 m 5
 228.567382812 288 125.567382812 252 127.567382812 158 c 4
 128.567382812 94 181.567382812 42 321.567382812 43 c 4
 490.567382812 44 599.264648438 173.225585938 607.567382812 326 c 4
 617.567382812 510 514.263671875 659.0234375 320.567382812 648 c 4
 197.567382812 641 104.567382812 580 101.567382812 580 c 5
 78.5673828125 627 l 5
 118.567382812 651 223.567382812 706 351.567382812 706 c 4
 568.567382812 705 688.567382812 537 678.567382812 321 c 4
 668.669921875 107.228515625 545.567382812 -56 299.567382812 -58 c 4
 163.567382812 -59 44.5673828125 8 44.5673828125 137 c 4
 44.5673828125 291 203.567382812 335 325.567382812 328 c 5
 335.567382812 388 302.567382812 438 210.567382812 438 c 5
 184.567382812 357 l 5
 133.567382812 350 98.5673828125 379 107.567382812 425 c 4
 117.567382812 481 175.567382812 500 222.567382812 500 c 4
 298.567382812 500 381.567382812 469 382.567382812 359 c 4
 382.567382812 323 374.567382812 272 374.567382812 272 c 5
EndSplineSet
Layer: 3
EndChar

StartChar: si_Pa
Encoding: 46 3508 1
GlifName: si_P_a
Width: 746
VWidth: -11
Flags: HMWO
LayerCount: 4
Back
SplineSet
500 352 m 1
 452 333 l 1
 444 358 437 384 437 426 c 0
 438 512 519 556 580 556 c 0
 663 556 715 507 715 427 c 0
 715 349 618 309 618 309 c 1
 602 326 l 1
 636.051288152 347.130311028 650.883587155 377.105818001 651 417 c 0
 651.13422914 462.999749757 617 494 558 494 c 0
 511 494 475 462 475 419 c 0
 475 367 500 352 500 352 c 1
119 209 m 0
 118 124 203 45 388 45 c 0
 563 45 663.451154009 127.008854445 665 216 c 0
 666.775330903 318.004157759 549 348 452 333 c 1
 472 373 l 1
 617 402 740 331 736 193 c 0
 731 29 564 -59 383 -59 c 0
 189 -59 38 33 40 180 c 0
 42 339 208 394 316 384 c 1
 292 345 l 1
 299 365 312.3731417 386.33162663 308 415 c 0
 299 474 239 505 171 490 c 0
 204 511 l 1
 149 409 l 1
 108 411 81.6005478023 436.013695057 83 471 c 0
 85 521 142 557 202 557 c 0
 272 557 344 517 346 439 c 0
 347 402 341 370 332 333 c 1
 208 351 120 287 119 209 c 0
EndSplineSet
Fore
SplineSet
295 390 m 1
 317 342 l 1
 205 357.386730108 92.9434506184 299.874477099 90 206 c 0
 86.4552264636 119.132882756 160.710619318 54.7871328617 357 57 c 0
 505.931486592 58.8718716926 646.772460938 105.850585938 656 214 c 4
 666.9921875 342.819335938 538.834960938 381.086914062 398 336 c 1
 424 381 l 1
 530.396484375 436.912109375 718.623236307 403.425885858 696 190 c 0
 682.331360947 58.033950617 547.322547612 -28.699431738 388 -40 c 0
 130.38630251 -56.4551043414 43.3199233455 56.1892409149 33 139 c 0
 19.4837335744 257.712060897 118.529296875 383.17578125 295 390 c 1
432 357 m 1
 398 336 l 1
 387.655273438 465 466.275862069 560 578 560 c 0
 638.342857143 560 675.530625915 520.986520032 677 468 c 0
 679.206185567 405.151515152 631.773195876 364.651515152 570 346 c 1
 565 368 l 1
 598 377 623 407 623 438 c 0
 623 468 594 499 545 496 c 0
 483.148073694 492.213147369 417.418945312 439.540039062 432 357 c 1
282 379 m 1
 296 383 308 415 308 442 c 0
 308 485.317073171 258.435546875 492.877929688 197 480 c 0
 153 398 l 0
 122.438596491 395 86 418 86 449 c 0
 86 519 159.573770492 550 218 550 c 0
 285 550 346 517 346 454 c 0
 346 415.818181818 329 364.909090909 316 342 c 1
 282 379 l 1
EndSplineSet
Layer: 2
Layer: 3
EndChar

StartChar: si_Va
Encoding: 55 3520 2
GlifName: si_V_a
Width: 719
VWidth: 2
Flags: HMW
LayerCount: 4
Back
SplineSet
386 284 m 5
 250.50390625 301.37890625 123.465820312 252.458984375 128 158 c 4
 131.069335938 87.791015625 219.271484375 45.1572265625 365 46 c 4
 559 47.1220703125 667 174.791015625 667 339 c 4
 667 547.71875 557.94140625 679.712890625 342 677 c 4
 219.063476562 675.456054688 132.310546875 606 129 606 c 5
 97 660 l 5
 139.236328125 688.125 219.37890625 735.633789062 358 735 c 4
 565.81640625 734.018554688 730 582.319335938 730 331 c 4
 730 111.353515625 598.415039062 -48.5791015625 375 -58 c 4
 192.556640625 -65.2548828125 49.349609375 8.0341796875 46 137 c 4
 42.244140625 299.32421875 239.439453125 339.377929688 354 332 c 5
 354 402 304 438 212 438 c 5
 186 357 l 5
 135 350 100.760742188 378.857421875 109 425 c 4
 119 481 177 500 224 500 c 4
 300 500 389.999023438 463 394 359 c 4
 395.383789062 323.026367188 386 284 386 284 c 5
EndSplineSet
Fore
SplineSet
344 291 m 1
 349.345703125 298.487304688 373.202148438 333.749023438 354 379 c 0
 338.249023438 416.118164062 312.283203125 418.171875 273 420 c 0
 253.734375 420.842773438 229 402 229 402 c 0
 185 347 l 0
 155 344 134 355 134 386 c 0
 134 447 194.546875 471.35546875 236 477 c 0
 300.909179688 485.837890625 365.419921875 457.168945312 380 401 c 0
 390 362.474609375 380 305.115234375 370 282 c 1
 344 291 l 1
370 283 m 1
 276.262695312 277.700195312 101.861328125 277.6171875 92 160 c 0
 86.1083984375 91.28125 190.671875 37.71484375 326 48 c 0
 541.133789062 64.0947265625 609.590820312 231.856445312 620 369 c 0
 632.3203125 531.250976562 511.50390625 652 361 653 c 0
 278.584960938 653.544921875 211.916992188 637.66015625 141 584 c 1
 117 607 l 1
 157.627929688 659.873046875 265.889648438 728 381 728 c 0
 577.3203125 728 660 563.438476562 660 394 c 0
 660 158.120117188 572.494140625 -45.7548828125 296 -51 c 0
 173.005859375 -53.3798828125 37.5302734375 7.2421875 48 131 c 0
 58.369140625 249.528320312 181.596679688 343.137695312 366 352 c 1
 370 283 l 1
EndSplineSet
Layer: 2
Layer: 3
EndChar

StartChar: si_Ra
Encoding: 53 3515 4
GlifName: si_R_a
Width: 713
VWidth: -5
Flags: HMW
LayerCount: 4
Back
SplineSet
603 785 m 1
 603 707.080078125 536.435546875 660.377929688 428 594 c 0
 300 516 125 415 125 245 c 0
 125 138 214 48 360 48 c 4
 537.439453125 48 602.853515625 143 606 242 c 4
 610.389648438 379.393554688 502.021484375 481 377 481 c 0
 208.249023438 481 137 339 137 339 c 1
 165 428 l 0
 164 431 253.985351562 531.200195312 386 532 c 0
 536.497072311 532.911779604 688.461914062 424.852539062 685 245 c 0
 681.881835938 83.00390625 550.1171875 -52 356 -52 c 0
 153 -52 47.3366726873 93.98512553 55 252 c 0
 67.9033203125 518.061523438 406 604 504 736 c 1
 544 834 l 1
 586.75390625 835.307617188 603 811.384765625 603 785 c 1
EndSplineSet
Fore
SplineSet
602.604492188 795 m 1
 594.002192741 721.159655187 530.117743901 675.750474161 424.153320312 614 c 0
 282.671182501 533.82729805 117.631779624 419.947035271 98.0732421875 245 c 0
 86.6907192593 128.844919786 172.833188358 49.0509280126 299.112304688 42 c 0
 470.190389682 32.4761904762 582.48617429 141.247416197 601.388671875 242 c 0
 625.828380798 372.266585689 506.621445312 446 392.525390625 446 c 0
 211.462274354 446 116.615234375 339 116.615234375 339 c 5
 151.859375 398 l 4
 151.190286644 401 283.286130027 521.868008166 403.3125 532 c 0
 558.226483963 547.446731408 661.570280616 417.385806404 637.073242188 225 c 0
 613.398432851 68.458320181 480.369977547 -66 281.606445312 -62 c 0
 78.645322073 -58.0272864017 20.3623737809 88.7480306961 47.9326171875 252 c 0
 91.9239876575 488.061523438 346.420434702 604 466.360351562 736 c 1
 518.393554688 834 l 1
 553.071617488 835.307617188 605.222865852 821.384765625 602.604492188 795 c 1
EndSplineSet
Layer: 2
Layer: 3
EndChar

StartChar: si_Ca
Encoding: 27 3488 5
GlifName: si_C_a
Width: 634
VWidth: -14
Flags: HMW
LayerCount: 4
Back
SplineSet
14 327 m 5
 435 333 l 1
 430 283 l 1
 107 283 l 1
 13 271 l 5
 14 327 l 5
EndSplineSet
Refer: 2 3520 N 1 0 0 1 44 0 2
Fore
SplineSet
-43 308 m 5
 328 344 l 1
 323 294 l 1
 160 304 l 1
 -44 252 l 5
 -43 308 l 5
EndSplineSet
Refer: 2 3520 N 1 0 0 1 27 0 2
Layer: 2
SplineSet
361.2265625 290.141601562 m 5
 353.536132812 372.172851562 l 5
 353.536132812 372.172851562 330.46484375 416.264648438 245.357421875 416.264648438 c 4
 239.205078125 356.279296875 l 5
 169.991210938 355.25390625 l 5
 162.813476562 365.5078125 158.19921875 392.680664062 158.19921875 409.599609375 c 4
 158.19921875 459.84375 216.133789062 479.326171875 263.301757812 479.326171875 c 4
 354.561523438 479.326171875 429.415039062 437.28515625 437.618164062 328.081054688 c 4
 434.541992188 225.029296875 l 5
 361.2265625 290.141601562 l 5
434.541992188 225.029296875 m 5
 433.516601562 225.029296875 398.653320312 225.541992188 355.586914062 225.541992188 c 4
 279.561523438 225.541992188 178.194335938 217.26953125 178.194335938 152.739257812 c 5
 180.30078125 117.782226562 231.788085938 54.419921875 373.53125 53.2763671875 c 4
 523.75 52.064453125 590.9140625 170.841796875 590.9140625 336.284179688 c 5
 590.9140625 521.017578125 524.776367188 628.779296875 355.586914062 636.2109375 c 5
 268.428710938 632.109375 118.208984375 569.047851562 115.1328125 569.047851562 c 5
 98.7265625 610.576171875 l 4
 136.153320312 637.236328125 266.377929688 696.196289062 356.612304688 695.68359375 c 4
 566.817382812 694.658203125 672.9453125 548.540039062 672.9453125 331.157226562 c 4
 672.9453125 112.749023438 585.787109375 -37.470703125 369.4296875 -37.470703125 c 4
 213.057617188 -37.470703125 99.751953125 25.078125 99.751953125 147.099609375 c 4
 99.751953125 277.32421875 247.408203125 289.116210938 247.408203125 289.116210938 c 5
 361.2265625 292.192382812 l 5
 434.541992188 225.029296875 l 5
EndSplineSet
Layer: 3
EndChar

StartChar: si_Sa
Encoding: 58 3523 6
GlifName: si_S_a
Width: 855
VWidth: -11
Flags: HMW
LayerCount: 4
Back
SplineSet
69 379 m 1xf8
 447 381 l 1
 449 336 l 1
 153 335 l 1
 68 322 l 1
 69 379 l 1xf8
577 373 m 1
 610 384 l 1
 709.491210938 410.330078125 895 380.840820312 895 186 c 0
 895 64 820.377929688 -45 689 -45 c 0
 584 -45 517 22 502 126 c 1
 500 123 539 129 537 126 c 1
 519.119140625 25 450.748046875 -43.1982421875 334 -44 c 0
 201.470703125 -44.91015625 129.172851562 54.9951171875 131 154 c 0
 133.165039062 268 227.35546875 346 262 347 c 1
 356 338 l 1
 269.861328125 324.103515625 191.854492188 266.251953125 193 183 c 0
 193.899414062 112.950195312 245.522460938 64.845703125 334 62 c 0
 401.15625 59.83984375 499 88.2900390625 502 214 c 1
 537 215 l 1
 540 100.411132812 613.994140625 64.4326171875 694 64 c 0
 773.806640625 63.599609375 829.400390625 113.7890625 831 195 c 0xfa
 833.384765625 310.975585938 735.305664062 383.813476562 572 328 c 1
 567 350.166992188 562.391601562 374.670898438 562 398 c 0
 560 500 633 568 717 570 c 0
 783.981445312 571.594726562 860 532 860 452 c 0
 860 356 767 330 767 330 c 1
 751 337 l 1
 751 337 790 374.990234375 790 424 c 0xfc
 790 465 749.879882812 513.047851562 686 509 c 0
 649.995117188 506.71875 607 472 602 411 c 0
 598.227539062 364.98046875 618 353 618 353 c 1
 577 373 l 1
418 364 m 1
 421 398 421 417 409 445 c 0
 395 480 340 508 290 503 c 0
 239 419 l 1
 209 422 185 439 185 476 c 0
 185 543 257 568 310 568 c 0
 390 568 463.29296875 518.05078125 466 433 c 0
 467.56640625 383.791015625 458 358.083007812 449 337 c 1
 418 364 l 1
EndSplineSet
Fore
SplineSet
38 359 m 1
 113 377.545898438 307 384.36328125 399 380 c 1
 397 337 l 1
 302 346 l 0
 186.688476562 347.678710938 75.1640625 289.022460938 40 263.573242188 c 1
 27 274 l 1
 38 359 l 1
323 356 m 1
 397 337 l 1
 288.767578125 334.803710938 156.638671875 271.149414062 157 163 c 0
 157.26953125 87.0888671875 221.155273438 57 284 57 c 0
 370.026367188 57 411.892578125 114 438 198 c 1
 463 204 l 1
 453.986328125 121.251953125 514.309570312 69.6318359375 583 62 c 0
 681.569335938 51.048828125 761.595703125 104.426757812 769 189 c 0
 779.458007812 308.453125 621.188476562 366.4765625 494 339 c 1
 531 383 l 1
 627.0703125 418.581054688 825.047851562 401.94921875 809 186 c 0
 797.0859375 25.68359375 685.328125 -39.15234375 569 -35 c 0
 476.82421875 -31.7099609375 415.092773438 32 425 104 c 1
 444 104 l 1
 414.75390625 24.77734375 350.54296875 -41.6923828125 241 -34 c 0
 138.137695312 -26.77734375 95.0263671875 48.5859375 97 127 c 0
 99.984375 245.556640625 200.033203125 335.462890625 323 356 c 1
530 374 m 1
 494 339 l 1
 483.404296875 477.111328125 573.463867188 565 672 565 c 0
 738.594726562 565 793.0546875 526.805664062 794 470 c 0
 795.119140625 401.866210938 731.326171875 372.93359375 691 358 c 1
 677 375 l 1
 719.935546875 384 736 416.984375 734 447 c 0
 732.005859375 476.93359375 688.000976562 498.944335938 653 498 c 0
 580.090820312 496.032226562 527.823242188 446 530 374 c 1
377 358 m 1
 391 367 391.196289062 404.713867188 387 437 c 0
 382.76171875 469.606445312 346.012695312 497 308 497 c 0
 291 497 272 483 272 483 c 0
 218 428 l 0
 188 425 157 443 157 474 c 0
 157 535 225 565 279 565 c 0
 356 565 415 522 425 459 c 0
 432.0546875 414.556640625 410 364 397 337 c 1
 377 358 l 1
EndSplineSet
Layer: 2
Layer: 3
EndChar

StartChar: si_Ka
Encoding: 21 3482 7
GlifName: si_K_a
Width: 1084
VWidth: -11
Flags: HMW
LayerCount: 4
Back
SplineSet
832 17 m 0xb0
 944.916015625 20.09375 966.169921875 184.509765625 942 281 c 0
 911.051757812 404.547851562 781.896484375 466.663085938 642 462 c 0
 542.9140625 458.697265625 465.959960938 431.771484375 372 374 c 1
 355 362 366 367 352 355 c 1
 255 276 173 211 73 79 c 1
 73 79 38.1279296875 98.5439453125 44 107 c 0
 144 251 234 322 332 413 c 1
 339 419 348 420 355 425 c 1
 447 505 560.087890625 556.008789062 669 561 c 0
 875.541015625 570.465820312 1028.95410156 450.18359375 1042 282 c 0
 1055.14355469 112.560546875 966.994140625 -33 819 -33 c 4
 760 -33 723 -15 723 -15 c 1
 743 46 l 1
 743 46 774.74609375 15.431640625 832 17 c 0xb0
305 377 m 1x30
 317 400 320.857421875 420.9921875 320 439 c 0
 318 481 281.760742188 505.678710938 232 501 c 0
 197.934570312 497.796875 162 470 168 426 c 1
 208 371 l 1
 194 347 171.001953125 335.022460938 149 336 c 0
 104 338 84 369 84 415 c 0
 84 495 150.983398438 563.181640625 248 559 c 0
 330.926757812 555.42578125 379.715820312 480.119140625 353 416 c 0
 338 380 353 404 340 387 c 1
 305 377 l 1x30
124 165 m 1
 132 169 141.001953125 171.854492188 148 172 c 0
 196 173 205 72 288 72 c 0
 337 72 387 101 388 197 c 1
 423 197 l 0
 424 94 483.997070312 71.1669921875 544 72 c 0
 604.002929688 72.8330078125 655 118 655 194 c 0
 655 273 583 340 469 345 c 0
 407.059570312 347.716796875 331 329 298 311 c 1
 352 364 l 1
 365 368 398.99609375 390.330078125 476 391 c 0
 591 392 713 332 713 182 c 0
 713 48 637.995117188 -34.9423828125 533 -36 c 0
 447.693359375 -36.859375 414.721679688 8.326171875 396 49 c 1
 414 49 l 1
 396.737304688 7.81640625 353.954101562 -36 289 -36 c 0
 130.997070312 -36 177 169 112 130 c 0
 124 165 l 1
EndSplineSet
Fore
SplineSet
236 307 m 5
 270 340.91796875 308 380.89453125 308 456 c 4
 308 493.169921875 265.563476562 536.015625 201 514 c 4
 174.24609375 504.876953125 150.8359375 468.649414062 150 439 c 5
 177 343 l 4
 161 320 124 317 104 322 c 4
 80 328 62 349 62 387 c 4
 62 464.56640625 151.868164062 554.741210938 260 566 c 4
 342.623046875 574.602539062 385 534.547851562 377 484 c 4
 366.634765625 418.509765625 298.727539062 364.477539062 275 330 c 4
 236 307 l 5
25 129 m 5
 67.7058823529 170.870573682 195.823529412 270.206896552 333 402 c 5
 340 408 341.958824603 399.041419036 349 406 c 4
 447.519287834 503.363636364 576.759622753 557.930060454 706 559 c 4
 940.011267779 560.937304075 1049.32421875 406.866210938 1034 250 c 4
 1017.26269531 78.66796875 914.774414062 -69.2919921875 692 -36 c 5
 742 46 l 4x7c
 851.2421875 5.00390625 1000.09082031 91.5673828125 978 281 c 4
 966.377929688 380.659179688 867.205950847 476.319894489 635 463 c 4
 489.083810871 454.629894771 340 353 340 353 c 5
 217.756255393 230.855072464 139.803278688 179.614238958 56 95 c 5
 25 129 l 5
201 232 m 5
 174.449675325 207.749731716 116.897341891 48.2784657662 261 51 c 4
 313.478135588 51.9911062322 383.572265625 107 407 174 c 5
 434 179 l 5
 424.543945312 103 443.754385965 56 514 56 c 4
 611.328244274 56 690.930664062 115.299804688 691 192 c 4
 691.083984375 284.229492188 598.009105474 324.771484343 483 324 c 4
 405.437371009 323.479707684 293.75 286.719726562 234 256 c 5
 274 300 l 5
 283.735351562 301.845703125 421.704715804 395.568337979 535 394 c 4
 672.211914062 392.100585938 739.935546875 304.96875 735 206 c 4
 728.19921875 69.619140625 633.091924146 -44.1028842386 495 -45 c 4
 388.281820514 -45.6932958711 354.295774648 34.9677419355 384 89 c 5
 412 116 l 5
 395.090820312 73.73046875 333.306818182 -41 216 -41 c 4
 99.876923077 -41 99.6949918614 97.6561843442 145 169 c 4
 153.093023256 181.744444445 162.534883721 197.777720424 174 206 c 4
 201 232 l 5
EndSplineSet
Layer: 2
SplineSet
66.326171875 67.880859375 m 4
 176.326171875 281.57421875 420.939453125 524.341796875 643.62109375 533.0859375 c 4
 798.192382812 539.15625 942.725585938 463.5625 957.004882812 265.268554688 c 4
 965.497070312 124.8046875 914.6171875 -34.4140625 763.591796875 -34.8349609375 c 4
 728.2109375 -34.93359375 701.04296875 -23.37890625 701.04296875 -23.37890625 c 5
 712.322265625 29.4287109375 l 5
 712.322265625 29.4287109375 730.873046875 21.8466796875 756.412109375 21.806640625 c 4
 842.055664062 21.6630859375 885.763671875 102.141601562 881.553710938 211.435546875 c 4
 876.166015625 351.30078125 785.966796875 431.989257812 650.798828125 441.000976562 c 4
 561.961914062 447.6640625 473.952148438 415.846679688 393.42578125 365.911132812 c 5
 262.13671875 271.62109375 154.274414062 117.798828125 107.854492188 37.119140625 c 5
 107.854492188 37.119140625 61.4423828125 58.3955078125 66.326171875 67.880859375 c 4
158.098632812 125.302734375 m 5
 246.37109375 136.614257812 222.497070312 68.2265625 307.805664062 67.880859375 c 4
 346.783203125 67.72265625 398.271484375 94.3310546875 399.065429688 189.537109375 c 5
 452.8984375 189.389648438 l 4
 454.41796875 86.7236328125 513.942382812 67.1943359375 548.772460938 67.880859375 c 4
 609.311523438 69.07421875 629.265625 108.717773438 629.265625 174.521484375 c 4
 629.265625 258.342773438 562.046875 335.881835938 432.903320312 336.8125 c 4
 391.630859375 337.111328125 366.022460938 332.555664062 333.953125 320.126953125 c 5
 391.375 373.447265625 l 5
 404.348632812 377.874023438 420.5078125 385.955078125 451.360351562 386.822265625 c 4
 556.364257812 389.775390625 705.14453125 341.606445312 705.14453125 166.318359375 c 4
 705.14453125 46.3330078125 656.326171875 -34.4091796875 550.823242188 -34.830078125 c 4
 436.723632812 -35.283203125 429.314453125 53.525390625 429.314453125 53.525390625 c 5
 429.314453125 53.525390625 407.747070312 -33.6240234375 305.2421875 -34.02734375 c 4
 156.338867188 -34.615234375 188.34765625 130.942382812 132.9765625 77.109375 c 4
 158.098632812 125.302734375 l 5
279.607421875 343.198242188 m 5
 328.935546875 386.706054688 315.552734375 475.928710938 233.46484375 475.555664062 c 4
 195.796875 475.383789062 164.247070312 443.416015625 165.7890625 409.3359375 c 5
 210.90625 333.45703125 l 4
 153.484375 303.073242188 l 4
 120.538085938 307.661132812 75.951171875 329.982421875 72.478515625 387.745117188 c 4
 67.6318359375 468.33984375 144.56640625 534.123046875 232.439453125 536.939453125 c 4
 364.852539062 541.184570312 393.092773438 430.3125 362.266601562 380.625 c 4
 337.954101562 341.435546875 354.93359375 359.189453125 317.034179688 327.3046875 c 5
 279.607421875 343.198242188 l 5
EndSplineSet
Layer: 3
EndChar

StartChar: si_Ta
Encoding: 40 3501 8
GlifName: si_T_a
Width: 1044
VWidth: -11
Flags: MW
LayerCount: 4
Back
SplineSet
234 378 m 1x38
 246 401 249.788085938 421.989257812 249 440 c 0
 246.88671875 488.322265625 197.939453125 510.5859375 156 501 c 0
 124.6171875 493.826171875 99.75 469.586914062 96 425 c 1
 136 370 l 1
 122 346 98.9970703125 333.926757812 77 335 c 0
 36 337 12 368 12 414 c 0
 12 494 78.9794921875 562.083984375 176 558 c 0
 259.716796875 554.475585938 309.256835938 480.104492188 282 417 c 0
 266.53515625 381.197265625 282 405 269 388 c 1
 234 378 l 1x38
739 7 m 0x78
 853.530273438 10.0673828125 887.213867188 168.196289062 861 279 c 0
 830.31640625 408.693359375 700.73046875 467.030273438 551 462 c 0
 459.24609375 458.91796875 388 431.771484375 301 374 c 1
 284 362 295 367 281 355 c 1
 184 276 132 211 32 79 c 1
 32 79 -2.8720703125 98.5439453125 3 107 c 0
 103 251 163 322 261 413 c 1
 268 419 277 420 284 425 c 1
 378.9296875 505 495.6328125 555.721679688 608 561 c 4
 797.928710938 570.465820312 946.841796875 449.986328125 961 282 c 0
 974.724609375 112.560546875 872.547851562 -43 718 -43 c 0
 643.46875 -43 613 -22 613 -22 c 1
 637 40 l 1
 637 40 673.37109375 5.6181640625 739 7 c 0x78
62 142 m 1
 77.8271484375 148.801757812 91.9775390625 157.05859375 105 157.575195312 c 0
 191.53125 161.009765625 200.237304688 64.6337890625 368 62 c 0
 499.998046875 59.927734375 577.387695312 124.006835938 576 205 c 0
 573.891601562 328.076171875 439.087890625 345.88671875 388 346 c 0
 306.086914062 346.181640625 248 328 215 310 c 1
 252 362 l 1
 265 366 328.00390625 395.240234375 400 394 c 0
 500.004882812 392.27734375 635 345 635 195 c 0
 635 89.8291015625 566 -44 368 -44 c 0xb8
 238.072265625 -44 159.453125 7.7138671875 143 67.9970703125 c 0
 127.305664062 125.500976562 85.3955078125 127.443359375 40 104 c 1
 62 142 l 1
EndSplineSet
Fore
SplineSet
25 129 m 1
 67.7058823529 170.870573682 195.823529412 270.206896552 333 402 c 1
 340 408 341.958824603 399.041419036 349 406 c 0
 447.519287834 503.363636364 576.760593407 557.818617291 706 559 c 0
 917.934733083 560.937304075 1010.16752396 406.598374862 994 250 c 0
 976.311298039 78.6675196996 858 -66.2919921875 622 -43 c 1
 672 49 l 0
 811.339070971 18.0037667411 958.197377967 111.2061524 948 291 c 0
 942.324811213 391.061411002 847.088137507 472.548388643 635 463 c 0
 449.083810871 454.629894771 340 353 340 353 c 1
 217.756255393 230.855072464 139.803278688 179.614238958 56 95 c 1
 25 129 l 1
246 307 m 1
 280 340.918333024 318 380.894872272 318 456 c 0
 318 493.169811321 275.563476562 536.015625 211 514 c 0
 184.24609375 504.876953125 160.836065574 468.649122807 160 439 c 1
 187 343 l 0
 171 320 134 317 114 322 c 0
 90 328 72 349 72 387 c 0
 72 464.56630249 161.868164062 554.741210938 270 566 c 0
 352.623046875 574.602539062 395 534.547851562 387 484 c 0
 376.634765625 418.509765625 308.727272727 364.47761194 285 330 c 0
 246 307 l 1
182 210 m 1
 133.942491925 114.8671875 212.914969343 40.1245256839 349 42 c 0
 484.186295573 43.7001953125 608.178031205 103.911595484 624 192 c 0
 637.865234375 269.194335938 573.77019675 310.84709793 464 314 c 0
 369.923064172 316.702148438 284.981445312 287 217 239 c 1
 221 257 l 1
 249.912109375 275.271484375 385.155294872 395.425422966 524 392 c 0
 621.353293679 389.598207237 686.29296875 330.583984375 669 204 c 0
 646.895713142 42.1973192305 516 -47 335 -47 c 0
 207.228515625 -47 118.444512594 10.4041006839 120 104 c 0
 120.897435897 158 154.102564103 207 155 209 c 0
 182 210 l 1
EndSplineSet
Layer: 2
SplineSet
203.826171875 365.756835938 m 5
 240.606445312 440.026367188 199.995117188 496.55859375 157.68359375 497.6015625 c 4
 114.612304688 498.662109375 89.1669921875 465.461914062 84.880859375 431.381835938 c 5
 114.6171875 376.010742188 l 5
 100.875 352.084960938 77.26953125 339.463867188 55.6572265625 340.846679688 c 4
 29.9462890625 342.491210938 7.056640625 363.958007812 6.951171875 409.791015625 c 4
 6.7890625 480.055664062 60.263671875 565.857421875 172.0390625 558.985351562 c 4
 259.006835938 553.638671875 287.68359375 473.038085938 260.228515625 408.823242188 c 4
 245.037109375 373.291992188 256.887695312 391.560546875 243.81640625 374.985351562 c 5
 203.826171875 365.756835938 l 5
606.8046875 -22.5302734375 m 13
 620.133789062 34.111328125 l 4
 629.158203125 34.099609375 648.454101562 26.2783203125 677.043945312 26.2783203125 c 4
 784.709960938 26.2783203125 828.337890625 139.078125 827.305664062 238.608398438 c 4
 825.853515625 378.5703125 706.03125 462.880859375 576.04296875 464.584960938 c 4
 471.595703125 465.955078125 384.328125 437.892578125 298.674804688 382.830078125 c 5
 167.385742188 288.540039062 115.407226562 235.71875 12.5908203125 73.0078125 c 5
 12.5908203125 73.0078125 -29.0712890625 94.48828125 -23.810546875 103.76953125 c 4
 41.23828125 218.547851562 140.014648438 315.069335938 238.176757812 406.313476562 c 5
 245.81640625 412.305664062 253.509765625 418.155273438 261.248046875 423.856445312 c 5
 346.520507812 496.668945312 470.975585938 555.073242188 584.24609375 556.157226562 c 4
 754.30859375 557.784179688 914.811523438 460.306640625 918.137695312 271.93359375 c 4
 921.504882812 81.2705078125 810.120117188 -24.0751953125 680.120117188 -31.71484375 c 4
 639.104492188 -34.125 614.315429688 -22.5107421875 606.8046875 -22.5302734375 c 13
108.977539062 228.354492188 m 5
 96.8525390625 101.243164062 213.12109375 60.1318359375 325.84765625 57.626953125 c 4
 488.9140625 54.0029296875 539.4296875 113.750976562 539.641601562 200.668945312 c 4
 539.879882812 299.25 451.337890625 339.16015625 358.147460938 343.477539062 c 4
 286.133789062 346.815429688 214.362304688 318.712890625 182.29296875 301.157226562 c 5
 239.71484375 365.244140625 l 5
 252.688476562 369.670898438 325.370117188 394.450195312 386.858398438 393.487304688 c 4
 497.220703125 391.759765625 637.171875 347.966796875 626.799804688 178.110351562 c 4
 620.412109375 73.5126953125 551.322265625 -40.947265625 312.517578125 -40.982421875 c 4
 161.581054688 -41.00390625 48.37890625 57.7041015625 76.677734375 189.90234375 c 5
 108.977539062 228.354492188 l 5
EndSplineSet
Layer: 3
EndChar

StartChar: si_Na
Encoding: 44 3505 9
GlifName: si_N_a
Width: 1014
VWidth: -11
Flags: HMW
LayerCount: 4
Back
SplineSet
223 307 m 5
 257 340.91796875 295 380.89453125 295 456 c 4
 295 493.169921875 252.563476562 536.015625 188 514 c 4
 161.24609375 504.876953125 137.8359375 468.649414062 137 439 c 5
 164 343 l 4
 148 320 111 317 91 322 c 4
 67 328 49 349 49 387 c 4
 49 464.56640625 138.868164062 554.741210938 247 566 c 4
 329.623046875 574.602539062 372 534.547851562 364 484 c 4
 353.634765625 418.509765625 285.727539062 364.477539062 262 330 c 4
 223 307 l 5
65 199 m 5
 100.7734375 126.600585938 208.092773438 309.172851562 323 412 c 5
 330 418 321.924804688 399.076171875 329 406 c 4
 422 497 554.000976562 557.921875 676 559 c 4
 887.934570312 560.9375 979.223632812 406.693359375 964 250 c 4
 946.311523438 78.66796875 838 -76.2919921875 592 -33 c 5
 642 49 l 4
 781.338867188 8.00390625 938.197265625 101.206054688 918 291 c 4
 907.39453125 390.659179688 817.09375 472.43359375 605 463 c 4
 433.922851562 455.390625 340 363 340 363 c 5
 235.048828125 260.265625 153.901367188 96.7294921875 76 146 c 5
 52 152 52 186 65 199 c 5
62 224 m 5
 65.2724609375 90.0068359375 196.923828125 59.306640625 302 63 c 4
 427.149414062 67.287109375 555.728515625 102.155273438 590 198 c 4
 617.302734375 271.319335938 555.197265625 330.142578125 461 333 c 4
 371 336 317 306 248 258 c 5
 232 268 l 5
 311 334 410 407 498 407 c 4
 596.359375 407 660.198242188 333.069335938 635 218 c 4
 601 61.890625 476.681640625 -36.35546875 295 -33 c 4
 182.260742188 -30.8134765625 70.9208984375 19.85546875 37 143 c 4
 27 179 32 218 32 218 c 4
 62 224 l 5
EndSplineSet
Fore
SplineSet
223 307 m 5
 257 340.91796875 295 380.89453125 295 456 c 4
 295 493.169921875 252.563476562 536.015625 188 514 c 4
 161.24609375 504.876953125 137.8359375 468.649414062 137 439 c 5
 164 343 l 4
 148 320 111 317 91 322 c 4
 67 328 49 349 49 387 c 4
 49 464.56640625 138.868164062 554.741210938 247 566 c 4
 329.623046875 574.602539062 372 534.547851562 364 484 c 4
 353.634765625 418.509765625 285.727539062 364.477539062 262 330 c 4
 223 307 l 5
65 199 m 5
 100.7734375 126.600585938 208.092773438 309.172851562 323 412 c 5
 330 418 321.924804688 399.076171875 329 406 c 4
 422 497 554.000976562 557.921875 676 559 c 4
 887.934570312 560.9375 979.223632812 406.693359375 964 250 c 4
 946.311523438 78.66796875 838 -76.2919921875 592 -33 c 5
 642 49 l 4
 781.338867188 8.00390625 938.197265625 101.206054688 918 291 c 4
 907.39453125 390.659179688 817.09375 472.43359375 605 463 c 4
 433.922851562 455.390625 340 363 340 363 c 5
 235.048828125 260.265625 153.901367188 96.7294921875 76 146 c 5
 52 152 52 186 65 199 c 5
62 224 m 5
 65.2724609375 90.0068359375 196.923828125 59.306640625 302 63 c 4
 427.149414062 67.287109375 555.728515625 102.155273438 590 198 c 4
 617.302734375 271.319335938 555.197265625 330.142578125 461 333 c 4
 371 336 317 306 248 258 c 5
 232 268 l 5
 311 334 410 407 498 407 c 4
 596.359375 407 660.198242188 333.069335938 635 218 c 4
 601 61.890625 476.681640625 -36.35546875 295 -33 c 4
 182.260742188 -30.8134765625 70.9208984375 19.85546875 37 143 c 4
 27 179 32 218 32 218 c 4
 62 224 l 5
EndSplineSet
Layer: 2
SplineSet
45.7060546875 83.3212890625 m 0
 155.70703125 297.014648438 374.685546875 541.3203125 612.747070312 550.064453125 c 0
 767.333007812 555.743164062 929.002929688 475.564453125 946.126953125 277.120117188 c 0
 958.224609375 136.918945312 873.490234375 -32.3037109375 722.463867188 -32.724609375 c 0
 687.083984375 -32.8232421875 670.168945312 -21.2685546875 670.168945312 -21.2685546875 c 1
 686.575195312 26.412109375 l 1
 686.575195312 26.412109375 694.873046875 18.8330078125 720.412109375 18.7900390625 c 0
 806.055664062 18.646484375 866.682617188 119.120117188 860.421875 228.4140625 c 0
 852.416015625 368.154296875 739.6328125 447.84765625 614.797851562 452.852539062 c 0
 525.783203125 456.421875 448.206054688 437.952148438 367.678710938 388.016601562 c 1
 236.390625 293.7265625 133.655273438 133.239257812 87.234375 52.5595703125 c 1
 87.234375 52.5595703125 40.8232421875 73.8359375 45.7060546875 83.3212890625 c 0
194.387695312 214.571289062 m 1
 164.741210938 169.486328125 191.624023438 68.28515625 282.05859375 67.9404296875 c 0
 321.037109375 67.7919921875 372.525390625 94.390625 373.318359375 189.596679688 c 1
 427.151367188 189.44921875 l 0
 428.671875 86.783203125 488.197265625 67.1904296875 523.025390625 67.9404296875 c 0
 578.4375 69.1337890625 612.747070312 124.158203125 612.747070312 184.834960938 c 0
 612.747070312 299.41796875 526.049804688 343.943359375 402.029296875 343.537109375 c 0
 340.25 343.3359375 304.387695312 323.899414062 272.317382812 306.34375 c 1
 329.739257812 369.91796875 l 1
 342.713867188 374.344726562 379.508789062 385.482421875 410.232421875 388.419921875 c 0
 494.729492188 396.5 680.935546875 373.965820312 680.935546875 167.916015625 c 0
 680.935546875 53.0576171875 625.965820312 -34.349609375 520.461914062 -34.7705078125 c 0
 406.36328125 -35.2236328125 403.567382812 53.5849609375 403.567382812 53.5849609375 c 1
 403.567382812 53.5849609375 382.000976562 -33.5771484375 279.495117188 -33.9677734375 c 0
 125.465820312 -34.5556640625 124.661132812 125.875 146.194335938 164.327148438 c 0
 194.387695312 214.571289062 l 1
276.931640625 381.197265625 m 1
 313.712890625 455.466796875 260.236328125 494.984375 207.717773438 492.534179688 c 0
 182.075195312 491.3359375 144.328125 470.6484375 140.041992188 436.568359375 c 1
 169.778320312 376.0703125 l 0
 148.487304688 339.00390625 113.47265625 333.344726562 86.7216796875 345.686523438 c 0
 86.7216796875 345.686523438 57.107421875 362.216796875 56.9853515625 414.977539062 c 0
 56.82421875 485.2421875 110.028320312 553.598632812 206.692382812 553.91796875 c 0
 293.637695312 554.205078125 337.71875 503.859375 341.025390625 444.771484375 c 0
 343.184570312 406.189453125 322.303710938 391.620117188 309.231445312 375.044921875 c 1
 276.931640625 381.197265625 l 1
EndSplineSet
Layer: 3
EndChar

StartChar: anusvara
Encoding: 1 3458 10
GlifName: anusvara
Width: 588
VWidth: 0
Flags: HMW
LayerCount: 4
Back
SplineSet
120 225 m 0
 120 135 165.049804688 67.998046875 283 67 c 0
 373.046875 66.23828125 438.099609375 143.999023438 439 224 c 4
 440.125 323.993164062 371 393 264 387 c 0
 194.109375 383.081054688 120 318 120 225 c 0
55 194 m 0
 55 345 173 443 294 443 c 0
 445 443 523 335 523 214 c 0
 523 93 436 -25 285 -25 c 0
 134 -25 55 73 55 194 c 0
EndSplineSet
Fore
SplineSet
135.733398438 225 m 0
 129.440429688 135 169.8046875 67.998046875 287.685546875 67 c 0
 377.678710938 66.23828125 448.168945312 143.999023438 454.6640625 224 c 4
 462.78125 323.993164062 398.481445312 393 291.061523438 387 c 0
 220.897460938 383.081054688 142.236328125 318 135.733398438 225 c 0
68.5654296875 194 m 0
 79.125 345 203.977539062 443 324.977539062 443 c 0
 475.977539062 443 546.42578125 335 537.963867188 214 c 0
 529.502929688 93 434.251953125 -25 283.251953125 -25 c 0
 132.251953125 -25 60.1044921875 73 68.5654296875 194 c 0
EndSplineSet
Layer: 2
Layer: 3
EndChar

StartChar: si_A
Encoding: 3 3461 12
GlifName: si_A_
Width: 758
VWidth: -17
Flags: HMW
AnchorPoint: "si_hal" 446.404 492 basechar 0
LayerCount: 4
Back
SplineSet
364 -57.5380859375 m 0
 153.625 -57.1875 52.4326171875 37.0244140625 54 157 c 0
 55.8642578125 305.000976562 183.197265625 381 323 383 c 0
 356.912109375 383.546875 385.2578125 381.401367188 402.384765625 378.52734375 c 1
 403.505859375 468.180664062 340.708007812 504.435546875 271 497 c 1
 215 408 l 1
 169 411 141 448 150 484 c 0
 166 546 225 567 288 567 c 0
 360 567 432 527 446 443 c 0
 455.095703125 388.426757812 439 334 439 334 c 1
 329.883789062 352.869140625 188.782226562 312.513671875 175 179 c 0
 164.526367188 81.240234375 240.35546875 4.236328125 408 4.8173828125 c 0
 529.96875 5.240234375 602.526367188 50.912109375 665 88.599609375 c 1
 696 47 l 1
 624.354492188 -10.3515625 511.6953125 -57.7841796875 364 -57.5380859375 c 0
506 406.842773438 m 1
 507.64453125 463.158203125 496.786132812 528.805664062 565 568 c 1
 594 546.889648438 l 1
 593.51171875 491.823242188 726 455.326171875 726 386 c 0
 726 313.143554688 634 241.561523438 545 234 c 1
 536 274 l 1
 593 284 652 321.561523438 652 378 c 0
 652 426 566.39453125 468.649414062 566 507.856445312 c 1
 554.118164062 493.653320312 558.6328125 470 558.6328125 421.313476562 c 0
 556 -378 l 1
 506 -378 l 1
 506 406.842773438 l 1
438.465820312 371.448242188 m 1
 439.303710938 371.296875 440.147460938 371.146484375 441 371 c 1
 441 371.776367188 440.05859375 371.853515625 438.465820312 371.448242188 c 1
EndSplineSet
Fore
SplineSet
359.9765625 -57.5380859375 m 0
 149.625976562 -57.1875 52.5837895046 37.2517037417 64.978515625 157 c 0
 77.1923828125 275.000976562 211.000509787 364.902884313 349.782226562 383 c 0
 392.319658966 388.546875 427.646589739 381.401367188 448.853515625 378.52734375 c 1
 457.461702605 468.180664062 389.250237884 514.435546875 307.453125 507 c 1
 245.229492188 418 l 1
 199.439453125 421 174.026367188 458 185.543945312 494 c 0
 205.87890625 556 266.34765625 577 329.34765625 577 c 0
 401.34765625 577 468.8515625 527 476.977539062 443 c 0
 482.256835938 373.406599412 462.35546875 304 462.35546875 304 c 1
 331.025486638 319.217048891 140.081758385 279.29016902 127.516601562 179 c 0
 117.436864876 92.1112813751 195.088834019 34.3364049347 408.336914062 34.8173828125 c 0
 530.334960938 35.240234375 605.505859375 86.912109375 665.825195312 127.599609375 c 1
 699.286132812 47 l 1
 623.630859375 -10.3515625 507.654296875 -57.7841796875 359.9765625 -57.5380859375 c 0
534.44921875 406.842773438 m 1
 540.03125 463.158203125 533.763671875 528.805664062 604.71875 568 c 1
 632.2421875 546.889648438 l 1
 627.903320312 491.823242188 757.83984375 455.326171875 752.9921875 386 c 0
 747.897460938 313.143554688 650.891601562 241.561523438 561.36328125 234 c 1
 555.16015625 274 l 1
 612.859375 284 674.485351562 321.561523438 678.432617188 378 c 0
 681.7890625 426 599.166015625 468.649414062 601.512695312 507.856445312 c 1
 588.637695312 493.653320312 591.498046875 470 588.09375 421.313476562 c 0
 529.567382812 -378 l 1
 479.567382812 -378 l 1
 534.44921875 406.842773438 l 1
464.440429688 371.448242188 m 1
 465.267578125 371.296875 466.100585938 371.146484375 466.942382812 371 c 1
 466.997070312 371.776367188 466.061523438 371.853515625 464.440429688 371.448242188 c 1
EndSplineSet
Layer: 2
Layer: 3
EndChar

StartChar: si_Ii
Encoding: 8 3466 17
GlifName: si_I_i
Width: 729
VWidth: -5
Flags: HMW
LayerCount: 4
Back
SplineSet
527 611 m 0xb0
 527 642 552 667 583 667 c 0
 614 667 639 642 639 611 c 0
 639 580 614 555 583 555 c 0
 552 555 527 580 527 611 c 0xb0
215 701 m 4
 215 733 241 759 273 759 c 4
 305 759 331 733 331 701 c 4
 331 669 305 643 273 643 c 4x70
 241 643 215 669 215 701 c 4
EndSplineSet
Refer: 4 3515 N 1 0 0 1 0 0 2
Fore
SplineSet
609.725585938 611 m 4
 611.892578125 642 638.641601562 667 669.641601562 667 c 4
 700.641601562 667 723.892578125 642 721.725585938 611 c 4
 719.557617188 580 692.809570312 555 661.809570312 555 c 4
 630.809570312 555 607.557617188 580 609.725585938 611 c 4
274.018554688 701 m 4
 276.256835938 733 304.07421875 759 336.07421875 759 c 4
 368.07421875 759 392.256835938 733 390.018554688 701 c 4
 387.78125 669 359.962890625 643 327.962890625 643 c 4
 295.962890625 643 271.78125 669 274.018554688 701 c 4
EndSplineSet
Refer: 4 3515 N 1 0 0.0699268 1 0 0 2
Layer: 2
Layer: 3
EndChar

StartChar: si_U
Encoding: 9 3467 18
GlifName: si_U_
Width: 723
VWidth: -17
Flags: HMW
LayerCount: 4
Back
SplineSet
153 82 m 0
 134.201906315 -47.7994601107 198.972526228 -212.974609023 382 -236.380859375 c 0
 516.911576709 -252.204891615 598.588777731 -209.567542192 672 -151 c 1
 706 -208 l 1
 656.222222222 -243.865923717 549.874452006 -301.940847466 398 -296.19140625 c 0
 120.45118203 -285.48990852 25.9167733352 -102.742418168 37 34 c 4
 59.611328125 311.194438579 311.991484908 369.895574109 467 371 c 0
 529.002929688 371.436523438 565 367.727539062 594 365 c 1
 594 370 569.833007812 346 569 351 c 1
 581.571289062 478 452.213867188 499 374 481 c 1
 318 402 l 1
 272 405 250.087119932 445.53313978 261 481 c 0
 277 533 338 561 421 561 c 0
 503.286132812 561 597.034094894 506.79393118 611 423 c 0
 620.095703125 368.426757812 608 318 608 318 c 1
 608 316 l 1
 392.633333333 336.892578125 186.468603666 299.200396191 153 82 c 0
EndSplineSet
Fore
SplineSet
166.796875 40 m 0
 162.907226562 -100.927734375 239.518554688 -207.74609375 382.379882812 -223.380859375 c 0
 532.58203125 -239.819335938 631.731445312 -169.567382812 688.5390625 -121 c 1
 728.552734375 -178 l 1
 676.267578125 -213.866210938 585.227539062 -281.444335938 422.987304688 -286.19140625 c 0
 124.809570312 -294.916015625 30.3564453125 -117.18359375 38.748046875 25 c 0
 51.732421875 245.001953125 214.327148438 358.123046875 388.979492188 385.828125 c 4
 467.791992188 398.330078125 559.556640625 391.416992188 620.711914062 382 c 1
 621.061523438 387 604.216796875 363 603.733398438 368 c 1
 625.185546875 495 484.295898438 516 404.823242188 498 c 1
 343.299804688 419 l 1
 297.508789062 422 278.430664062 462.533203125 291.823242188 498 c 0
 311.459960938 550 374.41796875 578 457.41796875 578 c 0
 547.704101562 578 633.661132812 523.793945312 641.767578125 440 c 0
 647.047851562 385.426757812 631.844726562 341 631.844726562 341 c 1
 631.705078125 339 l 1
 549.06640625 346.85546875 487.66015625 345.057617188 424.333007812 333.68359375 c 0
 255.985351562 303.446289062 170.672851562 180.392578125 166.796875 40 c 0
EndSplineSet
Layer: 2
Layer: 3
EndChar

StartChar: si_E
Encoding: 15 3473 22
GlifName: si_E_
Width: 760
VWidth: -14
Flags: HMW
LayerCount: 4
Back
SplineSet
336.81640625 669.124023438 m 1xde
 427 678 l 1
 425.842773438 653.400539719 448.363491842 575.996956623 488 559 c 0
 564.103515625 526.365234375 597.166015625 606.057617188 654 558 c 1
 683 526 l 1
 614.135742188 554.92578125 559.416287215 470.925470977 457 505.301757812 c 0
 376.956054688 532.168711285 380.421875 669.104915298 336.81640625 669.124023438 c 1xde
30 317 m 5
 419 316 l 5
 414 275 l 5
 113 270 l 5
 29 252 l 5
 30 317 l 5
415.504882812 661.212890625 m 0
 365.150223695 668.377572949 331.440007734 662.285715331 315 661 c 1
 316 741 l 1xee
 647.914375659 740.212890625 800 516.80859375 800 311 c 0
 800 91.0390625 671.749908359 -56.3568812077 449 -61 c 0
 229.623230244 -65.5728072786 126.234562254 17.8004014046 123 121 c 0
 118.597068797 261.476731369 262.522058823 302.262309365 376 306 c 1
 376 394 334.691729323 438 242 438 c 1
 216 357 l 1
 169.636363636 350 138.268483167 378.897251479 146 425 c 0
 155.391304348 481 209.860869565 500 254 500 c 0
 320 500 417.480828685 462.978771411 422 359 c 0
 423.383789062 327.161267511 414 282 414 282 c 1
 286.25 299.455610795 195.404368225 246.993333829 196 162 c 0
 196.519135843 86.054701937 304.648122074 38.9859262278 443 40 c 0
 628.478107244 41.3391927084 738 144.647971633 738 346 c 0
 738 538.33781221 549.268901917 642.180357787 415.504882812 661.212890625 c 0
EndSplineSet
Fore
SplineSet
-34.1826171875 312 m 5
 387.02734375 315 l 5
 378.530273438 265 l 5
 55.740234375 268 l 5
 -39.0986328125 256 l 5
 -34.1826171875 312 l 5
EndSplineSet
Refer: 48 3509 N 1 0 0.0699268 1 0 0 2
Layer: 2
Layer: 3
EndChar

StartChar: si_Os
Encoding: 18 3476 25
GlifName: si_O_s
Width: 819
VWidth: -24
Flags: HMW
LayerCount: 4
Back
SplineSet
539 -40 m 1xbbf0
 434 -40 390 27 375 131 c 1
 373 128 412 134 410 131 c 1
 393.096236766 30 350.368372182 -37.1982421875 237 -39 c 1
 60.6 -39 28.5610844767 115.777602197 27 196 c 0
 24.5031197567 333.395201123 99.5095736885 439.720590168 186 442 c 0xdbf0
 233.299804688 443.30859375 267.819335938 406.991210938 267.819335938 336 c 0
 267.819335938 243.576171875 312.777545532 225.267366929 381 224 c 0
 467.734444754 222.388736264 496.947175837 264.54736198 499 316 c 0
 500.790272588 360.871961805 480.006588764 431.521282459 401 432 c 0
 364.743212891 432.24859375 344.323604041 409.653417249 344 389 c 0
 343.645664062 369.029296875 354.435150052 342.292190268 391 342.561523438 c 0
 439.637695312 342.920043945 451.7578125 394.288970947 420 431.561523438 c 1
 462 430.561523438 l 1
 490.539422286 381.112720677 459.906112514 293.62788779 380 295 c 0
 342.763004955 295.744362993 304.899280322 320.27504678 304 367.856445312 c 0
 303.232680203 405.485062239 328 466 406 466 c 0xd7f0
 488.267578125 466 537.463319731 405.053884241 538 320 c 0
 538.395507812 257.319335938 499.317105711 176.136715956 380 177 c 0
 272.291015625 177.779296875 221 229.416992188 221 304 c 0
 221 348 213.053712691 393.716706242 176 393 c 0
 114.011610243 391.960477941 87.5518015862 292.796073739 91 219 c 0
 95.7634662829 110.005145734 157.148062423 60.3882137459 240 57 c 0
 306.52173913 53.8026315789 372.065217391 85.019646895 375 219 c 1
 403 220 l 1
 405.979166667 95.5458661005 481.315558839 54.34769911 546 56 c 0
 669.265683378 59.0715343602 697.240070303 208.942564204 702 304 c 0
 712.814970353 491.489726732 625.405966155 675.986566065 379 679 c 0
 234.40475591 680.790508156 146.277777778 597 143 597 c 1
 108 647 l 0
 108 647 218.187536916 733.598117483 371 733 c 0
 646.039548023 731.950124688 777.99128632 519.118245551 775 312 c 0
 773.165724298 178.163248689 732.611650485 -40 539 -40 c 1xbbf0
EndSplineSet
Fore
SplineSet
536.203125 -40 m 1
 431.203125 -40 391.887695312 27 384.16015625 131 c 1
 381.950195312 128 421.370117188 134 419.16015625 131 c 1
 395.194335938 30 347.767578125 -37.1982421875 234.272460938 -39 c 1
 57.873046875 -39 36.6572265625 115.77734375 40.7060546875 196 c 0
 47.81640625 333.395507812 130.2578125 439.720703125 216.907226562 442 c 0
 264.298828125 443.30859375 296.279296875 406.991210938 291.314453125 336 c 0
 284.8515625 243.576171875 328.529296875 225.267578125 396.6640625 224 c 0
 483.28515625 222.388671875 515.446289062 264.546875 521.096679688 316 c 0
 526.024414062 360.872070312 510.181640625 431.521484375 431.208007812 432 c 0
 394.96875 432.249023438 372.969726562 409.653320312 371.201171875 389 c 0
 369.451171875 369.029296875 378.370117188 342.291992188 414.954101562 342.561523438 c 0
 463.6171875 342.919921875 479.329101562 394.2890625 450.177734375 431.561523438 c 1
 492.107421875 430.561523438 l 1
 517.189453125 381.112304688 480.438476562 293.627929688 400.627929688 295 c 0
 363.443359375 295.744140625 327.294921875 320.275390625 329.72265625 367.856445312 c 0
 331.586914062 405.485351562 360.5859375 466 438.5859375 466 c 0
 520.853515625 466 565.787109375 405.053710938 560.376953125 320 c 0
 556.388671875 257.319335938 511.633789062 176.13671875 392.376953125 177 c 0
 284.72265625 177.779296875 237.041992188 229.416992188 242.2578125 304 c 0
 245.334960938 348 240.584960938 393.716796875 203.481445312 393 c 0
 141.419921875 391.9609375 108.026367188 292.795898438 106.314453125 219 c 0
 103.456054688 110.004882812 161.37109375 60.388671875 243.985351562 57 c 0
 310.284179688 53.802734375 378.010742188 85.01953125 390.314453125 219 c 1
 418.383789062 220 l 1
 412.66015625 95.5458984375 485.116210938 54.34765625 549.916015625 56 c 0
 673.396484375 59.0712890625 711.850585938 208.942382812 723.2578125 304 c 0
 747.18359375 491.489257812 672.67578125 675.986328125 426.48046875 679 c 0
 282.010742188 680.790039062 188.024414062 597 184.74609375 597 c 1
 153.2421875 647 l 0
 153.2421875 647 269.485351562 733.59765625 422.256835938 733 c 0
 697.22265625 731.950195312 814.291992188 519.118164062 796.817382812 312 c 0
 785.624023438 178.163085938 729.814453125 -40 536.203125 -40 c 1
EndSplineSet
Layer: 2
Layer: 3
EndChar

StartChar: si_Kha
Encoding: 22 3483 28
GlifName: si_K_ha
Width: 835
VWidth: -24
Flags: MW
LayerCount: 4
Back
SplineSet
275.736328125 334.590820312 m 0
 207.381835222 324.226228058 126.664703527 268.400506065 116 163 c 0
 105.682058146 61.0265799071 141.392465925 -8.16066226344 223 -8.2998046875 c 0
 264.238535109 -8.3701171875 283.265396693 24.8983315225 283.409179688 51.7451171875 c 0
 283.588867188 85.2958984375 263.164059928 111.356644344 230.8828125 110.939453125 c 0
 205.266601562 110.608398438 181.614612844 89.8516679477 182.977539062 50.763671875 c 0
 183.839912926 26.03125 200.476396582 -6.9013671875 241.888671875 -12.09375 c 0
 234.706054688 -23.3828125 l 0
 167.255115122 -21.3203125 141.325292334 15.4651987976 140.389648438 53.98828125 c 0
 139.001257764 111.152217945 178.128818539 167.074593396 241.249023438 169.60546875 c 0
 299.694209519 171.948893985 345.76615991 129.020285934 345.776367188 61.1171875 c 0
 345.784244374 8.71484375 306.063253785 -59.7658427393 224 -58.787109375 c 0
 106.223898192 -57.3824441316 61.896784615 57.9056093142 61.5234375 149.9375 c 0
 60.81640625 324.224162748 182.234830079 431.799907501 316.396484375 434.801757812 c 0
 420.31640625 437.126953125 533.740234375 372.130859375 526.779296875 234 c 1
 514.501953125 220 l 1
 487.4140625 212.859375 448.186299537 169.589865393 448.287109375 128 c 0
 448.428170155 69.8043021133 502.307204107 45.1263451332 568 51.73046875 c 0
 671.002922083 62.0436984734 732.707870738 178.150771759 725.416015625 339 c 0
 715.695837344 552.312033205 613.163082657 667.274459809 386 672.860351562 c 0
 265.927724458 675.802187471 170.387196633 609 170 609 c 2
 139 665 l 1
 139 665 244.290997216 738.885146054 394 736.09375 c 0
 620.056385242 732.014325509 791.480630741 580.630141826 796.62890625 333 c 0
 801.176619521 114.256694096 724.288504485 -51.9986914946 555 -52 c 0
 428.656767648 -52.0009583657 388.565480011 29.4714919299 388.739257812 106 c 0
 388.90234375 177.820010537 435.810546875 249.176430151 488 261 c 1
 488.30078125 264.1328125 484.762695312 233.118164062 485.032226562 236 c 1
 420.567382812 331.591907444 341.564453125 344.572339384 275.736328125 334.590820312 c 0
EndSplineSet
Fore
SplineSet
315.057617188 343.590820312 m 0
 213.5625 343.143554688 124.020507812 269.772460938 112.515625 176 c 4
 97.369140625 52.544921875 160.720703125 -3.1220703125 226.728515625 -3.2998046875 c 0
 261.861328125 -3.38671875 284.203125 31.3310546875 287.6328125 57.7451171875 c 0
 291.142578125 84.7783203125 280.5390625 111.390625 238.637695312 110.939453125 c 0
 219.216796875 110.73046875 186.013671875 90.455078125 182.958007812 55.763671875 c 0
 180.3984375 26.703125 195.107421875 -11.9931640625 242.80078125 -18.09375 c 0
 234.231445312 -29.3828125 l 0
 176.65625 -27.16796875 133.751953125 16.626953125 137.643554688 57.98828125 c 0
 142.688476562 111.6171875 193.754882812 157.215820312 248.734375 157.60546875 c 0
 296.990234375 157.947265625 341.893554688 127.767578125 335.905273438 65.1171875 c 0
 330.760742188 9.435546875 291.237304688 -53.693359375 206.65234375 -52.787109375 c 0
 90.4462890625 -51.34765625 58.8739282865 50.6889330079 69.048828125 157.9375 c 0
 83.2861328125 308.005859375 193.524414062 443.33203125 333.14453125 444.801757812 c 0
 461.173828125 445.96875 518.276308556 342.075365211 510.416015625 224 c 0
 505.163085938 145.091796875 473.15625 89.2568359375 458.698242188 58 c 1
 453.504882812 78.6162109375 487.271484375 138.49609375 492 137.858398438 c 1
 477.99609375 104.353515625 488.833310166 53.8782776134 553.239257812 56.73046875 c 0
 648.573478745 60.9523058613 716.703125 234.466796875 711.422851562 377 c 0
 707.10154644 493.647266112 676.739257812 656.302734375 464.048828125 659 c 0
 321.802734375 660.666992188 205.262695312 560 202.12109375 560 c 1
 173.505859375 622 l 0
 173.505859375 622 273.259765625 702.440429688 427.310546875 710 c 0
 687.587890625 723.638671875 806.857421875 529 788.21484375 302 c 0
 770.905519994 91.2342750897 639.859375 -71.310546875 527.87109375 -61 c 0
 478.882800087 -56.4897414935 456 -24 451 36.5849609375 c 1
 444.225585938 23.9912109375 390.224318133 -69.9482156627 376.602539062 -93.9130859375 c 1
 325.831054688 -83 l 1
 381.153320312 5.1328125 434.991210938 91.1259765625 446.458984375 196 c 0
 455.430664062 278.047851562 395.80078125 343.946289062 315.057617188 343.590820312 c 0
EndSplineSet
Layer: 2
Layer: 3
EndChar

StartChar: si_Ga
Encoding: 23 3484 29
GlifName: si_G_a
Width: 843
VWidth: -24
Flags: MW
AnchorPoint: "si_hal" 660 545 basechar 0
LayerCount: 4
Back
SplineSet
694.759765625 15.6123046875 m 4
 801.693880129 27.6985509184 856.623046875 96.9677734375 856.623046875 219.600585938 c 4
 856.623046875 341.538085938 789.133105008 439.272460938 653.9375 437.533203125 c 4
 560.677933409 436.3991068 474.352520627 377.801802617 448.877929688 264.823242188 c 5
 398.610351562 248.01171875 l 5
 413.19601622 440.625726741 528.975026848 535.514166172 652.6796875 542.603515625 c 4
 830.741894767 552.603515625 920.870117188 411.889648438 920.870117188 267.375 c 4
 920.870117188 101.1640625 843.431640625 -54.5166015625 664.411132812 -55.814453125 c 4
 614.002785932 -56.1799003721 578.489974977 -45.9150390625 560.682617188 -36.138671875 c 5
 579.452148438 38.328125 l 5
 600.120380124 22.771484375 652.902899351 10.5341796875 694.759765625 15.6123046875 c 4
114.974609375 245.841796875 m 4
 114.147124143 150.483398438 175.654133458 56.1116529088 325 50.5908203125 c 4
 410.575469237 47.0772202903 495.886798797 79.8349609375 498 150 c 4
 499.185546875 200.606849408 465.316307607 247 399 247 c 5
 440 281 l 5
 482 279.932904412 551.65234375 240.74224938 552 152 c 4
 552.507300763 44.1224475001 478.594072843 -57.0581050553 313.598632812 -55.0048828125 c 4
 155.703740257 -53.0400205996 53.9951171875 61.9140625 53.9951171875 221.564453125 c 4
 53.9951171875 428.865278548 202.2890625 526 337 538 c 4
 344.879882812 461.879882812 l 4
 249.916015625 461.879882812 116.434217106 422.454332384 114.974609375 245.841796875 c 4
EndSplineSet
Fore
SplineSet
729.623046875 222.600585938 m 0
 790.352539062 369.83203125 729.6171875 485.984375 598.9375 483.533203125 c 0
 525.455078125 482.155273438 430.170898438 453.77734375 368.877929688 298.823242188 c 1
 331.610351562 288.01171875 l 1
 370.081054688 457.799804688 525.827148438 576.603515625 645.6796875 576.603515625 c 0
 807.846679688 576.603515625 820.426507828 397.349491695 798.870117188 301.375 c 0
 759.805664062 127.450195312 663.163085938 -15.6162109375 472.682617188 -17.138671875 c 1
 494.452148438 67.328125 l 1
 584.994140625 59.9912109375 697.483398438 144.681640625 729.623046875 222.600585938 c 0
92.974609375 281.841796875 m 0
 68.478515625 195.09375 114.748046875 105.23828125 184.783203125 85.955078125 c 0
 300.169921875 54.185546875 396.473632812 142.3359375 408 204 c 0
 411.797851562 224.172851562 425.954101562 287 332 287 c 1
 380 335 l 1
 436.91015625 331 456.94140625 290.21484375 447 206 c 0
 433.631835938 93.953125 348.163085938 -11.0048828125 205.598632812 -11.0048828125 c 0
 78.97265625 -11.0048828125 2.3779296875 107.635742188 43.9951171875 265.564453125 c 0
 93.3525390625 452.865234375 227.685546875 552 337 572 c 0
 350.879882812 481.879882812 l 0
 242.752929688 461.879882812 128.556640625 407.848632812 92.974609375 281.841796875 c 0
EndSplineSet
Layer: 2
Layer: 3
EndChar

StartChar: si_Gha
Encoding: 24 3485 30
GlifName: si_G_ha
Width: 855
VWidth: -24
Flags: HMW
LayerCount: 4
Back
SplineSet
39 379 m 1xe8
 417 381 l 1
 419 336 l 1
 123 335 l 1
 38 322 l 1
 39 379 l 1xe8
547 373 m 1
 580 384 l 1
 679.491210938 410.330078125 865 380.840820312 865 186 c 0
 865 64 790.377929688 -45 659 -45 c 0
 554 -45 521 13 506 117 c 1
 505.427734375 116.142578125 540 147 534 165 c 24
 528 183 486.626953125 183.658203125 484 184 c 1
 481.327148438 184.34765625 438 184 427 162 c 24
 419 145 461.505859375 117.758789062 461 117 c 1
 443.119140625 16 420.748046875 -43.1982421875 304 -44 c 0
 171.470703125 -44.91015625 99.1728515625 54.9951171875 101 154 c 0
 103.165039062 268 197.35546875 346 232 347 c 1
 326 338 l 1
 239.861328125 324.103515625 161.854492188 266.251953125 163 183 c 0
 163.899414062 112.950195312 215.602539062 66.7216796875 304 62 c 0
 345.575534477 59.7790143032 409.211914062 74.7744140625 415 107.828125 c 1
 414.201171875 132.467773438 370.123013369 139.845373801 371 171 c 0
 372.030155581 207.595896569 416.004882812 243.372070312 488 242 c 0
 555.00390625 240.72265625 590 210 590 174 c 0
 590 142.71560447 550.262695312 129.123046875 548 112.466796875 c 1
 551.45703125 84.8037109375 620.854500708 64.2333014695 664 64 c 0
 743.806640625 63.599609375 799.400390625 113.7890625 801 195 c 0xf2
 803.384765625 310.975585938 705.305664062 383.813476562 542 328 c 1
 537 350.166992188 532.391601562 374.670898438 532 398 c 0
 530 500 603 568 687 570 c 0
 753.981445312 571.594726562 830 532 830 452 c 0
 830 356 737 330 737 330 c 1
 721 337 l 1
 721 337 760 374.990234375 760 424 c 0xe4
 760 465 719.879882812 513.047851562 656 509 c 0
 619.995117188 506.71875 577 472 572 411 c 0
 568.227539062 364.98046875 588 353 588 353 c 1
 547 373 l 1
388 364 m 1xe8
 391 398 391 417 379 445 c 0
 365 480 310 508 260 503 c 0
 209 419 l 1
 179 422 155 439 155 476 c 0
 155 543 227 568 280 568 c 0
 360 568 433.29296875 518.05078125 436 433 c 0
 437.56640625 383.791015625 428 358.083007812 419 337 c 1
 388 364 l 1xe8
EndSplineSet
Fore
Refer: 6 3523 N 1 0 0 1 0 0 2
Layer: 2
Layer: 3
Colour: ff0000
EndChar

StartChar: si_Nga
Encoding: 25 3486 31
GlifName: si_N_ga
Width: 843
VWidth: -24
Flags: MW
LayerCount: 4
Back
SplineSet
441 474 m 25x9e
 291 490 l 17
 156 448 95.365234375 383.963867188 90 238 c 0
 87.2509765625 163.2109375 130.008789062 56.189453125 178 18.7021484375 c 0
 137 -30.3115234375 l 0
 69.341796875 20.875 22 137.236328125 28 245 c 0
 41.0634765625 479.63671875 251 599 440 539 c 1
 441 474 l 25x9e
EndSplineSet
Refer: 29 3484 N 1 0 0 1 104 0 2
Fore
Refer: 29 3484 N 1 0 0 1 0 0 2
Layer: 2
Layer: 3
Colour: ff0000
EndChar

StartChar: si_Nnga
Encoding: 26 3487 32
GlifName: si_N_nga
Width: 843
VWidth: -24
Flags: MW
LayerCount: 4
Back
SplineSet
441 474 m 25x9e
 291 490 l 17
 156 448 95.365234375 383.963867188 90 238 c 0
 87.2509765625 163.2109375 130.008789062 56.189453125 178 18.7021484375 c 0
 137 -30.3115234375 l 0
 69.341796875 20.875 22 137.236328125 28 245 c 0
 41.0634765625 479.63671875 251 599 440 539 c 1
 441 474 l 25x9e
EndSplineSet
Refer: 29 3484 N 1 0 0 1 104 0 2
Fore
Refer: 29 3484 N 1 0 0 1 0 0 2
Layer: 2
Layer: 3
Colour: ff0000
EndChar

StartChar: si_Cha
Encoding: 28 3489 33
GlifName: si_C_ha
Width: 776
VWidth: -24
Flags: HMW
AnchorPoint: "si_MaU" 721.068 158.28 mark 0
AnchorPoint: "si_hal" 675.082 516 basechar 0
LayerCount: 4
Back
SplineSet
592 219 m 0xfe
 511.918945312 219.434570312 488.201116911 292.763424947 486.741210938 352 c 4
 481.936523438 546.953125 622.448767968 725.752779993 781 771 c 1
 808 688 l 17
 633.265625 660.305664062 549.120117188 507.9765625 537.295898438 414 c 0
 525.741210938 322.166992188 542.079101562 263.030273438 595 264 c 0
 639.142578125 264.80859375 660.87890625 295.380859375 661 367 c 0
 661.078125 413 628 494 549 494 c 0
 502 494 465 462 465 419 c 0
 465 367 490 352 490 352 c 1
 442 333 l 1
 434 358 427 384 427 426 c 0
 428 512 510 553 571 553 c 0
 654 553 725 477 725 397 c 0
 725 266.061523438 656.436523438 218.650390625 592 219 c 0xfe
119 209 m 0
 118 124 203 45 388 45 c 0
 563 45 663.451154009 127.008854445 665 216 c 0
 666.775330903 318.004157759 539 348 442 333 c 1
 462 373 l 1
 607 402 740 331 736 193 c 0xfd
 731 29 564 -59 383 -59 c 0
 189 -59 38 33 40 180 c 0
 42 339 208 394 316 384 c 1
 292 345 l 1
 299 365 312.3731417 386.33162663 308 415 c 0
 299 474 239 505 171 490 c 0
 204 511 l 1
 149 409 l 1
 108 411 81.6005478023 436.013695057 83 471 c 0
 85 521 142 557 202 557 c 0
 272 557 344 517 346 439 c 0
 347 402 341 370 332 333 c 1
 208 351 120 287 119 209 c 0
EndSplineSet
Fore
SplineSet
607.314453125 219 m 0
 527.263671875 219.434570312 508.672851562 292.763671875 511.35546875 352 c 4
 520.18359375 546.953125 673.198242188 725.752929688 834.913085938 771 c 1
 856.109375 688 l 17
 679.438476562 660.305664062 584.641601562 507.9765625 566.245117188 414 c 0
 548.26953125 322.166992188 560.471679688 263.030273438 613.4609375 264 c 0
 657.66015625 264.80859375 681.534179688 295.380859375 686.663085938 367 c 0
 689.958007812 413 662.543945312 494 583.543945312 494 c 0
 536.543945312 494 497.306640625 462 494.299804688 419 c 0
 490.663085938 367 514.614257812 352 514.614257812 352 c 1
 465.28515625 333 l 1
 459.034179688 358 453.8515625 384 456.7890625 426 c 0
 463.802734375 512 548.669921875 553 609.669921875 553 c 0
 692.669921875 553 758.35546875 477 752.760742188 397 c 0
 743.604492188 266.061523438 671.725585938 218.650390625 607.314453125 219 c 0
133.614257812 209 m 0
 126.670898438 124 206.146484375 45 391.146484375 45 c 0
 566.146484375 45 672.33203125 127.008789062 680.104492188 216 c 0
 689.012695312 318.00390625 563.334960938 348 465.28515625 333 c 1
 488.083007812 373 l 1
 635.110351562 402 763.145507812 331 749.49609375 193 c 0
 733.028320312 29 559.874023438 -59 378.874023438 -59 c 0
 184.874023438 -59 40.3076171875 33 52.5869140625 180 c 0
 65.705078125 339 235.55078125 394 342.8515625 384 c 1
 316.125 345 l 1
 324.5234375 365 339.387695312 386.33203125 337.01953125 415 c 0
 332.145507812 474 274.313476562 505 205.263671875 490 c 0
 239.732421875 511 l 1
 177.599609375 409 l 1
 136.740234375 411 112.08984375 436.013671875 115.935546875 471 c 0
 121.431640625 521 180.94921875 557 240.94921875 557 c 0
 310.94921875 557 380.15234375 517 376.698242188 439 c 0
 375.110351562 402 366.873046875 370 355.28515625 333 c 1
 232.543945312 351 140.069335938 287 133.614257812 209 c 0
EndSplineSet
Layer: 2
Layer: 3
EndChar

StartChar: si_Ja
Encoding: 29 3490 34
GlifName: si_J_a
Width: 776
VWidth: -24
Flags: HMW
AnchorPoint: "si_hal" 675.082 516 basechar 0
AnchorPoint: "si_MaU" 721.068 158.28 mark 0
LayerCount: 4
Back
SplineSet
637 458 m 9xf8
 688 479 l 25
 688 479 689.344726562 453.623046875 690 432 c 0
 691 399 681.14316462 345.14565047 612 346 c 0
 529.8046875 347.015625 511.294642069 411.631971212 510.409179688 474 c 0
 508.469726562 610.606445312 612.135742188 725.743164062 761 771 c 1
 784 684 l 21
 669.265625 682.305664062 545.011365245 606.846052658 555.295898438 461 c 0
 558.677497152 413.045191066 581.100585938 386.447265625 614 385 c 4
 662.357421875 382.873046875 648.147857261 447.357724458 637 458 c 9xf8
497 352 m 1
 442 333 l 1
 434 358 427 384 427 426 c 0
 428 512 510 553 571 553 c 0
 654 553 715 507 715 427 c 0
 715 349 618 309 618 309 c 1
 602 326 l 1
 636.051288152 347.130311028 650.883587155 377.105818001 651 417 c 0
 651.13422914 462.999749757 608 494 549 494 c 0
 502 494 469 452 469 409 c 0
 469 357 497 352 497 352 c 1
119 209 m 0
 118 124 203 45 388 45 c 0
 563 45 663.451154009 127.008854445 665 216 c 0
 666.775330903 318.004157759 539 348 442 333 c 1
 462 373 l 1
 607 402 740 331 736 193 c 0xf4
 731 29 564 -59 383 -59 c 0
 189 -59 38 33 40 180 c 0
 42 339 208 394 316 384 c 1
 287 345 l 1
 294 365 307.373046875 386.33203125 303 415 c 0
 294 474 239 505 171 490 c 0
 204 511 l 1
 149 409 l 1
 108 411 81.6005478023 436.013695057 83 471 c 0
 85 521 142 557 202 557 c 0
 272 557 344 517 346 439 c 0
 347 402 341 370 332 333 c 1
 208 351 120 287 119 209 c 0
EndSplineSet
Fore
SplineSet
669.026367188 458 m 9
 721.495117188 479 l 25
 721.495117188 479 721.065429688 453.623046875 720.208007812 432 c 0
 718.900390625 399 705.278320312 345.145507812 636.194335938 346 c 0
 554.0703125 347.015625 539.219726562 401.629882812 542.85546875 464 c 0
 552.56640625 630.606445312 644.982421875 755.743164062 777.7109375 811 c 1
 845.956054688 743 l 17
 729.704101562 721.305664062 596.747070312 596.845703125 587.532226562 461 c 0
 584.271484375 412.92578125 608.124023438 386.447265625 640.921875 385 c 0
 689.130859375 382.873046875 679.4296875 447.357421875 669.026367188 458 c 9
521.614257812 352 m 1
 465.28515625 333 l 1
 459.034179688 358 453.8515625 384 456.7890625 426 c 0
 463.802734375 512 548.669921875 553 609.669921875 553 c 0
 692.669921875 553 750.453125 507 744.858398438 427 c 0
 739.404296875 349 639.607421875 309 639.607421875 309 c 1
 624.795898438 326 l 1
 660.325195312 347.129882812 677.252929688 377.10546875 680.159179688 417 c 0
 683.510742188 463 642.543945312 494 583.543945312 494 c 0
 536.543945312 494 500.606445312 452 497.599609375 409 c 0
 493.963867188 357 521.614257812 352 521.614257812 352 c 1
133.614257812 209 m 0
 126.670898438 124 206.146484375 45 391.146484375 45 c 0
 566.146484375 45 672.33203125 127.008789062 680.104492188 216 c 0
 689.012695312 318.00390625 563.334960938 348 465.28515625 333 c 1
 488.083007812 373 l 1
 635.110351562 402 763.145507812 331 749.49609375 193 c 0
 733.028320312 29 559.874023438 -59 378.874023438 -59 c 0
 184.874023438 -59 40.3076171875 33 52.5869140625 180 c 0
 65.705078125 339 235.55078125 394 342.8515625 384 c 1
 311.125 345 l 1
 319.5234375 365 334.387695312 386.33203125 332.01953125 415 c 0
 327.145507812 474 272.21484375 475 203.166015625 460 c 0
 237.634765625 481 l 1
 175.501953125 379 l 1
 134.642578125 381 109.9921875 406.013671875 113.837890625 441 c 0
 119.333984375 491 178.8515625 527 238.8515625 527 c 0
 308.8515625 527 380.15234375 517 376.698242188 439 c 0
 375.110351562 402 366.873046875 370 355.28515625 333 c 1
 232.543945312 351 140.069335938 287 133.614257812 209 c 0
EndSplineSet
Layer: 2
Layer: 3
EndChar

StartChar: si_Ttha
Encoding: 35 3496 39
GlifName: si_T_tha
Width: 868
VWidth: -14
Flags: MW
LayerCount: 4
Back
SplineSet
447 305 m 1
 464.684570312 392.088867188 408.3515625 448.735351562 311 440 c 1
 261 358 l 1
 231 361 207 378 207 415 c 0
 207 482 279 507 332 507 c 0
 412 507 487.65625 457.983398438 492 373 c 0
 494.56640625 322.791015625 488 304.083007812 481 282 c 1
 447 305 l 1
479.442382812 293 m 1
 453.442382812 305 415.467773438 291.521484375 382.442382812 290 c 0
 286.631835938 285.69921875 206.629882812 248.908203125 205.442382812 161 c 0
 204.799804688 113.450195312 247.28515625 71.2998046875 325 71 c 0
 391.03125 70.7548828125 447.442382812 111.124023438 447.442382812 205 c 1
 454.446289062 205.030273438 479.297851562 205.259765625 486 205.6796875 c 1
 486 108.375 550.194335938 71.36328125 605 71 c 0
 685.8515625 70.4794921875 736.901367188 143.420898438 741.442382812 317 c 0
 747.26953125 552.506835938 598.926757812 660.170898438 454.442382812 663 c 0
 313.016601562 665.685546875 223.5625 574 220.442382812 574 c 1
 187.442382812 625 l 0
 237.416015625 663.076171875 326.6796875 712.578125 445.442382812 712 c 0
 665.841796875 710.90234375 816.264648438 549.208007812 817.442382812 312 c 0
 818.178710938 149.983398438 765.995117188 -37.759765625 609 -41 c 0
 539.114257812 -42.470703125 483.245117188 -12.5888671875 463.442382812 51 c 1
 440.416992188 -17 371.322265625 -41.2734375 313 -41 c 0
 221.05859375 -40.5693359375 138.290039062 9.8798828125 134.442382812 128 c 0
 129.907226562 267.220703125 269.413085938 328.831054688 380.442382812 332 c 0
 452.442382812 334 469.442382812 319 469.442382812 319 c 1
 479.442382812 293 l 1
EndSplineSet
Fore
SplineSet
468.328125 305 m 1
 492.102539062 392.088867188 439.73046875 448.735351562 341.767578125 440 c 1
 286.034179688 358 l 1
 256.243164062 361 233.432617188 378 236.01953125 415 c 0
 240.705078125 482 314.453125 507 367.453125 507 c 0
 447.453125 507 519.681640625 457.983398438 518.083007812 373 c 0
 517.137695312 322.791015625 509.263671875 304.083007812 500.719726562 282 c 1
 468.328125 305 l 1
499.930664062 293 m 1
 474.770507812 305 435.852539062 291.521484375 402.720703125 290 c 0
 306.610351562 285.69921875 224.03515625 248.908203125 216.700195312 161 c 0
 212.733398438 113.450195312 252.270507812 71.2998046875 329.96484375 71 c 0
 395.978515625 70.7548828125 455.212890625 111.124023438 461.77734375 205 c 1
 468.783203125 205.030273438 493.651367188 205.259765625 500.3828125 205.6796875 c 1
 493.578125 108.375 555.184570312 71.36328125 609.96484375 71 c 0
 690.780273438 70.4794921875 746.930664062 143.420898438 763.609375 317 c 0
 785.904296875 552.506835938 645.090820312 660.170898438 500.803710938 663 c 0
 359.565429688 665.685546875 263.700195312 574 260.580078125 574 c 1
 231.146484375 625 l 0
 283.783203125 663.076171875 376.5078125 712.578125 495.23046875 712 c 0
 715.552734375 710.90234375 854.668945312 549.208007812 839.259765625 312 c 0
 828.666992188 149.983398438 763.354492188 -37.759765625 606.1328125 -41 c 0
 536.14453125 -42.470703125 482.365234375 -12.5888671875 467.008789062 51 c 1
 439.228515625 -17 368.436523438 -41.2734375 310.1328125 -41 c 0
 218.221679688 -40.5693359375 138.98046875 9.8798828125 143.392578125 128 c 0
 148.592773438 267.220703125 292.407226562 328.831054688 403.658203125 332 c 0
 475.797851562 334 491.749023438 319 491.749023438 319 c 1
 499.930664062 293 l 1
EndSplineSet
Layer: 2
Layer: 3
EndChar

StartChar: si_Dda
Encoding: 36 3497 40
GlifName: si_D_da
Width: 854
VWidth: -14
Flags: MW
LayerCount: 4
Back
SplineSet
182.7890625 617.07421875 m 1
 151.092773438 677.413085938 l 1
 213.742146034 708.273373392 300.795694322 736.526279832 407.442382812 736 c 0
 666.066806821 734.807105655 824.011550953 569.886773006 825.442382812 312 c 0
 826.218000843 149.983398438 771.278805969 -37.6119217922 606 -41 c 0
 534.673885055 -42.470703125 477.653259367 -12.5888671875 457.442382812 51 c 1
 433.345633629 -17 361.035964911 -41.2595697902 300 -41 c 0
 202.909179688 -40.5693359375 113.434872152 9.87236579321 111.442382812 128 c 0
 109.146944111 264.088428637 241.437663144 341.288024422 348.442382812 342 c 0
 412.352495172 342.461538462 427.442382812 339 427.442382812 339 c 1
 437.442382812 313 l 1
 414.122795183 325 380.033947874 307.885306092 350.442382812 310 c 0
 259.503558661 316.317738614 183.01505552 245.279416021 182.442382812 167 c 4
 182.021394909 106.674237477 224.634868025 61.2450768942 303 61 c 0
 374.256037929 60.7548828125 436.442382812 101.124023438 436.442382812 195 c 1
 443.446289062 195.030273438 468.297851562 195.259765625 475 195.6796875 c 1
 475 98.375 540.157859231 59.2183612945 616 61 c 0
 701.006593559 63.07551542 763.506846543 162.636115313 759.442382812 338 c 0
 753.860609073 539.378806602 647.08391055 686.296056147 384.442382812 679 c 0
 294.152055003 676.27367156 224.183070698 642.521980831 182.7890625 617.07421875 c 1
32 348 m 1
 443 353 l 1
 438 303 l 1
 135 300 l 1
 31 285 l 1
 32 348 l 1
405 325 m 1
 422.684570312 412.088867188 366.3515625 468.735351562 269 460 c 1
 219 378 l 1
 189 381 165 398 165 435 c 0
 165 502 237 527 290 527 c 0
 370 527 445.656117918 477.983391686 450 393 c 0
 452.56640625 342.791015625 446 324.083007812 439 302 c 1
 405 325 l 1
EndSplineSet
Fore
SplineSet
225.939453125 617.07421875 m 1
 198.461914062 677.413085938 l 1
 263.26953125 708.2734375 352.298828125 736.526367188 458.908203125 736 c 0
 717.44921875 734.806640625 863.862304688 569.88671875 847.259765625 312 c 0
 836.706054688 149.983398438 768.6484375 -37.6123046875 603.1328125 -41 c 0
 531.704101562 -42.470703125 476.7734375 -12.5888671875 461.008789062 51 c 1
 432.157226562 -17 358.150390625 -41.259765625 297.1328125 -41 c 0
 200.072265625 -40.5693359375 114.125 9.8720703125 120.392578125 128 c 0
 127.614257812 264.088867188 265.302734375 341.288085938 372.357421875 342 c 0
 436.299804688 342.461914062 451.147460938 339 451.147460938 339 c 1
 459.329101562 313 l 1
 436.848632812 325 401.563476562 307.885742188 372.120117188 310 c 0
 281.623046875 316.317382812 200.166992188 245.279296875 194.120117188 167 c 0
 189.48046875 106.673828125 228.91796875 61.2451171875 307.265625 61 c 0
 378.504882812 60.7548828125 443.513671875 101.124023438 450.078125 195 c 1
 457.083984375 195.030273438 481.952148438 195.259765625 488.68359375 195.6796875 c 1
 481.87890625 98.375 544.298828125 59.21875 620.265625 61 c 0
 705.416992188 63.0751953125 774.879882812 162.635742188 783.078125 338 c 0
 791.578125 539.37890625 695.07421875 686.295898438 431.922851562 679 c 0
 341.44140625 676.2734375 269.112304688 642.522460938 225.939453125 617.07421875 c 1
56.3349609375 348 m 1
 467.684570312 353 l 1
 459.1875 303 l 1
 155.978515625 300 l 1
 50.9287109375 285 l 1
 56.3349609375 348 l 1
427.7265625 325 m 1
 451.500976562 412.088867188 399.12890625 468.735351562 301.166015625 460 c 1
 245.432617188 378 l 1
 215.642578125 381 192.831054688 398 195.41796875 435 c 0
 200.103515625 502 273.8515625 527 326.8515625 527 c 0
 406.8515625 527 479.080078125 477.983398438 477.481445312 393 c 0
 476.537109375 342.791015625 468.662109375 324.083007812 460.118164062 302 c 1
 427.7265625 325 l 1
EndSplineSet
Layer: 2
Layer: 3
EndChar

StartChar: si_Nna
Encoding: 38 3499 42
GlifName: si_N_na
Width: 1433
VWidth: 0
Flags: MW
LayerCount: 4
Back
SplineSet
727 288 m 17x0ded
 724 392 784.025390625 450.725585938 856 453 c 0x0ded
 903.05859375 454.487304688 976.844726562 431.032226562 982 314 c 9
 967 308 l 0
 969 444 1067.06640625 484.982421875 1121 484 c 0
 1222.99902344 482.142578125 1288.26855469 407.076171875 1293 232 c 0
 1296 121 1249.10839844 -70.416015625 1103 -70 c 0
 976.787109375 -69.640625 939.198242188 10.25 942 161 c 1
 984 163 l 1
 985.353515625 54.419921875 1021.96191406 8.7109375 1091 9 c 0
 1159.08105469 9.28515625 1193.40429688 115.823242188 1192 212 c 0
 1190 349 1162.10644531 424.998046875 1092 426 c 0x8beb
 1045.96484375 426.658203125 998 354 1001 258 c 0
 941 258 l 0
 936 362 891.969726562 398.633789062 849 398 c 0
 812.415039062 397.459960938 757 370 757 269 c 1
 727 288 l 17x0ded
533.83984375 236.740234375 m 256
 533.83984375 277.330078125 505.860351562 310.540039062 465.26953125 310.540039062 c 256
 424.6796875 310.540039062 397.469726562 277.330078125 397.469726562 236.740234375 c 256
 397.469726562 196.150390625 426.6796875 165.940429688 457.26953125 165.940429688 c 256
 441.26953125 130.26953125 l 256
 392.23046875 130.26953125 353.030273438 178.76953125 353.030273438 237.809570312 c 256
 353.030273438 306.849609375 414.23046875 365.75 483.26953125 365.75 c 256
 558.309570312 365.75 599.509765625 311.549804688 599.509765625 252.509765625 c 256
 599.509765625 180.440429688 547.5390625 118.66015625 438.990234375 118.66015625 c 256x59f1
 291.98046875 118.66015625 175.1796875 199.690429688 175.1796875 339.48046875 c 256
 175.1796875 508.790039062 314.41015625 599.049804688 466.1796875 599.049804688 c 256
 663.349609375 599.049804688 756.700195312 458.629882812 756.700195312 265.83984375 c 256
 756.700195312 146.530273438 678.240234375 -58 442.509765625 -58 c 256
 229.719726562 -58 222.080078125 103.91015625 94.91015625 103.91015625 c 256
 61.7001953125 103.91015625 43.08984375 84.919921875 27.259765625 70.7001953125 c 257
 1.4296875 100.219726562 l 257
 220.334960938 287.590820312 576.352539062 566.549804688 819.969726562 739.549804688 c 256
 854.5703125 692.969726562 l 256
 669.614257812 572.169921875 297.568359375 289.106445312 133.360351562 145.889648438 c 257
 207.16015625 145.889648438 258.700195312 39.330078125 445.66015625 39.330078125 c 256
 613.580078125 39.330078125 690.280273438 148.669921875 690.280273438 274.129882812 c 256x69f1
 690.280273438 441.059570312 605.780273438 538.299804688 465.719726562 538.299804688 c 256
 339.940429688 538.299804688 229.620117188 451.73046875 229.620117188 345.629882812 c 256
 229.620117188 183.500976562 397.005859375 169.310546875 463 168 c 256
 495.0546875 167.36328125 533.83984375 182.913085938 533.83984375 236.740234375 c 256
EndSplineSet
Fore
SplineSet
747.138671875 288 m 1
 751.6484375 398.154296875 831.873046875 464.26171875 908.65625 467 c 0
 953.272460938 468.591796875 1023.83789062 439.215820312 1019.95703125 314 c 1
 1010.53710938 308 l 0
 1022.02148438 444 1121.67773438 484.950195312 1174.84472656 484 c 0
 1282.046875 482.083984375 1348.61621094 404.6953125 1337.6640625 224 c 0
 1329.234375 83.9404296875 1258.42871094 -70.498046875 1090.10546875 -70 c 4
 979.915039062 -69.640625 903.815429688 1.25 918.328125 162 c 1
 985.328125 162 l 1
 979.237304688 53.419921875 1030.03125 8.7373046875 1106.62890625 9 c 0
 1192.42675781 9.2734375 1225.05664062 111.608398438 1230.26464844 204 c 0
 1238.16894531 344.201171875 1217.25195312 424.010742188 1150.57910156 423 c 0
 1107.02734375 422.33984375 1056.79882812 352.286132812 1053.04101562 258 c 0
 970.041015625 258 l 0
 973.192382812 362 933.224609375 392.459960938 904.411132812 392 c 0
 854.267578125 391.19921875 800.076171875 330 793.013671875 229 c 1
 747.138671875 288 l 1
529.415039062 222.740234375 m 256
 532.25390625 263.330078125 506.596679688 296.540039062 466.005859375 296.540039062 c 256
 425.416015625 296.540039062 395.883789062 263.330078125 393.044921875 222.740234375 c 256
 390.20703125 182.150390625 417.3046875 151.940429688 447.89453125 151.940429688 c 256
 438.700195312 106.26953125 l 256
 389.661132812 106.26953125 344.551757812 164.76953125 348.680664062 223.809570312 c 256
 353.508789062 292.849609375 418.827148438 351.75 487.866210938 351.75 c 256
 562.90625 351.75 600.31640625 297.549804688 596.188476562 238.509765625 c 256
 591.1484375 166.440429688 544.158203125 94.66015625 435.609375 94.66015625 c 256
 294.236328125 94.66015625 190.95703125 182.720703125 200.310546875 316.48046875 c 256
 211.450195312 475.790039062 354.811523438 575.049804688 511.390625 575.049804688 c 256
 687.602539062 575.049804688 807.38671875 438.84375 794.310546875 251.83984375 c 256
 785.967773438 132.530273438 672.1484375 -72 433.474609375 -72 c 256
 182.943359375 -72 221.465820312 89.91015625 121.197265625 89.91015625 c 256
 87.9873046875 89.91015625 68.048828125 70.919921875 51.224609375 56.7001953125 c 257
 27.458984375 86.2197265625 l 257
 259.465820312 273.590820312 599.186523438 612.549804688 854.900390625 785.549804688 c 256
 886.244140625 738.969726562 l 256
 692.840820312 618.169921875 336.805664062 275.106445312 162.583007812 131.889648438 c 257
 236.3828125 131.889648438 240.471679688 25.330078125 427.431640625 25.330078125 c 256
 594.3515625 25.330078125 700.697265625 134.669921875 709.470703125 260.129882812 c 256
 720.701171875 420.740234375 626.428710938 514.299804688 506.682617188 514.299804688 c 256
 372.962890625 514.299804688 262.912109375 433.1953125 255.879882812 332.629882812 c 256
 244.54296875 170.500976562 390.85546875 155.250976562 453.768554688 154 c 256
 485.779296875 153.36328125 526.350585938 178.913085938 529.415039062 222.740234375 c 256
EndSplineSet
Layer: 2
Layer: 3
EndChar

StartChar: si_Tha
Encoding: 41 3502 44
GlifName: si_T_ha
Width: 760
VWidth: -14
Flags: HMW
LayerCount: 4
Back
SplineSet
432.442382812 53 m 0
 606.903057197 53.3704637965 698 160.372262774 698 346 c 0
 698 548.711039482 539.286272538 641.901776851 405.504882812 668.212890625 c 0
 359.70476176 677.881634396 356.819335938 669.996182698 315 663 c 1
 316 731 l 1
 641.057046308 730.21331936 760 516.808403201 760 311 c 0
 760 91.0389972145 629.969726562 -56.3818359375 431.442382812 -59 c 0
 238.44921875 -60.677734375 128.573242188 38.0029296875 125.442382812 176 c 0
 122.153320312 320.966796875 244.427734375 394.418945312 355.442382812 398 c 0
 417.442382812 400 457.442382812 379 457.442382812 379 c 1
 443.442382812 334 l 1
 417.442382812 346 383.442382812 352 350.442382812 350 c 0
 280.369140625 345.8515625 207.5546875 302.787109375 206.442382812 218 c 0
 205.442382812 140.005859375 269.440429688 52.2841796875 432.442382812 53 c 0
336.81640625 671.124023438 m 1
 408 680 l 1
 406.842411748 652.9199701 442.176652403 567.054609442 482 549 c 0
 558.103687328 516.365234375 597.165650755 581.057617188 654 533 c 1
 671 500 l 1
 602.136145356 518.925781249 551.493716699 455.291092093 460 485.301757812 c 0
 369.477344724 516.791841306 390.422138226 651.103124612 336.81640625 671.124023438 c 1
EndSplineSet
Fore
SplineSet
305.84375 701.124023438 m 1
 377.6484375 710 l 1
 374.596679688 682.919921875 403.926757812 597.0546875 442.487304688 579 c 0
 520.734375 546.365234375 566.590820312 611.057617188 623.369140625 563 c 1
 638.061523438 530 l 1
 567.256835938 548.92578125 509.764648438 485.291015625 416.033203125 515.301757812 c 0
 327.712890625 546.791992188 358.049804688 681.103515625 305.84375 701.124023438 c 1
374.329101562 698.212890625 m 0
 329.205078125 707.881835938 325.767578125 699.99609375 283.458984375 693 c 1
 289.213867188 761 l 1
 636.17578125 760.157226562 747.166992188 531.508789062 731.747070312 311 c 0
 716.366210938 91.0390625 574.831054688 -50.3818359375 365.944335938 -58 c 0
 156.615234375 -66.8701171875 48.2900390625 27.541015625 53.0693359375 144 c 4
 59.9375 336.9140625 266.216796875 381.798828125 394.404296875 349 c 1
 372.627929688 295 l 1
 236.939453125 314.334960938 134.395507812 273.141601562 128.516601562 179 c 4
 123.14453125 94.453125 221.735351562 52.7236328125 357.776367188 54 c 0
 550.4296875 55.474609375 659.302734375 161.634765625 672.194335938 346 c 0
 687.689453125 567.584960938 519.8203125 669.452148438 374.329101562 698.212890625 c 0
EndSplineSet
Layer: 2
Layer: 3
EndChar

StartChar: si_Da
Encoding: 42 3503 45
GlifName: si_D_a
Width: 569
VWidth: -17
Flags: HMW
AnchorPoint: "si_hal" 485.231 493 basechar 0
LayerCount: 4
Back
SplineSet
522.090820312 -389.28125 m 1
 378.530373101 -403.743447527 319.747727744 -298.663764651 316 -231 c 4
 313.306446925 -146.36113579 369.129126603 -34.4345549738 509 16 c 1
 521 18.3333333333 529 -0.333333333333 493 2 c 1
 253.507047455 -90.266304348 38.8990241606 -4.33743479325 41 165 c 0
 42.920134029 319.761689701 205.887780243 393.121276769 397 394 c 0
 456.002656031 394.271290892 499 385 499 385 c 1
 499 387.5 488.35483871 375.5 488 378 c 1
 491.6 475 373 506 318 498 c 1
 262 409 l 1
 216 412 195.556400279 452.11432106 205 488 c 0
 220 545 273 571 336 571 c 0
 408 571 505.999756248 527.999959374 520 444 c 0
 529.095703125 389.426757812 513 345 513 345 c 1
 513 343 l 1
 273.457943925 364.492537313 162.53640311 306.422797877 152 199 c 0
 138.348469327 59.8172442854 303.229691877 -31.3035254506 549 57 c 1
 565 23 l 1
 471.777773007 -18.2758620689 425.560782656 -95.5255334909 414 -148 c 0
 398.929426609 -208.849269955 393.438884232 -324.783592054 545.358398438 -359.80859375 c 1
 522.090820312 -389.28125 l 1
EndSplineSet
Fore
SplineSet
92.1328125 219 m 0
 63.5380859375 89.53515625 266.708007812 61.9150390625 512.924804688 107 c 1
 523.522460938 43 l 1
 386.40234375 -8.6552734375 341.676757812 -73.375 333.247070312 -131 c 0
 316.862304688 -243 412.961914062 -290.381835938 495.828125 -294 c 0
 484.197265625 -328 l 0
 327.079101562 -346.34765625 245.596679688 -247.131835938 253.299804688 -175 c 0
 261.913085938 -96.3876953125 326.798828125 -11.16796875 466.663085938 36 c 1
 473.94921875 38.3330078125 439.657226562 19.6669921875 448.944335938 22 c 1
 181.595703125 -60.2666015625 15.2333984375 25.6630859375 36.9580078125 185 c 0
 58.05859375 339.759765625 244.926757812 406.569335938 391.076171875 404 c 0
 449.973632812 402.96484375 464.444335938 397 492.830078125 392 c 1
 493.444335938 397 479.8515625 373 480.111328125 378 c 1
 506.848632812 485 410.827148438 506 324.845703125 498 c 1
 257.916992188 419 l 1
 212.286132812 422 188.767578125 462.114257812 202.6171875 498 c 4
 224.616210938 555 278.80859375 571 341.80859375 571 c 0
 464.826171875 571 528.954101562 476.4609375 523.813476562 343 c 1
 316.91015625 384.4921875 115.858398438 326.422851562 92.1328125 219 c 0
EndSplineSet
Layer: 2
Layer: 3
SplineSet
452.090820312 -399.28125 m 5
 369.330525215 -372.770522768 326.329310545 -299.503616083 324 -225 c 4
 321.418096793 -142.417140589 374.926883013 -33.2094240837 509 16 c 5
 521 18.3333333333 529 -0.333333333333 493 2 c 5
 253.507047455 -90.266304348 38.8990241606 -4.33743479325 41 165 c 4
 42.920134029 319.761689701 205.887780243 393.121276769 397 394 c 4
 456.002656031 394.271290892 499 385 499 385 c 5
 499 387.5 488.35483871 375.5 488 378 c 5
 491.6 475 373 506 318 498 c 5
 262 409 l 5
 216 412 195.556400279 452.11432106 205 488 c 4
 220 545 273 571 336 571 c 4
 408 571 505.999756248 527.999959374 520 444 c 4
 529.095703125 389.426757812 513 345 513 345 c 5
 513 343 l 5
 273.457943925 364.492537313 162.53640311 306.422797877 152 199 c 4
 138.348469327 59.8172442854 303.229691877 -31.3035254506 549 57 c 5
 565 23 l 5
 473.01250449 -15.8620689655 427.970411155 -88.3840244009 416 -138 c 4
 397.411837241 -215.045793827 412.192992686 -321.025521486 467.358398438 -369.80859375 c 5
 452.090820312 -399.28125 l 5
EndSplineSet
EndChar

StartChar: si_Dha
Encoding: 43 3504 46
GlifName: si_D_ha
Width: 756
VWidth: -14
Flags: MW
LayerCount: 4
Back
SplineSet
386 284 m 5
 250.503597122 301.379310345 123.466247874 252.459206919 128 158 c 4
 131.068944452 87.7909007353 219.271735546 45.1571471554 365 46 c 4
 558.999747213 47.1220420377 667 174.791108795 667 339 c 4
 667 547.71874417 557.941173041 679.712552472 342 677 c 4
 219.063691057 675.455731327 132.310705627 606 129 606 c 5
 97 660 l 5
 139.236417611 688.125 219.378877917 735.634192064 358 735 c 4
 565.816845959 734.018099283 730 582.319357855 730 331 c 4
 730 111.353515625 598.414766771 -48.5793000132 375 -58 c 4
 192.556677605 -65.2548684968 49.349757601 8.03433236137 46 137 c 4
 42.243902439 299.324324324 239.43902439 339.378378378 354 332 c 5
 354 402 304 438 212 438 c 5
 186 357 l 5
 135 350 100.76031191 378.857746694 109 425 c 4
 119 481 177 500 224 500 c 4
 300 500 389.99945787 462.999979147 394 359 c 4
 395.383789062 323.026367188 386 284 386 284 c 5
EndSplineSet
Fore
SplineSet
375.716796875 324 m 1
 351.189453125 341 307.884765625 350.708984375 274.680664062 349 c 0
 194.098632812 344.8515625 108.854492188 281.791015625 97.6669921875 197 c 0
 88.4111328125 126.852539062 132.692382812 80.3115234375 200.369140625 80 c 0
 260.977539062 79.720703125 312.735351562 129.827148438 324.421875 225 c 1
 331.428710938 225.030273438 351.30859375 230.259765625 358.0625 230.6796875 c 1
 346.115234375 133.375 387.012695312 80.2177734375 440.89453125 80 c 0
 550.00390625 79.5595703125 638.61328125 244.752929688 648.172851562 378 c 0
 659.308319274 533.212880972 560.9453125 626.1953125 424.288085938 629 c 0
 288.625 631.784179688 189.728515625 534 186.728515625 534 c 1
 160.991210938 555 l 0
 214.670898438 623.076171875 318.284850701 717.794055894 454.672851562 717 c 0
 615.53125 716.063476562 706.50390625 589.208007812 688.559570312 352 c 0
 676.25390625 189.327148438 599.235351562 -12.1455078125 426.774414062 -15 c 4
 337.930664062 -16.470703125 297.642578125 22.4111328125 306.512695312 101 c 1
 302.912109375 92.7822265625 339.426757812 85.2041015625 336 78.2294921875 c 1
 311.072265625 27.4921875 269.306640625 -15.302734375 189.774414062 -15 c 4
 112.896484375 -14.70703125 36.9921875 17.8671875 51.509765625 165 c 0
 66.7998046875 319.956054688 187.166992188 424.916015625 298.57421875 428 c 0
 370.8203125 430 395.241210938 409 395.241210938 409 c 1
 375.716796875 324 l 1
EndSplineSet
Layer: 2
Layer: 3
EndChar

StartChar: si_Pha
Encoding: 47 3509 48
GlifName: si_P_ha
Width: 760
VWidth: -14
Flags: HMW
LayerCount: 4
Back
SplineSet
336.81640625 671.124023438 m 1
 408 680 l 1
 406.842411748 652.9199701 442.176652403 567.054609442 482 549 c 0
 558.103687328 516.365234375 597.165650755 581.057617188 654 533 c 1
 671 500 l 1
 602.136145356 518.925781249 551.493716699 455.291092093 460 485.301757812 c 0
 369.477344724 516.791841306 390.422138226 651.103124612 336.81640625 671.124023438 c 1
405.504882812 668.212890625 m 0
 359.70476176 677.881634396 356.819335938 669.996182698 315 663 c 1
 316 731 l 1
 641.057046308 730.21331936 760 516.808403201 760 311 c 0
 760 91.0389972145 639.969813788 -50.3820154111 450 -58 c 0
 241.291028787 -65.8599509371 126.364332992 17.8013347216 123 121 c 0
 118.614471687 269.0700682 271.970703125 309.060546875 385 303 c 5
 378 375.333007812 330 419 262 408 c 5
 236 327 l 1
 189.63671875 320 158.509765625 348.857421875 166 395 c 0
 175.391601562 451 229.861328125 470 274 470 c 0
 340 470 419.999023438 443 424 339 c 0
 425.383789062 303.026367188 416 252 416 252 c 1
 288.25 268.000976562 195.34375 233.91015625 196 156 c 4
 196.540039062 85.6572265625 290.048202864 50.9382715874 434 52 c 0
 606.9035995 53.3002457237 698 160.372262774 698 346 c 0
 698 548.711039482 539.286272538 641.901776851 405.504882812 668.212890625 c 0
EndSplineSet
Fore
SplineSet
305.84375 701.124023438 m 1
 377.6484375 710 l 1
 374.596679688 682.919921875 403.926757812 597.0546875 442.487304688 579 c 0
 520.734375 546.365234375 566.590820312 611.057617188 623.369140625 563 c 1
 638.061523438 530 l 1
 567.256835938 548.92578125 509.764648438 485.291015625 416.033203125 515.301757812 c 0
 327.712890625 546.791992188 358.049804688 681.103515625 305.84375 701.124023438 c 1
374.329101562 698.212890625 m 0
 329.205078125 707.881835938 325.767578125 699.99609375 283.458984375 693 c 1
 289.213867188 761 l 1
 636.17578125 760.157226562 747.166992188 531.508789062 731.747070312 311 c 0
 716.366210938 91.0390625 574.831054688 -50.3818359375 365.944335938 -58 c 0
 156.685546875 -65.8603515625 47.609375 17.8017578125 51.4609375 121 c 0
 57.5634765625 277.206054688 229.087890625 319.393554688 352.88671875 313 c 1
 350.034179688 385.333007812 298.84375 429 221.229492188 418 c 1
 189.565429688 337 l 1
 142.712890625 330 113.603515625 358.857421875 124.3203125 405 c 0
 137.627929688 461 193.42578125 480 237.564453125 480 c 0
 310.604492188 480 397.249023438 453 394.404296875 349 c 0
 393.359375 314.266601562 380.530273438 265 380.530273438 265 c 1
 238.953125 283.16796875 132.360351562 244.4609375 126.908203125 156 c 0
 122.624023438 87.009765625 221.750976562 52.958984375 357.776367188 54 c 0
 550.4296875 55.474609375 659.302734375 161.634765625 672.194335938 346 c 0
 687.689453125 567.584960938 519.8203125 669.452148438 374.329101562 698.212890625 c 0
EndSplineSet
Layer: 2
Layer: 3
EndChar

StartChar: si_Ba
Encoding: 48 3510 49
GlifName: si_B_a
Width: 736
VWidth: -24
Flags: HMW
LayerCount: 4
Back
SplineSet
456 284 m 5
 320.503597122 301.379310345 193.466247874 252.459206919 198 158 c 4
 201.198435779 82.6847844251 293.122601859 39.0959339489 445 40 c 4
 635.145695364 41.1494378811 741 165.786013888 741 334 c 4
 741 543.329032896 630.598910555 679.720483912 412 677 c 4
 289.063691057 675.455731327 202.310705627 606 199 606 c 5
 167 660 l 5
 209.236417611 688.125 289.378877917 735.634192064 428 735 c 4
 638.0514357 734.015644531 804 585.94765625 804 334 c 4
 804 114.912412532 674.638742544 -48.60327126 455 -58 c 4
 267.011287867 -65.2548684968 119.451573941 8.03433236137 116 137 c 4
 112.243902439 299.324324324 309.43902439 339.378378378 424 332 c 5
 424 402 374 438 282 438 c 5
 256 357 l 5
 205 350 170.76031191 378.857746694 179 425 c 4
 189 481 247 500 294 500 c 4
 370 500 459.99945787 462.999979147 464 359 c 4
 465.383789062 323.026367188 456 284 456 284 c 5
EndSplineSet
Fore
SplineSet
241.736328125 368.590820312 m 0
 158.364257812 363.54296875 83.9921875 274.524414062 74 206 c 0
 58.291015625 98.2685546875 104.228515625 66.8779296875 176 66.7001953125 c 0
 211.143554688 66.61328125 229.22265625 101.331054688 229.409179688 127.745117188 c 0
 229.599609375 154.778320312 215.728515625 181.390625 173.8828125 180.939453125 c 0
 154.487304688 180.73046875 123.7734375 160.455078125 124.977539062 125.763671875 c 0
 125.986328125 96.703125 145.446289062 58.0068359375 193.888671875 51.90625 c 0
 186.706054688 40.6171875 l 0
 128.858398438 42.83203125 90.576171875 86.626953125 89.3896484375 127.98828125 c 0
 87.8505859375 181.6171875 143.317382812 237.19921875 208.249023438 227.60546875 c 0
 257.3984375 220.34375 277.541992188 165.495117188 269.776367188 98.1171875 c 0
 263.776367188 46.0576171875 198.703125 -25.3759765625 122 -12.787109375 c 0
 36.6298828125 1.2236328125 21.16796875 92.8154296875 38.5234375 197.9375 c 0
 63.107421875 346.845703125 188.557617188 457.801757812 327.396484375 444.801757812 c 0
 422.767578125 435.872070312 489.081054688 362.130859375 461.779296875 224 c 1
 457.680664062 221.66796875 453.576171875 212.340820312 449.501953125 210 c 1
 397.125 202.859375 362.681640625 168.138671875 358.287109375 144 c 0
 349.655725803 96.5887690805 368.859375 78.134765625 410 76.73046875 c 0
 540.805664062 72.265625 654.413085938 286.048828125 644 437 c 0
 633.899414062 583.426757812 487.846679688 646.4609375 364 631 c 0
 279.264324895 620.421654419 221.580078125 586.758789062 187 550 c 1
 153 570 l 0
 153 570 252.25390625 711.100585938 409 720 c 0
 633.9453125 732.771484375 698.856445312 579.036132812 690 342 c 0
 682.198242188 133.185546875 564.6796875 -11.9990234375 413 -12 c 0
 300.58984375 -12.0009765625 282.529296875 68.7392578125 302.739257812 132 c 0
 321.736328125 191.46484375 363.963867188 227.8515625 422 251 c 1
 422.30078125 254.1328125 419.762695312 223.118164062 420.032226562 226 c 1
 386.415039062 336.953125 332.203125 374.068359375 241.736328125 368.590820312 c 0
EndSplineSet
Layer: 2
Layer: 3
EndChar

StartChar: si_Bha
Encoding: 49 3511 50
GlifName: si_B_ha
Width: 1017
VWidth: -24
Flags: HMW
LayerCount: 4
Back
SplineSet
23 373 m 5
 402 372 l 5
 397 331 l 5
 106 326 l 5
 22 308 l 5
 23 373 l 5
EndSplineSet
Refer: 57 3524 S 1 0 0 1 58 0 2
Fore
SplineSet
50.62109375 395 m 1
 429.55078125 394 l 1
 421.194335938 346 l 1
 129.844726562 341 l 1
 44.5859375 323 l 1
 50.62109375 395 l 1
EndSplineSet
Refer: 57 3524 N 1 0 0.0699268 1 58 0 2
Layer: 2
Layer: 3
EndChar

StartChar: si_Ma
Encoding: 50 3512 51
GlifName: si_M_a
Width: 705
VWidth: -14
Flags: HMW
LayerCount: 4
Back
SplineSet
213 318 m 0
 213 362 219.938476562 402.573242188 179 402 c 0
 126.487304688 401.264648438 105.385742188 324.01171875 110 252 c 0
 118.346679688 121.739257812 218.724449501 39.8556050954 398 41 c 0
 585.730293642 42.1983652589 689.689728215 184.001587629 695 344 c 0
 700.959081322 526.007763814 611.8203125 667.286132812 393 670 c 0
 250.181640625 671.747070312 154.237304688 598 151 598 c 5
 119 652 l 0
 119 652 237.187597042 732.576115226 390 732 c 0
 654.616210938 731.002375297 772.667964444 518.514037733 762 312 c 0
 752.000976562 118.435546875 632.8671875 -61 384 -61 c 0
 131.762695313 -61 39.4418335204 92.9474255486 37 234 c 0
 34.66015625 369.161132812 101.945737818 453.891179106 183 456 c 0
 233.296875 457.30859375 254.819335938 420.991210938 254.819335938 350 c 0
 254.819335938 256.060546875 314.53155278 225.708841672 380 226 c 0
 467.925587508 226.391032141 502.492632161 277.086178235 504 329 c 0
 505.604492188 384.258789062 468.827785214 448.463549438 398 449 c 0
 359.834960938 449.2890625 338.462308531 420.01252026 338 396 c 0
 337.615507813 376.029296875 349.323731281 349.234790415 389 349.561523438 c 0
 435.960533405 349.948242188 447.662715517 408.357421875 417 448.561523438 c 1
 459 447.561523438 l 1
 496.889648438 395.220876924 466.979278314 290.670424559 380 290 c 0
 341.118164062 289.700304047 291.747299607 314.624928524 291 380.856445312 c 0
 290.388671875 435.037109375 332.8359375 483 407 483 c 0
 484.396484375 483 549.58798614 419.054366018 550 334 c 0
 550.345307984 262.716107537 504.950195312 161.290039062 383 160 c 0
 284.40234375 158.95703125 213 208.918866902 213 318 c 0
EndSplineSet
Fore
SplineSet
180.072265625 268 m 0
 178.541684574 309.90700611 173.11980665 338.2594084 146 337 c 0
 110.061321025 335.331054688 100.493504361 283.194535442 98.8984375 237 c 0
 93.0030157372 66.2634144412 185.577442713 39.067165906 280.076171875 38 c 0
 483.317374648 35.7048148243 615.409471277 197.60649646 645 366 c 0
 673.661743256 529.107979911 565.000791949 657.44813979 420 655 c 0
 290.546041563 652.814347202 211.07934203 573 207.556640625 573 c 1
 177.46875 607 l 0
 177.46875 607 299.650173405 729.029466653 465.39453125 730 c 0
 643.876311939 731.045118653 721.120031609 565.60591766 683.158203125 332 c 0
 651.028658907 134.284242861 517.660393934 -39.0335347086 331.60546875 -49 c 0
 86.6221145549 -62.1231038047 33.3571880242 87.4279890857 54.44140625 234 c 0
 67.5674752113 325.249023438 117.80680566 421.447678219 186.927734375 426 c 0
 206.796983445 427.30859375 212.403994381 390.337093415 215.732421875 320 c 0
 218.76100734 259.546386719 271.095042235 176.554203956 396.161132812 239 c 0
 440.744789722 266.079928448 455.585373985 316.92468196 463.245117188 369 c 0
 470.891601562 414.241210938 459.712036731 475.457159775 375.611328125 476 c 0
 336.12305124 476.254882812 321.066679186 449.98723923 317.471679688 426 c 0
 314.478643805 406.029296875 312.56343773 379.234201115 353.770507812 379.561523438 c 0
 402.455078125 379.948242188 421.37890625 445.357421875 394.557617188 485.561523438 c 1
 435.20703125 474.561523438 l 1
 456.168945312 429.854492188 418.029283958 340.514982294 344.158203125 342 c 0
 304.081054688 342.805664062 275.74464748 361.785003142 281.840820312 420.856445312 c 0
 285.368164062 455.036132812 318.506621474 508.020902821 404.786132812 520 c 0
 487.147170658 531.435054057 556.348290911 470.386033229 538.859375 374 c 0
 528.404590254 311.895889202 475.757785957 231.491376832 410.389648438 201 c 0
 305.547949555 157.597675855 183.523017717 173.51909097 180.072265625 268 c 0
EndSplineSet
Layer: 2
SplineSet
182 418 m 5
 140.951171875 386.802734375 116.327148438 320.063476562 119 258 c 4
 124.50390625 130.204101562 243.995117188 60.369140625 377 60 c 4
 571.99609375 59.458984375 655.291992188 192.06640625 661 317 c 4
 670 514 564.998046875 663.875976562 368 667 c 4
 246.999023438 668.918945312 153 595 150 595 c 5
 132 621 l 4
 132 621 236.998046875 706.665039062 384 706 c 4
 605 705 743 549 733 312 c 4
 724.189453125 103.185546875 601 -59 380 -59 c 4
 157 -59 57.4697265625 63.16796875 55 209 c 4
 52.66015625 347.161132812 113.9375 412.219726562 167 451 c 4
 182 450.357421875 l 5
 197.462890625 436 l 5
 194.671875 339.133789062 241.944335938 230.7109375 375 230 c 4
 470.00390625 229.4921875 494 298 494 343 c 4
 494 396.241210938 449.006835938 441.466796875 386 442 c 4
 343.19921875 442.362304688 322.262695312 421.0390625 322 396 c 4
 321.715820312 368.926757812 338 353 367 351.561523438 c 4
 425.037109375 348.682617188 412.008789062 415.986328125 413 445.561523438 c 5
 413.514648438 440.146484375 451.958984375 443.584960938 440 435.561523438 c 5
 456.25 412.91796875 454.431640625 308.831054688 363 310 c 4
 307.922851562 310.704101562 281.73828125 346.096679688 281 385.856445312 c 4
 279.995117188 440.03125 325 481 388 481 c 4
 458 481 539 438 537 334 c 4
 536.049804688 284.586914062 501 184 368 184 c 4
 237.788085938 184 153.149414062 277.543945312 161 419 c 5
 182 418 l 5
EndSplineSet
Layer: 3
EndChar

StartChar: si_Mba
Encoding: 51 3513 52
GlifName: si_M_ba
Width: 858
VWidth: -14
Flags: HMW
LayerCount: 4
Back
SplineSet
597 -43 m 0xff60
 761.851485149 -41 817.880749716 187.713671898 819 312 c 0
 821.054551587 534.413860369 692.178998331 742.052103559 421 743 c 0
 250.756276646 743.595080815 128 657 128 657 c 0
 163 600 l 1
 166.27734375 600 258.401202386 680.519648197 399 682 c 0
 673.923632715 684.894645633 753.829143728 523.159785502 748 304 c 0
 745.170304818 197.611237256 692.625991829 64.2781202206 599 56 c 0
 536.401869691 50.465267196 492.691975121 77.6491730976 489 124.466796875 c 1
 501.262695312 146.536790725 531 164.547593046 531 206 c 0
 531 242 491.504254388 271.467014931 418 273 c 0
 352.211358432 274.372070312 312.843299123 239.598097303 312 203 c 0xff60
 311.123046875 164.941362289 335.201171875 139.362866282 356 125.828125 c 1
 340.003334389 74.0218143353 303.868193132 53.3975098481 241 54 c 0
 155.410986713 54.8202325381 109.31206938 135.806800311 109 224 c 0
 108.632970801 327.725266016 149.483604132 407.180774664 217 408 c 0
 254.053710938 408.716796875 261 372 261 328 c 0
 261 285.50031031 304.366310436 225.834038474 428 226 c 0
 534.698830726 226.143228765 583.729416607 293.74091511 587 354 c 0
 591.743667368 441.400020205 525.270718149 503 448 503 c 0
 362.710280374 503 330.349131127 438.459651638 331 402.856445312 c 0
 332.15625 339.608364103 375.82141263 312.761478916 416 312 c 0
 500.056640625 310.406928571 518.451171875 406.666173549 492 458.561523438 c 1
 450 463.561523438 l 1
 481.7578125 423.357421875 465.637222213 363.992928269 419 363.561523438 c 0
 384.101856843 363.238707736 370.623148272 390.029294961 371 410 c 0xfee0
 371.453125 434.012695312 393.834825975 463.27065728 432 463 c 0
 514.059258643 462.418057528 538.923665324 395.857075413 536 349 c 0
 534.071958188 318.099609375 507.94894985 271.489735219 418 273 c 0
 349.775390625 274.145507812 307.819335938 297.576171875 307.819335938 350 c 0
 307.819335938 420.991210938 269.293034769 457.533885084 222 456 c 0
 125.485582854 453.467874461 37.7833728699 346.631898067 41 194 c 4
 42.8230803571 99.0185546873 84.5977425573 -40.3914984207 235 -42 c 0
 336.57584059 -43.2231276495 391.121398891 19.1801242236 402 149 c 1
 402.505859375 149.758789062 367.355038303 167.224177936 368 196 c 0
 368.675659226 226.145433074 424.233364173 225.386744585 427 225 c 1
 429.521875 224.618200231 474.328082939 218.845180075 475 196 c 0
 476 162 442.427734375 148.142578125 443 149 c 1
 438 15.7407407407 510.234365621 -44.0526521408 597 -43 c 0xff60
EndSplineSet
Fore
SplineSet
593.993164062 -43 m 0
 758.984375 -41 831.006835938 187.713867188 840.817382812 312 c 0
 858.424804688 534.4140625 744.068359375 742.051757812 472.956054688 743 c 0
 302.75390625 743.594726562 173.942382812 657 173.942382812 657 c 0
 204.956054688 600 l 1
 208.233398438 600 305.987304688 680.51953125 446.690429688 682 c 0
 721.81640625 684.89453125 790.412109375 523.16015625 769.2578125 304 c 0
 758.98828125 197.611328125 697.12109375 64.2783203125 602.916015625 56 c 0
 539.930664062 50.46484375 498.122070312 77.6494140625 497.703125 124.466796875 c 1
 511.509765625 146.537109375 542.505859375 164.547851562 545.405273438 206 c 0
 547.921875 242 510.487304688 271.466796875 437.08984375 273 c 0
 371.397460938 274.372070312 329.59765625 239.59765625 326.1953125 203 c 0
 322.657226562 164.94140625 344.946289062 139.36328125 364.798828125 125.828125 c 1
 345.1796875 74.021484375 307.602539062 53.3974609375 244.776367188 54 c 0
 159.244140625 54.8203125 118.80859375 135.806640625 124.6640625 224 c 0
 131.549804688 327.725585938 177.956054688 407.180664062 245.530273438 408 c 0
 282.633789062 408.716796875 287.012695312 372 283.935546875 328 c 0
 280.963867188 285.5 320.158203125 225.833984375 443.803710938 226 c 0
 550.512695312 226.143554688 604.26953125 293.741210938 611.75390625 354 c 0
 622.609375 441.400390625 560.444335938 503 483.172851562 503 c 0
 397.883789062 503 361.008789062 438.459960938 359.170898438 402.856445312 c 0
 355.904296875 339.608398438 397.69140625 312.76171875 437.817382812 312 c 0
 521.762695312 310.407226562 546.887695312 406.666015625 524.065429688 458.561523438 c 1
 482.415039062 463.561523438 l 1
 511.362304688 423.357421875 491.08984375 363.993164062 444.422851562 363.561523438 c 0
 409.501953125 363.23828125 397.896484375 390.029296875 399.669921875 410 c 0
 401.802734375 434.012695312 426.229492188 463.270507812 464.375976562 463 c 0
 546.39453125 462.41796875 566.604492188 395.857421875 560.404296875 349 c 0
 556.315429688 318.099609375 526.93359375 271.489257812 437.08984375 273 c 0
 368.9453125 274.145507812 328.627929688 297.576171875 332.293945312 350 c 0
 337.2578125 420.991210938 301.287109375 457.534179688 253.88671875 456 c 0
 157.1953125 453.467773438 62.0224609375 346.631835938 54.5654296875 194 c 4
 49.7470703125 99.0185546875 81.7734375 -40.3916015625 232.063476562 -42 c 0
 333.553710938 -43.22265625 392.462890625 19.1796875 412.418945312 149 c 1
 412.977539062 149.758789062 379.048828125 167.224609375 381.706054688 196 c 0
 384.489257812 226.145507812 439.994140625 225.38671875 442.733398438 225 c 1
 445.228515625 224.618164062 489.630859375 218.844726562 488.706054688 196 c 0
 487.328125 162 452.787109375 148.142578125 453.418945312 149 c 1
 439.100585938 15.7412109375 507.154296875 -44.052734375 593.993164062 -43 c 0
EndSplineSet
Layer: 2
Layer: 3
EndChar

StartChar: si_Ya
Encoding: 52 3514 53
GlifName: si_Y_a
Width: 832
VWidth: -24
Flags: MW
AnchorPoint: "si_hal" 706 519 basechar 0
LayerCount: 4
Back
SplineSet
508 366 m 1xfe
 640.233215548 410.743615935 805 353.656565656 805 178 c 0
 805 41.8921161826 724.308823529 -53 596 -53 c 0
 487.377455057 -53 422.902173913 13 421 108 c 1
 419 105 454 111 452 108 c 1
 445.076086957 27 389.113488571 -51.3507331951 270 -52 c 0
 123.016123717 -52.8380194357 41.7113058051 49.0855640594 41 178 c 0
 40.2575901402 339.895725417 152.061037251 459.769355609 284 464 c 0
 310.005857815 464.833882079 337 463 361 453 c 1
 352 388 l 5
 319.175 402.4 293.994771708 404.035659856 251 401 c 4
 182.515239515 396.028018282 101.442485609 344.875521173 103 219 c 0
 104.135328736 124.960258392 168.777944711 62.505312965 266 61 c 0
 345.499359094 59.7965625986 413.727272727 93 416 197 c 1
 452 197 l 1
 452 100 522.933333333 56 604 56 c 0
 708.221104661 56 743.88976378 116.85106383 745 188 c 0xfd
 746.196750108 267.42904972 685.773662551 384.211917563 488 321 c 1
 483 349.743589744 480.703199991 349.853360165 479 380 c 0
 469.584795322 484.619047619 553.388392041 548.891720403 640 549 c 0
 711.204960507 549.0868898 777 514 777 434 c 0
 777 338 684 312 684 312 c 1
 658 329 l 1
 658 329 709.208984375 342.997070312 710 402 c 0
 710.643554688 449.994140625 659.1015625 479.125 615 479 c 0
 564.106105639 478.870117188 518.543478261 453 513 401 c 0
 509 355 526 339 526 339 c 1
 508 366 l 1xfe
EndSplineSet
Fore
SplineSet
532 379 m 1
 496 336 l 1
 486 479 571 570 664 570 c 0
 730 570 774.205078125 531.002929688 775 473 c 0
 776 400 710 369 683 353 c 1
 649 380 l 1
 707 399 726 419.984375 726 452 c 0
 726 472 696.341796875 503.766601562 645 503 c 0
 578 502 530 451 532 379 c 1
522 377 m 1
 612.452148438 432.8671875 785 395.21875 765 209 c 0
 748.995117188 73.759765625 665.852539062 -22 541 -22 c 0
 405.021484375 -22 378.782226562 84 397 149 c 1
 395 146 430 162 428 159 c 1
 420.239257812 78 332.188476562 -20.009765625 214 -21 c 0
 68.06640625 -22.22265625 36.4279071432 98.1379745908 65 227 c 0
 89.5978369127 337.93786868 206.024414062 451.626953125 338 455 c 0
 364.002929688 455.915039062 391 454 415 444 c 1
 406 368 l 1
 373.5 376 348.5 381 306 378 c 0
 234.080078125 374.338867188 131.043060303 329.84375 114 240 c 0
 98.0857824901 153.620117188 134.827943798 81.6940985603 220 72 c 0
 304.641440713 62.3662949429 379.333007812 125.412109375 410 234 c 1
 448 238 l 1
 438 134.120117188 458.319335938 77.140625 538 70 c 0
 649.59375 60 723.763671875 122.780273438 725 208 c 0
 726.247624704 293.998396331 635.0859375 358.774414062 495 336 c 1
 522 377 l 1
EndSplineSet
Layer: 2
Layer: 3
EndChar

StartChar: si_La
Encoding: 54 3517 54
GlifName: si_L_a
Width: 716
VWidth: -5
Flags: MW
AnchorPoint: "si_hal" 476.553 526 basechar 0
LayerCount: 4
Back
SplineSet
355 341 m 1
 443.666666667 336.596679688 532.333333333 339.290039062 621 341 c 1
 621 294 l 1
 355 294 l 1
 355 341 l 1
620 295 m 1
 547.709677419 295 537 262 537 239 c 0
 537 191.264496312 595.001138693 166.735844698 645 168 c 0
 730.586206897 170.163934426 781 218.852459016 781 300 c 0
 781 409.951923077 680.522180886 509.968996741 506 510 c 0
 309.467732884 510.033994334 184.02420052 333.001423777 177 145 c 0
 169.534239511 -54.8196944059 280.09053023 -214.834296789 482 -232 c 4
 638.394494372 -245.296164253 744.364444444 -168.980073294 790 -115 c 0
 836 -172 l 0
 793.174050633 -220.06060606 665.451836998 -297.584578157 489 -294 c 0
 238.676640506 -288.914738992 66.7577688588 -139.141784136 66 89 c 0
 65.064383628 370.68640861 263.869266055 564 513 564 c 0
 732.544303797 564 849 422 849 296 c 0
 849 155.94520548 762 83 642 83 c 0
 514.512820513 83 467.003722264 152.776664134 466 213 c 0
 465 273 508 323 548 327 c 1
 620 295 l 1
EndSplineSet
Fore
SplineSet
258.924804688 326 m 1
 355.211660879 317.193359375 397.819571035 322.580078125 494.924804688 346 c 1
 488.294921875 304 l 1
 252.294921875 274 l 1
 258.924804688 326 l 1
487.41796875 305 m 1
 428.800765779 305 416.43074235 277.118003517 414.541992188 259 c 0
 410.408824913 221.645563015 452.350837232 189.778900261 518.051757812 198 c 0
 588.986362482 206.875986132 662.141553412 284.961732468 652.03125 400 c 0
 643.387828968 493.375816651 532.382246693 526.531773813 406.5703125 504 c 0
 209.689685676 466.86307623 144.510181329 274.019185858 113.227539062 172 c 0
 78.6956169052 59.3842383726 62.4094100811 -169.992231732 192.2890625 -195 c 0
 353.046986343 -223.440048069 486.870234439 -137.502849003 561.77734375 -53 c 4
 629.760742188 -122 l 0
 560.554619333 -204 404.915003457 -278.56060985 267.553710938 -274 c 0
 47.1867543921 -266.96938097 -46.2773120352 -73.3396335402 11.6494140625 164 c 0
 64.0328718549 381.654829702 223.461051113 543.103280612 403.446289062 566 c 0
 629.620012045 595.526170299 712.211323234 462.350392878 696.540039062 336 c 0
 680.09751072 203.431418303 575.056429705 110.653782242 442.650390625 107 c 0
 359.234462449 104.698113778 324.441285816 167.525871226 343.349609375 223 c 0
 365.783481918 288.817550165 421.983615971 313.701754386 479.346679688 317 c 1
 487.41796875 305 l 1
EndSplineSet
Layer: 2
Layer: 3
EndChar

StartChar: si_Sha
Encoding: 56 3521 55
GlifName: si_S_ha
Width: 959
VWidth: -24
Flags: HMW
AnchorPoint: "si_hal" 755.732 511 basechar 0
LayerCount: 4
Back
SplineSet
873.330078125 287.131835938 m 5x9c
 870.3828125 202.45703125 l 5
 843.862304688 208.05078125 753.356445312 180.313476562 729 144 c 0
 684.297851562 74.296875 741.688476562 25.1318359375 684.94140625 -23.029296875 c 1
 639.595703125 -14.3720703125 l 1
 679.584960938 40.443359375 625.141601562 100.857421875 669.78515625 176.172851562 c 0
 718.65634084 258.620458894 844.76953125 237.546875 873.330078125 287.131835938 c 5x9c
700.759765625 17.6123046875 m 0
 803.730012091 29.5855891603 856.623046875 108.114257812 856.623046875 229.600585938 c 0
 856.623046875 353.83984375 776.359375 445.533203125 636.9375 445.533203125 c 0
 556.0703125 445.533203125 445.365531913 397.33234502 438.877929688 254.823242188 c 1
 388.610351562 238.01171875 l 1
 384.657226562 437.1640625 515.451171875 542.603515625 655.6796875 542.603515625 c 0xdc
 827.643554688 542.603515625 920.870117188 411.889648438 920.870117188 267.375 c 0
 920.870117188 101.1640625 836.109375 -54.5166015625 664.411132812 -55.814453125 c 0
 613.534972106 -56.1990214457 573.655273438 -45.9150390625 555.682617188 -36.138671875 c 1
 580.452148438 40.328125 l 1
 602.016601562 24.771484375 657.087890625 12.5341796875 700.759765625 17.6123046875 c 0
111.974609375 245.841796875 m 0
 111.224947768 128.711194652 180.21484375 50.8837890625 308 47.5908203125 c 0
 414.426757812 44.8486328125 485.633025268 87.9111518545 488 160 c 0
 489.319040698 200.172851562 462.767578125 237 389 237 c 1
 440 291 l 1
 489 290 551.65234375 244.21484375 552 160 c 0
 552.451171875 47.953125 473.594726562 -55.0048828125 308.598632812 -55.0048828125 c 0
 140.69140625 -55.0048828125 53.9951171875 61.9140625 53.9951171875 221.564453125 c 0
 53.9951171875 428.865278548 210.2890625 536 337 538 c 0
 344.879882812 462.879882812 l 0xbc
 249.916015625 462.879882812 113.059980801 415.425256344 111.974609375 245.841796875 c 0
EndSplineSet
Fore
SplineSet
893.408203125 287.131835938 m 5
 884.540039062 202.45703125 l 5
 858.41015625 208.05078125 765.96484375 180.313476562 739.069335938 144 c 0
 689.493164062 74.296875 743.446289062 25.1318359375 683.331054688 -23.029296875 c 1
 638.590820312 -14.3720703125 l 1
 682.413085938 40.443359375 632.194335938 100.857421875 682.104492188 176.172851562 c 0
 736.741210938 258.620117188 861.380859375 237.546875 893.408203125 287.131835938 c 5
701.991210938 17.6123046875 m 0
 805.798828125 29.5859375 864.18359375 108.114257812 872.678710938 229.600585938 c 0
 881.366210938 353.83984375 807.513671875 445.533203125 668.091796875 445.533203125 c 0
 587.224609375 445.533203125 473.149414062 397.33203125 456.697265625 254.823242188 c 1
 405.25390625 238.01171875 l 1
 415.2265625 437.1640625 553.393554688 542.603515625 693.622070312 542.603515625 c 0
 865.5859375 542.603515625 949.671875 411.889648438 939.56640625 267.375 c 0
 927.944335938 101.1640625 832.296875 -54.5166015625 660.5078125 -55.814453125 c 0
 609.60546875 -56.19921875 570.444335938 -45.9150390625 553.155273438 -36.138671875 c 1
 583.272460938 40.328125 l 1
 603.749023438 24.771484375 657.96484375 12.5341796875 701.991210938 17.6123046875 c 0
129.166015625 245.841796875 m 0
 120.225585938 128.7109375 183.7734375 50.8837890625 311.328125 47.5908203125 c 0
 417.5625 44.8486328125 491.780273438 87.9111328125 499.188476562 160 c 0
 503.31640625 200.172851562 479.33984375 237 405.572265625 237 c 1
 460.348632812 291 l 1
 509.278320312 290 568.729492188 244.21484375 563.188476562 160 c 0
 555.8046875 47.953125 469.748046875 -55.0048828125 304.751953125 -55.0048828125 c 0
 136.844726562 -55.0048828125 58.32421875 61.9140625 69.48828125 221.564453125 c 0
 83.984375 428.865234375 247.76953125 536 374.62109375 538 c 0
 377.248046875 462.879882812 l 0
 282.284179688 462.879882812 142.109375 415.424804688 129.166015625 245.841796875 c 0
EndSplineSet
Layer: 2
Layer: 3
EndChar

StartChar: si_Ssa
Encoding: 57 3522 56
GlifName: si_S_sa
Width: 776
VWidth: -24
Flags: HMW
LayerCount: 4
Back
SplineSet
502 352 m 1xff80
 452 333 l 1
 444 358 436.51166092 375.002839085 437 417 c 0
 438 503 509 556 580 556 c 0
 653 556 705 507 705 427 c 0
 705 359 618 309 618 309 c 1
 582 326 l 1
 616.051757812 347.129882812 650.883968435 377.105468228 651 417 c 0
 651.133789062 463 617 494 568 494 c 0
 519.967032967 494 475 452 475 409 c 0
 475 357 502 352 502 352 c 1xff80
119 209 m 0
 118 124 203 45 388 45 c 0
 563 45 663.451096972 127.008790366 665 216 c 0
 666.775390625 318.00390625 549 348 452 333 c 1
 472 373 l 1
 617 402 740.207129289 330.993840671 736 193 c 0xff40
 731 29 564 -59 383 -59 c 0
 189 -59 38.141811219 32.9981390102 40 180 c 0
 42 330.426470588 197 399.460784314 316 373 c 1
 292 345 l 1
 299 365 312.373079226 386.332036185 308 415 c 0
 299 474 239 505 171 490 c 0
 204 511 l 1
 149 409 l 1
 108 411 81.6005469374 436.013673435 83 471 c 0
 85 521 142 557 202 557 c 0
 272 557 343.891968781 516.997155104 346 439 c 0
 347 402 341 370 332 333 c 1
 208 359 119.917658967 287.001012186 119 209 c 0
643 323 m 1
 552.790039062 270.456054688 517.493868182 251.752985038 394 246 c 0
 363.142552198 244.5625 312.134256665 242.7040476 311 200 c 0
 310.303710938 173.78515625 347.396615788 147.779209587 414 148 c 0
 452.711833742 148.128329842 494.205646484 171.149443457 494.284179688 212 c 0
 494.347656249 245.018554688 465.28515625 262.201171875 453 270 c 1
 487 290 l 1
 486.64453125 268.418945312 533.721679688 261.372070312 534.859375 195 c 0
 535.775855403 141.533398617 478.859285171 95.910077431 384 94 c 0
 279.781839008 91.9014731467 228.94056545 135.838864532 230 190 c 0
 231.369140625 259.994140625 314.1836086 277.727222259 384 281 c 0
 542.53515625 288.431640625 569.885742188 327.166015625 616 345.561523438 c 1
 643 323 l 1
EndSplineSet
Fore
SplineSet
526.614257812 352 m 1
 475.28515625 333 l 1
 469.034179688 358 462.734375 375.002929688 466.159179688 417 c 0
 473.172851562 503 547.87890625 556 618.87890625 556 c 0
 691.87890625 556 740.453125 507 734.858398438 427 c 0
 730.103515625 359 639.607421875 309 639.607421875 309 c 1
 604.795898438 326 l 1
 640.325195312 347.129882812 677.25390625 377.10546875 680.159179688 417 c 0
 683.509765625 463 651.543945312 494 602.543945312 494 c 0
 554.510742188 494 506.606445312 452 503.599609375 409 c 0
 499.963867188 357 526.614257812 352 526.614257812 352 c 1
133.614257812 209 m 0
 126.670898438 124 206.146484375 45 391.146484375 45 c 0
 566.146484375 45 672.33203125 127.008789062 680.104492188 216 c 0
 689.012695312 318.00390625 573.334960938 348 475.28515625 333 c 1
 498.083007812 373 l 1
 645.110351562 402 763.352539062 330.994140625 749.49609375 193 c 0
 733.028320312 29 559.874023438 -59 378.874023438 -59 c 0
 184.874023438 -59 40.44921875 32.998046875 52.5869140625 180 c 0
 65.10546875 330.426757812 224.932617188 399.4609375 342.083007812 373 c 1
 316.125 345 l 1
 324.5234375 365 339.387695312 386.33203125 337.01953125 415 c 0
 332.145507812 474 274.313476562 505 205.263671875 490 c 0
 239.732421875 511 l 1
 177.599609375 409 l 1
 136.740234375 411 112.08984375 436.013671875 115.935546875 471 c 0
 121.431640625 521 180.94921875 557 240.94921875 557 c 0
 310.94921875 557 380.043945312 516.997070312 376.698242188 439 c 0
 375.110351562 402 366.873046875 370 355.28515625 333 c 1
 233.103515625 359 139.986328125 287.000976562 133.614257812 209 c 0
665.5859375 323 m 1
 571.702148438 270.456054688 535.098632812 251.752929688 411.202148438 246 c 0
 380.244140625 244.5625 329.10546875 242.704101562 324.985351562 200 c 0
 322.456054688 173.78515625 357.73046875 147.779296875 424.349609375 148 c 0
 463.0703125 148.127929688 506.173828125 171.149414062 509.108398438 212 c 0
 511.481445312 245.018554688 483.620117188 262.201171875 471.879882812 270 c 1
 507.278320312 290 l 1
 505.4140625 268.418945312 551.999023438 261.372070312 548.495117188 195 c 0
 545.672851562 141.533203125 485.56640625 95.91015625 390.573242188 94 c 0
 286.208007812 91.9013671875 238.439453125 135.838867188 243.286132812 190 c 0
 249.549804688 259.994140625 333.604492188 277.727539062 403.649414062 281 c 0
 562.704101562 288.431640625 592.763671875 327.166015625 640.1640625 345.561523438 c 1
 665.5859375 323 l 1
EndSplineSet
Layer: 2
Layer: 3
EndChar

StartChar: si_Ha
Encoding: 59 3524 57
GlifName: si_H_a
Width: 959
VWidth: -24
Flags: HMW
AnchorPoint: "si_hal" 745.732 511 basechar 0
LayerCount: 4
Back
SplineSet
311 336 m 1
 328.684322621 423.088989699 272.3515625 479.735351562 175 471 c 1
 125 389 l 1
 95 392 71 409 71 446 c 0
 71 513 143 538 196 538 c 0
 276 538 351.656131768 488.983120729 356 404 c 0
 358.56640625 353.791015625 349 331.083007812 342 309 c 1
 311 336 l 1
684.759765625 3.6123046875 m 0
 791.777535116 12.496327719 847.623046875 99.1903866115 847.623046875 236.600585938 c 0
 847.623046875 356.830880893 786.524414062 434.868164062 654.9375 436.533203125 c 0
 573.991210974 437.557459482 435.365234374 390.266996464 448.877929688 254.823242188 c 1
 401.610351562 244.01171875 l 1
 387.657226563 427.034530035 516.451171875 542.603515625 656.6796875 542.603515625 c 0
 831.67250544 542.603515625 911.870117188 412.364576942 911.870117188 268.375 c 0
 911.870117188 76.2184300516 815.321887545 -52.9340033687 641.411132812 -54.814453125 c 0
 600.536132812 -55.275390625 570.655273438 -45.9150390625 552.682617188 -36.138671875 c 1
 578.452148438 29.328125 l 1
 600.016601562 13.771484375 631.103784096 -0.669857815781 684.759765625 3.6123046875 c 0
103.974609375 186.841796875 m 0
 102.698242188 90.696222408 181.2734375 50.7744140625 299 46.5908203125 c 0
 364.454142977 44.2648070691 472.266990439 73.1355346326 474 155 c 0
 475.319335938 217.323217147 447.767578125 238.487179487 402 243 c 1
 445 291 l 1
 486 281.302325581 536.65234375 242.743126211 537 152 c 0
 537.451171875 37.1520215113 459.594726562 -53.0048828125 294.598632812 -53.0048828125 c 0
 136.69140625 -53.0048828125 46.9951171875 28.9163476942 46.9951171875 151.564453125 c 0
 46.9951171875 318.865234375 190.2890625 380 337 372 c 0
 340.879882812 309.879882812 l 0
 215.916015625 329.879882812 105.43359375 286.419921875 103.974609375 186.841796875 c 0
EndSplineSet
Fore
SplineSet
336.103515625 359 m 1
 359.877929688 446.088867188 307.016601562 495.735351562 209.0546875 487 c 1
 153.3203125 405 l 1
 123.530273438 408 101.208007812 432 103.795898438 469 c 0
 108.48046875 536 182.228515625 561 235.228515625 561 c 0
 315.228515625 561 387.458007812 511.983398438 385.858398438 427 c 0
 384.9140625 376.791015625 373.759765625 354.083007812 365.215820312 332 c 1
 336.103515625 359 l 1
689.711914062 13.6123046875 m 0
 787.357421875 21.7060546875 863.559570312 99.1904296875 873.16796875 236.600585938 c 0
 881.575195312 356.831054688 814.389648438 455.189453125 682.861328125 456.533203125 c 0
 590.000976562 457.481445312 473.354492188 400.266601562 476.697265625 254.823242188 c 1
 428.672851562 244.01171875 l 1
 418.916992188 447.034179688 552.791992188 562.603515625 693.020507812 562.603515625 c 0
 878.013671875 562.603515625 949.705078125 412.364257812 939.63671875 268.375 c 0
 926.899414062 86.21875 820.608398438 -53.1396484375 646.578125 -54.814453125 c 0
 598.670898438 -55.275390625 567.444335938 -45.9150390625 550.155273438 -36.138671875 c 1
 585.202148438 39.328125 l 1
 599.028320312 28.771484375 632.759765625 8.8916015625 689.711914062 13.6123046875 c 0
126.040039062 186.841796875 m 0
 117.935546875 90.697265625 214.647460938 49.365234375 302.397460938 48.5908203125 c 0
 377.796875 47.92578125 477.380859375 73.1357421875 484.838867188 155 c 0
 490.515625 217.323242188 462.143554688 248.487304688 428.9921875 243 c 1
 474.649414062 281 l 1
 494.971679688 271.302734375 547.626953125 242.743164062 541.62890625 152 c 0
 534.048828125 37.15234375 452.888671875 -53.0048828125 297.892578125 -53.0048828125 c 0
 164.985351562 -53.0048828125 49.017578125 28.916015625 57.59375 151.564453125 c 0
 69.2919921875 318.865234375 218.469726562 403 364.62109375 395 c 0
 364.157226562 332.879882812 l 0
 231.291015625 362.879882812 134.6015625 288.419921875 126.040039062 186.841796875 c 0
EndSplineSet
Layer: 2
Layer: 3
EndChar

StartChar: si_Lla
Encoding: 60 3525 58
GlifName: si_L_la
Width: 835
VWidth: -5
Flags: HMW
AnchorPoint: "si_hal" 685.25 547 basechar 0
LayerCount: 4
Back
SplineSet
737.662109375 313.857421875 m 1
 681.569335938 331.685546875 506.564453125 358.256835938 391 330 c 0
 297.720703125 307.192382812 165.706054688 248.069335938 167 55 c 0
 167.911132812 -80.93359375 275.409179688 -220.403320312 464 -229 c 0
 612.965820312 -235.790039062 719.771484375 -152.744140625 766 -84 c 0
 815 -139 l 0
 770.939453125 -200.060546875 638.8046875 -292.85546875 458 -294 c 0
 211.450195312 -295.479492188 67.529296875 -165.423828125 67 24 c 0
 66.359375 253.140625 236.697265625 342.377929688 383 376 c 0
 522.771484375 408.12109375 659.041015625 392.354492188 712 375 c 1
 695 369 l 1
 698.79296875 444.918945312 681.073242188 507.33984375 603 500 c 4
 560.47265625 496.001953125 513.913085938 456.166992188 505 356 c 1
 465 356 l 1
 456.25 451.360351562 398.995117188 506.1640625 342 500 c 0
 287.829101562 494.141601562 248.33203125 444.888671875 248 361 c 0
 247.422810077 215.171268371 362.854492188 101.72265625 494 101.3359375 c 0
 598.236406879 101.028567666 660.125976562 132.650390625 717 184 c 1
 741 153 l 1
 681.848632812 71.1279296875 585.524244428 25.4060840538 489 25.9765625 c 0
 302.782226562 27.0771484375 199.740234375 140.541992188 196 326 c 0
 193.739257812 438.076171875 244.391601562 545.588867188 341 560 c 0
 457.916992188 577.44140625 502.899414062 431.340820312 482 399 c 1
 483 416 l 1
 484.694335938 470.4453125 535.126953125 559.370117188 618 560 c 0
 683.361328125 560.497070312 737.0989706 519.587484908 742 405 c 0
 743.823242188 362.372070312 740.545898438 343.486328125 737.662109375 313.857421875 c 1
EndSplineSet
Fore
SplineSet
764.91015625 303.857421875 m 1
 709.376953125 311.858398438 506.822265625 354.291015625 372.817382812 312 c 0
 270.272460938 279.637695312 187.249023438 221.587890625 176.845703125 55 c 0
 168.357421875 -80.9326171875 279.926757812 -221.403320312 467.916992188 -230 c 0
 616.408203125 -236.790039062 729.090820312 -152.744140625 780.125976562 -84 c 0
 825.280273438 -139 l 0
 776.950195312 -200.060546875 638.322265625 -292.915039062 457.44140625 -294 c 0
 210.788085938 -295.479492188 55.9619140625 -165.423828125 68.6787109375 24 c 0
 84.060546875 253.140625 260.801757812 341.37890625 409.29296875 376 c 0
 547.061523438 408.12109375 667.271484375 376.354492188 727.034179688 358 c 1
 722.543945312 351 l 1
 730.920898438 421.71875 708.09765625 488.544921875 637.0546875 487 c 0
 594.461914062 486.07421875 529.447265625 450.9609375 524.034179688 358 c 1
 497.893554688 356 l 1
 505.481445312 446.625976562 462.614257812 492.03515625 395.263671875 490 c 0
 333.46875 488.1328125 297.880859375 421.89453125 293.942382812 371 c 0
 284.576171875 249.900390625 352.331054688 141.587890625 523.8828125 141.3359375 c 0
 623.215820312 141.190429688 673.169921875 148.353515625 729.166992188 174 c 1
 741 143 l 1
 674.528320312 76.427734375 603.733398438 55.2412109375 502.9140625 55.9765625 c 0
 346.776367188 57.115234375 220.63671875 153.921875 230.194335938 346 c 0
 235.771484375 458.076171875 300.368164062 558.12109375 398.159179688 560 c 0
 525.247070312 562.44140625 537.782226562 427.340820312 514.62109375 395 c 1
 506.110351562 402 l 1
 511.612304688 456.4453125 557.247070312 559.453125 650.159179688 560 c 0
 725.551757812 560.443359375 778.733398438 509.587890625 776.3203125 405 c 0
 775.336914062 362.379882812 769.865234375 333.486328125 764.91015625 303.857421875 c 1
EndSplineSet
Layer: 2
Layer: 3
EndChar

StartChar: si_Fa
Encoding: 61 3526 59
GlifName: si_F_a
Width: 775
VWidth: -24
Flags: MW
LayerCount: 4
Back
SplineSet
363 -13 m 1
 333.881835938 -25.3193359375 298.634765625 -34.6181640625 248 -33.93359375 c 0
 107.943359375 -32.0400390625 34 85.7525887482 34 228 c 0
 34 384 121.999997703 520.000156233 258 522 c 0
 382.986328125 523.837890625 431 437 433 362 c 1
 435 365 400 359 402 362 c 1
 409 443 482.002929688 521.33203125 583 522 c 0
 734.000976562 522.999023438 796.434570312 373.00390625 797 254 c 0
 797.831054688 78.9990234375 708.955078125 -30.02734375 592 -33 c 0
 555.997070312 -33.9150390625 510 -27 486 -17 c 1
 505 45 l 1
 531 23 570 17 604 20 c 0
 664.065429688 25.2998046875 727.599609375 89.994140625 726 224 c 0
 724.805664062 323.990234375 678.046875 407.399414062 580 409 c 0
 510.039535505 410.142083678 450 357 448 273 c 1
 392 273 l 1
 392 370 321.948278846 416.881019058 252 414 c 0
 141.022045076 409.429056892 106.696289062 303.002929688 104 219 c 0
 100.829101562 120.224609375 142.603515625 20.6630859375 259 20 c 0
 285.412109375 19.849609375 311.651367188 22.8125 344 45 c 1
 363 -13 l 1
EndSplineSet
Fore
SplineSet
285.440429688 2 m 1
 254.809570312 -10.3193359375 217.817382812 -26.75390625 167.870117188 -18.93359375 c 0
 28.0458984375 2.9599609375 8.5654296875 130.752929688 26.03125 233 c 4
 52.49609375 387.927734375 139.884765625 535 276.129882812 537 c 0
 401.341796875 538.837890625 402.553710938 402 395.345703125 327 c 1
 397.713867188 330 381.9765625 324 384.345703125 327 c 1
 401.291015625 408 479.447265625 528.549804688 581.129882812 537 c 0
 713.481445312 547.999023438 757.498046875 418.00390625 743.451171875 299 c 0
 722.794921875 123.999023438 639.3046875 -5.02734375 521.984375 -8 c 0
 485.869140625 -8.9150390625 440.721679688 -12 417.94921875 -2 c 1
 449.473632812 100 l 1
 472.771484375 78 529.807617188 72 564.17578125 75 c 0
 624.891601562 80.2998046875 681.685546875 124.994140625 696.540039062 259 c 0
 707.623046875 358.990234375 652.10546875 422.399414062 554.255859375 424 c 0
 484.435546875 425.141601562 427.870117188 372 415.556640625 288 c 1
 359.556640625 288 l 1
 371.466796875 385 285.814453125 443.04296875 216.869140625 429 c 0
 145.330078125 414.428710938 90.392578125 368.002929688 77.3818359375 284 c 4
 62.0830078125 185.224609375 74.0888671875 75.6630859375 190.403320312 75 c 0
 216.796875 74.849609375 243.400390625 77.8125 278.473632812 100 c 1
 285.440429688 2 l 1
EndSplineSet
Layer: 2
Layer: 3
EndChar

StartChar: si_Halant
Encoding: 62 3530 60
GlifName: si_H_alant
Width: 1
VWidth: -36
Flags: HMW
AnchorPoint: "si_hal" 19.6768 453 mark 0
LayerCount: 4
Back
SplineSet
28 866 m 1
 28 820.333007812 28 774.666992188 28 729 c 1
 44 708 62.9814453125 706.276367188 76 707 c 0
 94 708 109 727 106 767 c 0
 103 806 75 850 28 866 c 1
6 685 m 1
 5.828125 683.069335938 25.6865234375 688.06640625 25.572265625 686 c 1
 23.0244140625 639.911132812 34.3857421875 532.184570312 43 514 c 1
 -16 514 l 1
 -23 565 -21 670 -21 737 c 1
 -22 920 l 1
 54 911 169 868 165 743 c 0
 163 689 125.046875 657 82 657 c 0
 41 657 15 679 6 685 c 1
EndSplineSet
Fore
SplineSet
83.662109375 796 m 5
 81.16796875 760.333007812 78.673828125 724.666992188 76.1796875 689 c 5
 90.7109375 668 109.572265625 666.276367188 122.641601562 667 c 4
 140.7109375 668 158.44921875 687.129882812 156.836914062 727 c 4
 155.737304688 754.181640625 141.34375 805.7578125 83.662109375 796 c 5
49.0048828125 615 m 5
 70.7451171875 646 l 5
 65.9150390625 594.551757812 63.0009765625 474.298828125 65.7470703125 454 c 5
 6.7470703125 454 l 5
 15.7529296875 502.712890625 21.166015625 603.004882812 25.6416015625 667 c 5
 38.8359375 870 l 5
 70.10546875 850.786132812 108.284179688 846.845703125 141.762695312 840.342773438 c 4
 199.3671875 829.153320312 242.701171875 790.352539062 234.857421875 713 c 4
 228.161132812 652.720703125 178.564453125 617 125.14453125 617 c 4
 84.14453125 617 58.03515625 615.428710938 49.0048828125 615 c 5
EndSplineSet
Layer: 2
Layer: 3
EndChar

StartChar: si_MatraAa
Encoding: 63 3535 61
GlifName: si_M_atraA_a
Width: 431
VWidth: -11
Flags: HMW
LayerCount: 4
Back
SplineSet
59 440 m 1
 85 419 l 1
 102.233398438 430.538085938 136.473632812 450.502929688 183 444 c 0
 261.008789062 431.5859375 296.154296875 350.3984375 293 231 c 0
 289.97265625 124.423828125 248.96484375 26.69140625 172 17 c 0
 132.201171875 12.62109375 90.9521484375 26.9599609375 80 33 c 1
 58 7 l 1
 70.796875 -10.5 116.87109375 -35.92578125 175 -33 c 0
 312.93359375 -26.056640625 379.788085938 122.322265625 383 234 c 0
 387.069335938 378.272460938 319.327148438 493.89453125 193 499 c 0
 142.083984375 501.081054688 87.7236328125 474.416992188 59 440 c 1
EndSplineSet
Fore
SplineSet
56.3974609375 469 m 1
 74.2998046875 429 l 1
 92.33984375 440.538085938 127.907226562 460.171875 174.047851562 454 c 0
 260.411204036 445.469533878 296.021782907 369.187237248 282.153320312 261 c 4
 270.72332282 141.475446429 220.349583488 35.3325892857 154.46875 21 c 0
 116.352539062 17.9921875 85.4267578125 24.3154296875 65.0068359375 33 c 1
 39.9091796875 -17 l 1
 52.0185546875 -23.3603515625 88.072265625 -33.921875 149.692382812 -33 c 0
 292.99609375 -26.615234375 367.114257812 156.854492188 371.36328125 294 c 0
 375.778320312 436.495117188 307.442382812 518.91015625 187.893554688 519 c 0
 139.224609375 519.036132812 85.5244140625 493.166992188 56.3974609375 469 c 1
EndSplineSet
Layer: 2
Layer: 3
EndChar

StartChar: si_MatraAe
Encoding: 64 3536 62
GlifName: si_M_atraA_e
Width: 355
VWidth: -11
Flags: HMW
LayerCount: 4
Back
SplineSet
150 96 m 0x40
 134.754354647 7.52286056713 143.063476562 -89.5732421875 245 -97 c 0
 308.692382812 -101.640625 340 -71.2119140625 363 -51 c 1
 384 -73 l 1
 369.114257812 -116.75 296.828125 -174.841796875 216 -173 c 0
 79.068359375 -169.87890625 50.5498046875 -73.234375 65 40 c 0
 80.9677734375 174.33060949 177.349609375 293.039478975 215.163085938 332 c 1x40
 168.428486668 329.587890625 78.0733322503 326.22265625 20 323.856445312 c 1
 21 388.116210938 l 5x80
 43.9092013889 388.107421875 232.430533854 387.998046875 266 388 c 5
 266 323 l 1
 216.875976562 285.021022041 164.067382812 177.639167233 150 96 c 0x40
EndSplineSet
Fore
SplineSet
167.412109375 106 m 0
 145.979492188 17.5224609375 147.499023438 -79.5732421875 248.916015625 -87 c 0
 312.284179688 -91.640625 345.020507812 -71.2119140625 369.43359375 -51 c 1
 388.895507812 -73 l 1
 370.950195312 -116.75 294.6015625 -174.841796875 203.90234375 -173 c 0
 67.158203125 -170.223632812 35.4287109375 -73.234375 57.796875 40 c 0
 83.158203125 174.331054688 186.211914062 284.0390625 226.749023438 323 c 5
 179.986328125 322.587890625 100.60546875 322.22265625 42.646484375 323.856445312 c 5
 48.1396484375 388.116210938 l 1
 71.0478515625 388.107421875 259.561523438 387.998046875 293.131835938 388 c 1
 288.5859375 323 l 1
 236.806640625 285.021484375 187.188476562 187.639648438 167.412109375 106 c 0
EndSplineSet
Layer: 2
Layer: 3
EndChar

StartChar: si_MatraAae
Encoding: 65 3537 63
GlifName: si_M_atraA_ae
Width: 417
VWidth: -11
Flags: HMW
LayerCount: 4
Back
SplineSet
75 412 m 1xc0
 309 412 l 1xc0
 309 358 l 1
 216 324.43359375 l 5
 127 303 l 1
 65 309 l 1
 189 355.081054688 l 1
 273 372 l 1xa0
 243 364 l 1
 75 364 l 1
 75 412 l 1xc0
206 88 m 0
 187.103515625 4.6083984375 191.1640625 -90.5087890625 289 -97 c 0
 352.720703125 -101.227539062 384 -71.2119140625 407 -51 c 1
 428 -73 l 1
 413.114257812 -116.75 340.828125 -174.842773438 260 -173 c 0
 123.068359375 -169.87890625 89.22265625 -72.42578125 109 40 c 0
 128.04296875 148.252929688 227.811523438 232.37890625 279.163085938 262 c 1
 227.614257812 261.661132812 129.0546875 261.188476562 65 260.856445312 c 1
 65 309.116210938 l 1
 87.9091796875 309.107421875 285.431640625 308.998046875 319 309 c 1
 319 253 l 1
 273.961914062 225.39453125 221.813476562 157.787109375 206 88 c 0
EndSplineSet
Fore
SplineSet
65.2080078125 432 m 5
 339.208007812 432 l 5
 335.432617188 378 l 5
 200.084960938 344.43359375 l 5
 108.1875 303 l 1
 46.607421875 309 l 1
 175.228515625 375.081054688 l 5
 300.411132812 392 l 5
 269.8515625 384 l 5
 61.8515625 384 l 5
 65.2080078125 432 l 5
212.153320312 88 m 0
 187.42578125 4.6083984375 184.834960938 -90.5087890625 282.216796875 -97 c 0
 345.642578125 -101.227539062 379.020507812 -71.2119140625 403.43359375 -51 c 1
 422.895507812 -73 l 1
 404.950195312 -116.75 328.6015625 -174.842773438 247.90234375 -173 c 0
 111.189453125 -169.87890625 84.158203125 -72.42578125 111.796875 40 c 0
 138.41015625 148.252929688 244.061523438 232.37890625 297.484375 262 c 1
 245.911132812 261.661132812 107.318359375 261.188476562 43.2412109375 260.856445312 c 1
 46.615234375 309.116210938 l 1
 69.5244140625 309.107421875 307.0390625 308.998046875 340.607421875 309 c 1
 336.69140625 253 l 1
 289.72265625 225.39453125 232.846679688 157.787109375 212.153320312 88 c 0
EndSplineSet
Layer: 2
Layer: 3
EndChar

StartChar: si_MatraIi
Encoding: 67 3539 65
GlifName: si_M_atraI_i
Width: 0
VWidth: -28
Flags: HMW
AnchorPoint: "si_MaI" 39.0889 559 mark 0
LayerCount: 4
Back
SplineSet
-185 531 m 21
 -248 551 -291.833007812 588.24609375 -286 655 c 4
 -277 758 -139 802 2 800 c 4
 106 799 249.903320312 764.702148438 266 659 c 4
 275.955078125 593.627929688 231 543 196 529 c 13
 177 554 l 21
 200 574 214.749023438 594.73046875 205 635 c 4
 190.84375 693.477539062 68 701.96875 0 703 c 4
 -94.994140625 704.44140625 -214 706 -223 641 c 4
 -230.40625 587.510742188 -191 576 -168 566 c 13
 -185 531 l 21
EndSplineSet
Fore
SplineSet
-147.869140625 531 m 21
 -209.470703125 551 -250.69921875 588.24609375 -240.198242188 655 c 4
 -223.995117188 758 -82.9189453125 802 57.94140625 800 c 4
 161.87109375 799 303.376953125 764.702148438 312.08203125 659 c 4
 317.465820312 593.627929688 268.970703125 543 232.991210938 529 c 13
 215.739257812 554 l 21
 240.137695312 574 256.336914062 594.73046875 249.403320312 635 c 4
 239.3359375 693.477539062 117.086914062 701.96875 49.158203125 703 c 4
 -45.734375 704.44140625 -164.631835938 706 -178.176757812 641 c 4
 -189.323242188 587.510742188 -150.721679688 576 -128.421875 566 c 13
 -147.869140625 531 l 21
EndSplineSet
Layer: 2
Layer: 3
EndChar

StartChar: si_MatraU
Encoding: 68 3540 66
GlifName: si_M_atraU_
Width: 0
VWidth: 0
Flags: HMW
AnchorPoint: "si_MaU" 43.8369 169.28 mark 0
LayerCount: 4
Back
SplineSet
-388 -115 m 17
 -361.227539062 -160 l 1
 -361.23046875 -152.99609375 -427.812711241 -191.887525396 -427.809570312 -226 c 0
 -427.80528394 -272.552734178 -403.698875123 -285.247071992 -352 -285.247070312 c 1
 -35 -287 l 9
 -35 169 l 25
 22 169 l 25
 28 -367 l 17
 28 -367 -247.995117188 -369.6796875 -424 -370.586914062 c 0
 -504 -371 -545.244140625 -321.6015625 -546 -271 c 0
 -547.62890625 -161.938476562 -388 -115 -388 -115 c 17
EndSplineSet
Fore
SplineSet
-458.041992188 -115 m 17
 -434.416015625 -160 l 1
 -433.928710938 -152.99609375 -503.23046875 -191.887695312 -505.61328125 -226 c 0
 -508.864257812 -272.552734375 -485.645507812 -285.247070312 -433.946289062 -285.247070312 c 1
 -38.0693359375 -287 l 9
 -6.1826171875 169 l 25
 43.8173828125 169 l 25
 12.3369140625 -367 l 17
 12.3369140625 -367 -335.845703125 -369.6796875 -511.9140625 -370.586914062 c 0
 -591.942382812 -371 -629.732421875 -321.6015625 -626.950195312 -271 c 0
 -620.953125 -161.938476562 -458.041992188 -115 -458.041992188 -115 c 17
EndSplineSet
Layer: 2
Layer: 3
EndChar

StartChar: si_MatraUu
Encoding: 69 3542 67
GlifName: si_M_atraU_u
Width: 0
VWidth: 0
Flags: HMW
AnchorPoint: "si_MaU" 33.8369 169.28 mark 0
LayerCount: 4
Back
SplineSet
-448 -165 m 25
 -436 -251 l 25
 88 -247 l 25
 82 129 l 25
 -5 129 l 25
 -5 -167 l 25
 -448 -165 l 25
EndSplineSet
Fore
SplineSet
-443.741210938 -125 m 17
 -412.416015625 -160 l 1
 -411.96875 -153.548828125 -462.021484375 -192.322265625 -469.892578125 -230 c 0
 -477.9296875 -271.698242188 -452.826171875 -300.033203125 -410.78515625 -297.247070312 c 0
 -353.640625 -293.129882812 -296.1015625 -238.704101562 -220.502929688 -236 c 0
 -137.9296875 -233.197265625 -85.58203125 -269.159179688 -45.7685546875 -297 c 1
 -13.1826171875 169 l 25
 33.8173828125 169 l 25
 1.6376953125 -377 l 1
 -60.29296875 -376 l 1
 -112.8125 -338.75 -173.931640625 -306.490234375 -230.677734375 -310 c 0
 -318.40625 -315.051757812 -376.59375 -380.245117188 -466.61328125 -380.586914062 c 0
 -536.140625 -380.850585938 -568.46484375 -331.600585938 -565.649414062 -281 c 0
 -560.671875 -187.90625 -443.741210938 -125 -443.741210938 -125 c 17
EndSplineSet
Layer: 2
Layer: 3
EndChar

StartChar: si_MatraR
Encoding: 70 3544 68
GlifName: si_M_atraR_
Width: 377
VWidth: -11
Flags: HMW
LayerCount: 4
Back
SplineSet
17 449 m 1
 37 419 l 1
 54.2334365325 430.538461539 88.4282279166 450.171453115 135 444 c 0
 206.044410511 434.585557969 240.953858779 350.39868523 238 231 c 0
 235.673454122 126.415584854 209.685365321 33.540720618 145 21 c 0
 99.8863052159 13.532603167 60.0982142857 27.0795774275 34 43 c 1
 11 13 l 1
 26.5941190945 -5.285 71.3400420364 -35.6498516338 144 -33 c 0
 286.939560226 -27.7871064363 343.865398935 122.321918812 347 234 c 0
 351.326443431 378.272912215 294.556180949 498.894728402 145 499 c 0
 96.3287827409 499.034259345 44.4375244811 473.166666667 17 449 c 1
EndSplineSet
Fore
SplineSet
132.6015625 -20 m 4
 298.36328125 -20.9189453125 352.420898438 127.765625 363.36328125 234 c 1
 377.778320312 378.272460938 329.442382812 498.89453125 179.893554688 499 c 0
 131.224609375 499.034179688 77.5244140625 473.166992188 48.3974609375 449 c 1
 66.2998046875 419 l 1
 84.33984375 430.538085938 119.907226562 450.171875 166.047851562 444 c 0
 236.43359375 434.5859375 263.194335938 350.43359375 254.153320312 231 c 0
 244.583007812 127.412109375 213.209960938 26.3134765625 146.608398438 23 c 0
 91.2783203125 19.83203125 65.20703125 51.3359375 67.9228515625 99 c 4
 70.998046875 156.856445312 119.619140625 190.764648438 148.915039062 199 c 0
 206.194335938 212.46875 259.17578125 202.717773438 299.887695312 170 c 0
 294.852539062 241 l 0
 258.01171875 257.579101562 186.120117188 259.620117188 146.481445312 250 c 0
 77.154296875 234.209960938 2.2138671875 194.013671875 -6.0068359375 100 c 0
 -13.48828125 7.826171875 62.814453125 -19.61328125 132.6015625 -20 c 4
EndSplineSet
Layer: 2
Layer: 3
EndChar

StartChar: si_MatraE
Encoding: 71 3545 69
GlifName: si_M_atraE_
Width: 587
VWidth: -10
Flags: HMW
LayerCount: 4
Back
SplineSet
313 157 m 4
 255.081054688 160.048828125 225 204 225 247 c 4
 225 321 295.996232903 364.285672889 366 365 c 0
 457.000756775 365.928582995 551.537146707 304.978720126 546 172 c 0
 541.655737705 72 461.286885246 -44 281 -44 c 0
 106.011363636 -44 5.04488585503 78.4458592855 20 244 c 0
 36.1881188119 424.993150685 166.769115485 546 347 546 c 0
 469.480446927 546 536 489 536 489 c 0
 497 427 l 1
 495 427 444.751953125 479.645507812 338 487 c 0
 209.078125 495.052734375 87.5294756928 413.662785823 78 284 c 0
 66.9070806138 133.064221695 179.333007812 55.640625 275 48 c 0
 379.729492188 39.6357421875 470.897630752 65.0259085152 487 174 c 0
 499.953781854 266.2671434 431.995346331 330.335991006 363 329 c 0
 306.949367089 328 281 297 281 263 c 0
 281 239 302.145114339 216.832389055 335 216 c 0
 371.235294118 215.2 391 236 391 256 c 0
 391 323.307692308 343.52173913 331 335 331 c 1
 362 337 394.527617292 334.682723095 396 333 c 0
 405 322.714285714 429 306.714285714 429 253 c 0
 429 208 389 153 313 157 c 4
EndSplineSet
Fore
SplineSet
323.978515625 157 m 0
 266.272460938 160.048828125 239.264648438 204 242.271484375 247 c 0
 247.446289062 321 321.469726562 364.286132812 391.5234375 365 c 0
 482.588867188 365.928710938 572.86328125 304.978515625 558.02734375 172 c 0
 546.690429688 72 458.209960938 -44 277.922851562 -44 c 0
 102.934570312 -44 10.5302734375 78.4462890625 37.0625 244 c 0
 65.90625 424.993164062 204.94921875 546 385.1796875 546 c 0
 507.66015625 546 570.194335938 489 570.194335938 489 c 0
 526.159179688 417 l 5
 524.159179688 417 477.592773438 469.645507812 371.35546875 477 c 4
 242.96875 484.65625 116.008789062 407.275390625 97.859375 284 c 0
 76.2119140625 133.064453125 183.223632812 55.640625 278.356445312 48 c 0
 382.500976562 39.6357421875 475.444335938 65.0263671875 499.166992188 174 c 0
 518.573242188 266.267578125 455.094726562 330.3359375 386.005859375 329 c 0
 329.885742188 328 301.768554688 297 299.390625 263 c 0
 297.712890625 239 317.307617188 216.83203125 350.104492188 216 c 0
 386.283203125 215.200195312 407.502929688 236 408.901367188 256 c 0
 413.607421875 323.307617188 366.66796875 331 358.145507812 331 c 1
 385.565429688 337 417.930664062 334.682617188 419.28515625 333 c 0
 427.56640625 322.713867188 450.447265625 306.713867188 446.69140625 253 c 0
 443.544921875 208 399.69921875 153 323.978515625 157 c 0
EndSplineSet
Layer: 2
Layer: 3
EndChar

StartChar: si_MatraLs
Encoding: 77 3551 75
GlifName: si_M_atraL_s
Width: 580
VWidth: -11
Flags: HMW
LayerCount: 4
Back
Refer: 61 3535 N 1 0 0 1 77 0 2
Fore
SplineSet
251.9921875 386 m 1
 248.775390625 340 l 1
 296.756835938 340 316.05859375 310.560546875 315.776367188 278 c 0
 315.471679688 242.799804688 275.376953125 202.745117188 214.82421875 212 c 0
 163.490234375 219.845703125 118.409179688 257.40625 118.794921875 354 c 0
 119.016601562 409.471679688 142.637695312 474.282226562 179.061523438 530 c 1
 121.690429688 539 l 1
 90.34375 494.719726562 60.94921875 411.631835938 59.27734375 344 c 0
 56.744140625 241.515625 101.499023438 166.368164062 204.838867188 155 c 0
 291.334960938 144.637695312 380.32421875 185.927734375 387.202148438 288.904296875 c 4
 390.50390625 338.80078125 354.671875 389.853515625 288.412109375 390.056640625 c 0
 271.00390625 390.115234375 251.9921875 386 251.9921875 386 c 1
276.775390625 340 m 0
 269.712890625 396.685546875 304.643554688 479.661132812 377.040039062 476 c 0
 476.008789062 470.994140625 490.666015625 353.1875 480.551757812 251 c 0
 470.850585938 152.983398438 442.858398438 -6.5869140625 320.510742188 -7 c 0
 236.340820312 -7.2841796875 208.939453125 19.970703125 183.405273438 63 c 1
 139.586914062 37 l 1
 152.966796875 -34.4423828125 233.775390625 -61.6435546875 300.594726562 -63 c 0
 500.2109375 -67.052734375 569.423828125 78.220703125 582.69140625 253 c 0
 601.58203125 501.857421875 476.256835938 540.379882812 409.612304688 543 c 0
 287.538085938 547.799804688 221.794921875 440.283203125 224.831054688 339 c 1
 276.775390625 340 l 0
EndSplineSet
Layer: 2
Layer: 3
EndChar

StartChar: si_VI
Encoding: 365 -1 78
GlifName: si_V_I_
Width: 1016
VWidth: -14
Flags: HMW
LayerCount: 4
Back
SplineSet
376 274 m 1
 230 290 125 245 129 158 c 0
 131.939453125 94.0595703125 204.999023438 55.1953125 345 56 c 0
 519 57 618 173 618 326 c 0
 680 321 l 0
 680 107 571.001953125 -56.423828125 335 -58 c 0
 179 -59.0419921875 49.349609375 8.0439453125 46 137 c 0
 42 291 219 325 341 318 c 1
 351 378 304 428 212 428 c 1
 186 347 l 1
 135 340 100 369 109 415 c 0
 119 471 177 490 224 490 c 0
 300 490 380 453 384 349 c 0
 385.383789062 313.026367188 376 274 376 274 c 1
EndSplineSet
Refer: 560 -1 S 1 0 0 1 0 0 2
Fore
Refer: 64 3538 N 1 0 0 1 639 0 2
Refer: 2 3520 N 1 0 0 1 0 0 2
Layer: 2
Layer: 3
Ligature2: "si_abvs_1 subtable" si_Va si_MatraI
LCarets2: 1 0
Ligature2: "'abvs' Above Base Substitutions in Sinhala lookup 0-1" si_Va si_MatraI
EndChar

StartChar: si_MatraU.alt
Encoding: 85 -1 81
GlifName: si_M_atraU_.alt
Width: 0
VWidth: 0
Flags: HMW
AnchorPoint: "si_MaU" 38.6348 209.28 mark 0
LayerCount: 4
Back
SplineSet
-388 -115 m 17
 -361.227539062 -160 l 1
 -361.23046875 -152.99609375 -427.812711241 -191.887525396 -427.809570312 -226 c 0
 -427.80528394 -272.552734178 -403.698875123 -285.247071992 -352 -285.247070312 c 1
 -35 -287 l 9
 -35 169 l 25
 22 169 l 25
 28 -367 l 17
 28 -367 -247.995117188 -369.6796875 -424 -370.586914062 c 0
 -504 -371 -545.244140625 -321.6015625 -546 -271 c 0
 -547.62890625 -161.938476562 -388 -115 -388 -115 c 17
EndSplineSet
Fore
SplineSet
-480.670898438 -124 m 21
 -445.646484375 -149 l 5
 -470.55859375 -161.99609375 -497.650390625 -197.887695312 -496.731445312 -242 c 4
 -495.890625 -282.38671875 -465.516601562 -312 -393.817382812 -312 c 5
 -56.3974609375 -306 l 13
 -28.3857421875 209 l 29
 38.6142578125 209 l 29
 0.798828125 -389 l 21
 -463.201171875 -389 l 4
 -563.23046875 -389.413085938 -590.501953125 -332.6015625 -587.719726562 -282 c 4
 -581.721679688 -172.938476562 -480.670898438 -124 -480.670898438 -124 c 21
EndSplineSet
Layer: 2
Layer: 3
EndChar

StartChar: si_MatraUu.alt
Encoding: 86 -1 82
GlifName: si_M_atraU_u.alt
Width: 0
VWidth: 0
Flags: HMW
AnchorPoint: "si_MaU" 38.6348 209.28 mark 0
LayerCount: 4
Back
Fore
SplineSet
-458.412109375 -106 m 1
 -434.786132812 -151 l 1
 -482.538085938 -165 -504.083007812 -197.780273438 -505.333007812 -222 c 0
 -507.421875 -262.447265625 -477.5859375 -280.134765625 -428.509765625 -279 c 4
 -354.353515625 -277.28515625 -284.661132812 -230.08203125 -213.803710938 -226 c 0
 -151.016601562 -222.3828125 -101.446289062 -239.368164062 -59.740234375 -268 c 9
 -28.3857421875 209 l 25
 38.6142578125 209 l 25
 -3.802734375 -369 l 17
 -72.5029296875 -336.954101562 -116.578125 -295.936523438 -223.908203125 -299 c 0
 -288.546875 -300.844726562 -371.453125 -364 -466.453125 -364 c 0
 -566.454101562 -364 -593.9921875 -308.541015625 -593.041015625 -258 c 0
 -591.53125 -177.80078125 -518.907226562 -113.530273438 -458.412109375 -106 c 1
EndSplineSet
Layer: 2
Layer: 3
EndChar

StartChar: si_Rakar.alt
Encoding: 88 -1 84
GlifName: si_R_akar
Width: 776
VWidth: -24
Flags: HMW
LayerCount: 4
Back
SplineSet
710 217 m 13
 736 210 l 29
 736 210 737.791460669 163.739318268 733 103 c 4
 717.53805264 -88.9552825327 623.783678929 -308.121598998 361 -309 c 4
 140.07699775 -309.663443429 32.9088980374 -199.176818848 27 -179 c 13
 64 -158 l 29
 64 -158 152.41243175 -207.191959404 362 -203 c 4
 650.485866987 -194.912482782 700.90024363 43.6137537122 710 217 c 13
EndSplineSet
Fore
SplineSet
719.173828125 217 m 13
 750.684570312 210 l 25
 750.684570312 210 749.241210938 163.739257812 740.202148438 103 c 0
 711.6640625 -98.2734375 645.989257812 -310.3515625 361.994140625 -329 c 0
 163.557617188 -341.026367188 47.6640625 -220 26.5810546875 -149 c 9
 65.0498046875 -128 l 17
 109.96484375 -175.43359375 210.584960938 -246.844726562 396.3359375 -224 c 0
 638.857421875 -194.375976562 698.80859375 34.9443359375 719.173828125 217 c 13
EndSplineSet
Layer: 2
Layer: 3
EndChar

StartChar: si_KU
Encoding: 92 -1 88
GlifName: si_K_U_
Width: 1084
VWidth: -24
Flags: HMW
LayerCount: 4
Back
SplineSet
796 9 m 0xbe
 905.836914062 22.0703125 941.120117188 174.231445312 915 279 c 0
 885.174804688 398.631835938 760.228515625 466.868164062 625 462 c 0
 525.9140625 458.697265625 448.959960938 431.771484375 355 374 c 1
 338 362 349 367 335 355 c 1
 238 276 156 211 56 79 c 1
 56 79 21.126953125 98.5439453125 27 107 c 0
 127 251 217 322 315 413 c 1
 322 419 331 420 338 425 c 1
 435.860351562 505 556.172851562 555.573242188 672 561 c 0
 861.928710938 570.465820312 1001 450 1015 282 c 0
 1028.55566406 112.560546875 927.639648438 -33 775 -33 c 0
 796 9 l 0xbe
288 377 m 1
 300 400 304 421 303 439 c 0
 301 481 264.760742188 505.678710938 215 501 c 0
 180.934570312 497.796875 145 470 151 426 c 1
 191 371 l 1
 177 347 154.001953125 335.022460938 132 336 c 0
 87 338 67 369 67 415 c 0
 67 495 133.983398438 563.181640625 231 559 c 0
 313.926757812 555.42578125 363 480 336 416 c 0
 321 380 336 404 323 387 c 1
 288 377 l 1
107 165 m 1
 115 169 124 172 131 172 c 0
 179 173 188 72 271 72 c 0
 320 72 370 101 371 197 c 1
 406 197 l 0
 407 94 466.997070312 71.1669921875 527 72 c 0
 587.002929688 72.8330078125 638 118 638 194 c 0
 638 273 566 340 452 345 c 0
 390.059570312 347.716796875 314 329 281 311 c 1
 335 364 l 1
 348 368 381.99609375 390.330078125 459 391 c 0
 574 392 696 332 696 182 c 0
 696 48 620.995117188 -34.9423828125 516 -36 c 0
 430.693359375 -36.859375 397.721679688 8.326171875 379 49 c 1
 397 49 l 1
 379.737304688 7.81640625 336.954101562 -36 272 -36 c 0xde
 113.997070312 -36 160 169 95 130 c 0
 107 165 l 1
EndSplineSet
Refer: 575 -1 S 1 0 0 1 795 1 2
Fore
Refer: 66 3540 N 1 0 0 1 1030 0 2
Refer: 7 3482 N 1 0 0 1 0 0 2
Layer: 2
Layer: 3
LCarets2: 1 0
Ligature2: "si_blws_1 subtable" si_Ka si_MatraU
EndChar

StartChar: si_GU
Encoding: 111 -1 107
GlifName: si_G_U_
Width: 843
VWidth: -24
Flags: HMW
LayerCount: 4
Back
SplineSet
665.759765625 8.6123046875 m 0xee
 798.73046875 0.5859375 856.623046875 108.114257812 856.623046875 229.600585938 c 0
 856.623046875 353.83984375 776.359375 445.533203125 636.9375 445.533203125 c 0
 556.0703125 445.533203125 445.365234375 397.33203125 438.877929688 254.823242188 c 1
 388.610351562 238.01171875 l 1
 384.657226562 437.1640625 515.451171875 542.603515625 655.6796875 542.603515625 c 0
 827.643554688 542.603515625 920.870117188 411.889648438 920.870117188 267.375 c 0
 920.870117188 101.1640625 847.109375 -54.5166015625 664.411132812 -45.814453125 c 4
 665.759765625 8.6123046875 l 0xee
111.974609375 245.841796875 m 0
 111.224609375 128.7109375 180.21484375 50.8837890625 308 47.5908203125 c 0
 414.426757812 44.8486328125 485.6328125 87.9111328125 488 160 c 0
 489.319335938 200.172851562 462.767578125 237 389 237 c 1
 440 291 l 1
 489 290 551.65234375 244.21484375 552 160 c 0
 552.451171875 47.953125 473.594726562 -55.0048828125 308.598632812 -55.0048828125 c 0
 140.69140625 -55.0048828125 53.9951171875 61.9140625 53.9951171875 221.564453125 c 0
 53.9951171875 428.865234375 210.2890625 536 337 538 c 0
 344.879882812 462.879882812 l 0xde
 249.916015625 462.879882812 113.059570312 415.424804688 111.974609375 245.841796875 c 0
EndSplineSet
Refer: 575 -1 N 1 0 0 1 665 1 2
Fore
Refer: 66 3540 N 1 0 0 1 843 0 2
Refer: 29 3484 N 1 0 0 1 0 0 2
Layer: 2
Layer: 3
LCarets2: 1 0
Ligature2: "si_blws_1 subtable" si_Ga si_MatraU
EndChar

StartChar: si_Tt.halant
Encoding: 197 -1 202
GlifName: si_T_t.halant
Width: 732
VWidth: -14
Flags: HMW
LayerCount: 4
Back
SplineSet
353.442382812 334 m 1xfa
 327.442382812 346 293.442382812 352 260.442382812 350 c 0
 190.369140625 345.8515625 117.5546875 302.787109375 116.442382812 218 c 0
 115.442382812 140.005859375 171.440018336 54.38494186 334.442382812 55 c 0
 547.44140625 55.8037109375 618.874023438 215.23046875 627.442382812 340 c 0
 690.442382812 332 l 0
 691.631835938 137.185546875 601.442382812 -57 341.442382812 -59 c 0
 148.44763624 -60.4845749736 38.5732421875 38.0029296875 35.4423828125 176 c 0
 32.1533203125 320.966796875 154.427734375 394.418945312 265.442382812 398 c 0
 327.442382812 400 367.442382812 379 367.442382812 379 c 1
 353.442382812 334 l 1xfa
EndSplineSet
Refer: 576 -1 N 1 0 0 1 -20 0 2
Fore
SplineSet
376.797851562 334 m 1
 351.63671875 346 318.056640625 352 284.916992188 350 c 0
 214.553710938 345.8515625 138.727539062 302.787109375 131.686523438 218 c 0
 125.232421875 140.005859375 175.243164062 54.384765625 338.288085938 55 c 0
 551.34375 55.8037109375 633.924804688 215.23046875 651.217773438 340 c 0
 713.658203125 332 l 0
 701.224609375 137.185546875 597.45703125 -57 337.31640625 -59 c 0
 144.217773438 -60.484375 41.23046875 38.0029296875 47.7490234375 176 c 0
 54.59765625 320.966796875 182.0078125 394.418945312 293.2734375 398 c 0
 355.413085938 400 393.944335938 379 393.944335938 379 c 1
 376.797851562 334 l 1
EndSplineSet
Refer: 576 -1 N 1 0 0.0699268 1 -20 0 2
Layer: 2
Layer: 3
LCarets2: 1 0
Ligature2: "si_halant_1 subtable" si_Tta si_Halant
EndChar

StartChar: si_TtI
Encoding: 198 -1 203
GlifName: si_T_tI_
Width: 1070
VWidth: -14
Flags: HMW
LayerCount: 4
Back
SplineSet
366 329 m 1xfc
 343 338 300 345 273 343 c 0
 202 338 115.5149564 300.478264259 117 198 c 0
 118.4140625 100.419921875 217 45 350 44 c 4
 544.997070312 42.5341796875 612.875976562 198.346679688 616 323 c 0
 682 322 l 0
 680.189453125 113.185546875 570 -59 330 -59 c 4
 147 -59 40.7906648242 50.1077332517 46 176 c 0
 52 321 165 394 276 398 c 0
 338 400 378 379 378 379 c 1
 366 329 l 1xfc
EndSplineSet
Refer: 560 -1 N 1 0 0 1 0 0 2
Fore
Refer: 64 3538 N 1 0 0 1 693 0 2
Refer: 0 3495 N 1 0 0 1 0 0 2
Layer: 2
Layer: 3
LCarets2: 1 0
Ligature2: "si_abvs_1 subtable" si_Tta si_MatraI
Ligature2: "'abvs' Above Base Substitutions in Sinhala lookup 0-1" si_Tta si_MatraI
EndChar

StartChar: si_TtIi
Encoding: 199 -1 204
GlifName: si_T_tI_i
Width: 693
VWidth: -14
Flags: HMW
LayerCount: 4
Back
SplineSet
366 329 m 1xfd
 343 338 300 345 273 343 c 0
 202 338 115.5149564 300.478264259 117 198 c 0
 118.4140625 100.419921875 207 45 340 44 c 0
 534.997070312 42.5341796875 603.875976562 198.346679688 607 323 c 0
 682 322 l 0
 680.189453125 113.185546875 560 -59 320 -59 c 0
 137 -59 40.7906648242 50.1077332517 46 176 c 0
 52 321 165 394 276 398 c 0
 338 400 378 379 378 379 c 1
 366 329 l 1xfd
EndSplineSet
Refer: 561 -1 S 1 0 0 1 0 0 2
Fore
Refer: 65 3539 N 1 0 0 1 693 0 2
Refer: 0 3495 N 1 0 0 1 0 0 2
Layer: 2
Layer: 3
LCarets2: 1 0
Ligature2: "si_abvs_2 subtable" si_Tta si_MatraIi
EndChar

StartChar: si_TtU
Encoding: 200 -1 205
GlifName: si_T_tU_
Width: 693
VWidth: -14
Flags: HMW
LayerCount: 4
Back
SplineSet
212 -117 m 1
 228.772460938 -152 l 1
 228.76953125 -143.934570312 162.1875 -188.71875 162.190429688 -228 c 0
 162.1953125 -274.552734375 189.481445312 -288 248 -288 c 1
 615 -288 l 1
 615 167 l 5
 662 167 l 5
 668 -369 l 1
 668 -369 387.048828125 -371.4765625 176 -372.586914062 c 0
 96 -373 54.755859375 -323.6015625 54 -273 c 0
 52.37109375 -163.938476562 212 -117 212 -117 c 1
EndSplineSet
Refer: 0 3495 N 1 0 0 1 0 0 2
Fore
Refer: 66 3540 N 1 0 0 1 693 0 2
Refer: 0 3495 N 1 0 0 1 0 0 2
Layer: 2
Layer: 3
LCarets2: 1 0
Ligature2: "si_blws_1 subtable" si_Tta si_MatraU
EndChar

StartChar: si_DdU
Encoding: 215 -1 220
GlifName: si_D_dU_
Width: 854
VWidth: -14
Flags: HMW
LayerCount: 4
Back
SplineSet
257 -115 m 17xf7
 283.772460938 -160 l 1
 283.76953125 -152.99609375 217.1875 -191.887695312 217.190429688 -226 c 0
 217.194335938 -272.552734375 241.30078125 -285.247070312 293 -285.247070312 c 1
 680 -287 l 9
 680 89 l 25
 737 149 l 25
 743 -367 l 17
 743 -367 397.004882812 -369.6796875 221 -370.586914062 c 0
 141 -371 99.755859375 -321.6015625 99 -271 c 0
 97.37109375 -161.938476562 257 -115 257 -115 c 17xf7
EndSplineSet
Refer: 40 3497 N 1 0 0 1 -40 0 2
Fore
Refer: 66 3540 N 1 0 0 1 854 0 2
Refer: 40 3497 N 1 0 0 1 0 0 2
Layer: 2
Layer: 3
LCarets2: 1 0
Ligature2: "si_blws_1 subtable" si_Dda si_MatraU
EndChar

StartChar: si_TIi
Encoding: 240 -1 245
GlifName: si_T_I_i
Width: 1044
VWidth: -24
Flags: HMW
AnchorPoint: "si_MaI" 656.194 489 mark 0
LayerCount: 4
Back
SplineSet
317 427 m 1x2d80
 319.586914062 689.754882812 480.518547864 816.205147793 652 833 c 0
 786.000976562 846.124023438 920.791692129 777.673684576 916 642 c 0
 913.940185547 583.67767693 881.333333333 492 786 492 c 1
 676.076686501 492.000002228 633.558376437 552.792051998 636 619 c 0
 637.942019745 679.022037163 687.117908899 724.326048316 740 743 c 1
 760.968082501 734.068306627 781.218291421 724.317699544 800 714 c 1
 754 714 716.37918509 680.631318228 712 629 c 0
 710.627174559 594.718865376 732.490804277 555 775 555 c 0
 806.914762406 555 825.445623509 579.684590917 825 608 c 0
 823.291521193 716.558627094 717.885723905 746.201365225 610 736 c 0
 485.984375 724.2734375 365.77734375 641.188476562 364 427 c 1
 317 427 l 1x2d80
EndSplineSet
Refer: 8 3501 N 1 0 0 1 0 0 2
Fore
Refer: 65 3539 N 1 0 0 1 1056 0 2
Refer: 8 3501 N 1 0 0 1 0 0 2
Layer: 2
Layer: 3
LCarets2: 1 0
Ligature2: "si_abvs_2 subtable" si_Ta si_MatraIi
EndChar

StartChar: si_TU
Encoding: 241 -1 246
GlifName: si_T_U_
Width: 1044
VWidth: -24
Flags: HMW
LayerCount: 4
Back
SplineSet
758 8 m 13
 788 -22 l 21
 775 -40 735.653320312 -70.2509765625 742 -124 c 4
 747.765148819 -172.824130769 798 -203 867 -202 c 4
 929.642578125 -201.091796875 975 -174 1010 -139 c 13
 1054 -228 l 4
 1001 -278 921.443359375 -295.733398438 857 -294 c 4
 765.02734375 -291.526367188 683.208984375 -256.041015625 683 -140 c 4
 682.877929688 -71.982421875 733.476258379 -13.4625335028 758 8 c 13
278 378 m 1
 290 401 293.788085938 421.989257812 293 440 c 0
 290.88671875 488.322265625 241.939453125 510.5859375 200 501 c 0
 168.6171875 493.826171875 143.75 469.586914062 140 425 c 1
 180 370 l 1
 166 346 142.997070312 333.926757812 121 335 c 0
 80 337 56 368 56 414 c 0
 56 494 122.979492188 562.083984375 220 558 c 0
 303.716796875 554.475585938 353.256835938 480.104492188 326 417 c 0
 310.53515625 381.197265625 326 405 313 388 c 1
 278 378 l 1
758 8 m 0
 781.990234375 8.53125 802.926757812 13.7314453125 821 22.541015625 c 1
 906.891601562 64.4072265625 928.108269354 187.794867069 905 279 c 0
 872.266601562 408.19140625 734.73046875 467.030273438 595 462 c 0
 503.25390625 458.697265625 432 431.771484375 345 374 c 1
 328 362 339 367 325 355 c 1
 228 276 176 211 76 79 c 1
 76 79 41.1279296875 98.5439453125 47 107 c 0
 147 251 207 322 305 413 c 1
 312 419 321 420 328 425 c 1
 420 505 533.100585938 555.721679688 642 561 c 0
 837.309570312 570.465820312 990.44140625 449.986328125 1005 282 c 0
 1016.22873366 152.436080151 954.948242188 30.9873046875 851.549804688 -19 c 1
 819.727539062 -34.384765625 783.916015625 -43 745 -43 c 0
 758 8 l 0
106 142 m 1
 121.827148438 148.801757812 135.977539062 157.05859375 149 157.575195312 c 0
 235.53125 161.009765625 244.237304688 64.6337890625 412 62 c 0
 543.998046875 59.927734375 621.387695312 124.006835938 620 205 c 0
 617.891601562 328.076171875 483.087890625 345.88671875 432 346 c 0
 350.086914062 346.181640625 292 328 259 310 c 1
 296 362 l 1
 309 366 372.00390625 395.240234375 444 394 c 0
 544.004882812 392.27734375 679 345 679 195 c 0
 679 89.8291015625 610 -44 412 -44 c 0
 282.072265625 -44 203.453125 7.7138671875 187 67.9970703125 c 0
 171.305664062 125.500976562 129.395507812 127.443359375 84 104 c 1
 106 142 l 1
EndSplineSet
Fore
Refer: 66 3540 N 1 0 0 1 1056 0 2
Refer: 8 3501 N 1 0 0 1 0 0 2
Layer: 2
Layer: 3
LCarets2: 1 0
Ligature2: "si_blws_1 subtable" si_Ta si_MatraU
EndChar

StartChar: si_DI
Encoding: 255 -1 263
GlifName: si_D_I_
Width: 946
VWidth: -17
Flags: HMW
LayerCount: 4
Back
SplineSet
207 451 m 17
 144 471 106.650390625 537.995117188 106 605 c 0
 105 708 213 812 354 810 c 0
 458 809 555.903320312 734.702148438 558 629 c 0
 559.311523438 562.887695312 513 513 478 499 c 9
 459 524 l 17
 482 544 498.944335938 563.61328125 497 605 c 4
 492.84375 693.477539062 390 711.96875 322 713 c 4
 227.005859375 714.44140625 168 656 169 591 c 0
 169.831054688 537.006835938 201 496 224 486 c 9
 207 451 l 17
EndSplineSet
Refer: 45 3503 N 1 0 0 1 0 0 2
Fore
Refer: 64 3538 N 1 0 0 1 569 0 2
Refer: 45 3503 N 1 0 0 1 0 0 2
Layer: 2
Layer: 3
LCarets2: 1 0
Ligature2: "si_abvs_1 subtable" si_Da si_MatraI
Ligature2: "'abvs' Above Base Substitutions in Sinhala lookup 0-1" si_Da si_MatraI
EndChar

StartChar: si_DU
Encoding: 257 -1 265
GlifName: si_D_U_
Width: 569
VWidth: -17
Flags: HMW
LayerCount: 4
Back
SplineSet
233 -117 m 1
 249.772460938 -152 l 1
 249.76953125 -143.934570312 183.1875 -188.71875 183.190429688 -228 c 0
 183.1953125 -274.552734375 210.481445312 -288 269 -288 c 1
 516 -288 l 1
 516 40 l 5
 563 40 l 5
 569 -369 l 1
 569 -369 408.048828125 -371.4765625 197 -372.586914062 c 0
 117 -373 75.755859375 -323.6015625 75 -273 c 0
 73.37109375 -163.938476562 233 -117 233 -117 c 1
152 199 m 0
 139.301757812 59.7265625 303.229492188 -21.3037109375 549 67 c 5
 563 40 l 5
 539 36 l 5
 551 38.3330078125 529 25.6669921875 493 12 c 5
 273.506835938 -100.266601562 38.8994140625 -4.337890625 41 165 c 0
 42.919921875 319.76171875 205.887695312 393.12109375 397 394 c 0
 456.002929688 394.271484375 499 385 499 385 c 1
 499 387.5 488.354492188 375.5 488 378 c 1
 491.599609375 475 373 506 318 498 c 1
 262 409 l 1
 216 412 195.556640625 452.114257812 205 488 c 0
 220 545 273 571 336 571 c 0
 408 571 506 528 520 444 c 0
 529.095703125 389.426757812 513 345 513 345 c 1
 513 343 l 1
 273.458007812 364.4921875 162.536132812 306.422851562 152 199 c 0
EndSplineSet
Fore
Refer: 66 3540 N 1 0 0 1 569 0 2
Refer: 45 3503 N 1 0 0 1 0 0 2
Layer: 2
Layer: 3
LCarets2: 1 0
Ligature2: "si_blws_1 subtable" si_Da si_MatraU
EndChar

StartChar: si_Dh.halant
Encoding: 266 -1 280
GlifName: si_D_h.halant
Width: 824
VWidth: -14
Flags: HMW
LayerCount: 4
Back
Fore
SplineSet
434.895507812 364 m 1
 409.735351562 376 376.146484375 381.521484375 343.014648438 380 c 0
 251.7578125 375.572265625 152.359375 316.512695312 143.1484375 196 c 0
 137.880859375 127.409179688 179.982421875 74.32421875 254.174804688 74 c 0
 325.578125 73.7119140625 389.684570312 117.864257812 395.987304688 208 c 1
 402.993164062 208.030273438 427.860351562 208.259765625 434.592773438 208.6796875 c 1
 427.64453125 109.321289062 486.686523438 65.4228515625 560.615234375 66 c 0
 679.5859375 66.8408203125 731.55859375 194.631835938 740.267578125 333 c 0
 814.127929688 333 l 0
 803.54296875 167.259765625 743.446289062 -37.2978515625 554.1328125 -41 c 0
 465.688476562 -42.783203125 402.439453125 -3.1962890625 395.407226562 71 c 1
 412.96484375 71 l 1
 380.858398438 4.6962890625 329.373046875 -41.2490234375 245.1328125 -41 c 0
 135.197265625 -40.71484375 52.662109375 19.84765625 59.4912109375 158 c 0
 68.9853515625 347.240234375 236.86328125 420.831054688 344.37109375 428 c 0
 416.573242188 432.640625 452.041992188 409 452.041992188 409 c 1
 434.895507812 364 l 1
EndSplineSet
Refer: 576 -1 N 1 0 0.0699268 1 70 0 2
Layer: 2
Layer: 3
Ligature2: "si_halant_1 subtable" si_Dha si_Halant
EndChar

StartChar: si_NU
Encoding: 279 -1 293
GlifName: si_N_U_
Width: 1014
VWidth: -24
Flags: HMW
LayerCount: 4
Back
SplineSet
302 -117 m 5
 318.772460938 -152 l 5
 318.76953125 -143.934570312 252.1875 -188.71875 252.190429688 -228 c 4
 252.1953125 -274.552734375 279.481445312 -288 338 -288 c 5
 915 -288 l 5
 915 127 l 5
 962 127 l 5
 968 -369 l 5
 968 -369 477.048828125 -371.4765625 266 -372.586914062 c 4
 186 -373 144.755859375 -323.6015625 144 -273 c 4
 142.37109375 -163.938476562 302 -117 302 -117 c 5
EndSplineSet
Refer: 9 3505 N 1 0 0 1 0 0 2
Fore
Refer: 66 3540 N 1 0 0 1 916 0 2
Refer: 9 3505 N 1 0 0 1 0 0 2
Layer: 2
Layer: 3
LCarets2: 1 0
Ligature2: "si_blws_1 subtable" si_Na si_MatraU
EndChar

StartChar: si_M.halant
Encoding: 324 -1 342
GlifName: si_M_.halant
Width: 705
VWidth: -14
Flags: HMW
LayerCount: 4
Back
Refer: 51 3512 N 1 0 0 1 0 0 2
Fore
SplineSet
245.236328125 318 m 0
 248.313476562 362 248.088867188 402.573242188 207.110351562 402 c 0
 154.546875 401.264648438 128.671875 333.01171875 128.250976562 261 c 0
 127.7890625 130.739257812 226.130859375 50.0146484375 401.56640625 51 c 0
 599.282226562 52.189453125 707.337890625 172.522460938 718.629882812 334 c 0
 791.310546875 334 l 0
 774.639648438 95.5927734375 615.810546875 -58 388.944335938 -58 c 0
 139.706054688 -58 46.12890625 92.94921875 53.36328125 234 c 0
 60.0546875 363.161132812 133.684570312 453.891601562 214.88671875 456 c 0
 265.275390625 457.30859375 291.2578125 420.991210938 286.293945312 350 c 0
 279.724609375 256.060546875 340.314453125 225.708984375 405.803710938 226 c 0
 493.756835938 226.390625 531.868164062 277.0859375 537.005859375 329 c 0
 542.474609375 384.258789062 510.1875 448.463867188 439.397460938 449 c 0
 401.251953125 449.2890625 377.83203125 420.012695312 375.69140625 396 c 0
 373.91015625 376.029296875 383.745117188 349.234375 423.443359375 349.561523438 c 0
 470.431640625 349.948242188 486.217773438 408.357421875 458.366210938 448.561523438 c 1
 500.296875 447.561523438 l 1
 534.526367188 395.220703125 497.305664062 290.670898438 410.278320312 290 c 0
 371.375976562 289.700195312 323.748046875 314.625 327.631835938 380.856445312 c 0
 330.809570312 435.037109375 376.610351562 483 450.774414062 483 c 0
 528.170898438 483 588.890625 419.0546875 583.35546875 334 c 0
 578.716796875 262.715820312 530.237304688 161.435546875 398.188476562 160 c 0
 309.522460938 159.036132812 237.609375 208.918945312 245.236328125 318 c 0
EndSplineSet
Refer: 576 -1 N 1 0 0.0699268 1 48 0 2
Layer: 2
Layer: 3
LCarets2: 1 0
Ligature2: "si_halant_1 subtable" si_Ma si_Halant
EndChar

StartChar: si_YU
Encoding: 342 -1 360
GlifName: si_Y_U_
Width: 832
VWidth: -24
Flags: HMW
LayerCount: 4
Back
SplineSet
392 -115 m 21xff20
 418.772460938 -160 l 5
 418.76953125 -152.99609375 352.1875 -191.887695312 352.190429688 -226 c 4
 352.194335938 -272.552734375 386.30078125 -285.247070312 428 -285.247070312 c 5
 745 -287 l 13xff20
 745 169 l 29xff40
 802 169 l 29
 808 -367 l 21
 808 -367 532.004882812 -369.6796875 356 -370.586914062 c 4
 276 -371 234.755859375 -321.6015625 234 -271 c 4
 232.37109375 -161.938476562 392 -115 392 -115 c 21xff20
EndSplineSet
Refer: 53 3514 N 1 0 0 1 0 0 2
Fore
Refer: 66 3540 N 1 0 0 1 832 0 2
Refer: 53 3514 N 1 0 0 1 0 0 2
Layer: 2
Layer: 3
LCarets2: 1 0
Ligature2: "si_blws_1 subtable" si_Ya si_MatraU
EndChar

StartChar: si_Ya.post
Encoding: 345 -1 363
GlifName: si_Y_a.post
Width: 713
VWidth: -11
Flags: HMW
LayerCount: 4
Back
Fore
SplineSet
338.383789062 373 m 0
 320.891601562 200.363842655 172.861328125 76.5687556612 36.43359375 -21 c 1
 -3.349609375 25 l 1
 -3.349609375 25 253.010742188 147.397076896 271.543945312 361 c 0
 278.882499074 460.411688113 250.464700025 517.728432649 179.243164062 518 c 0
 138.592879408 518.142529297 93.8481420858 474.660839844 83.6494140625 434 c 5
 31.9775390625 453 l 0
 51.6363596349 503.925646552 99.0566669543 569.870504445 186.088867188 571 c 0
 333.51139974 572.73431521 345.027025764 438.857611209 338.383789062 373 c 0
111.223632812 69 m 1
 271.378656012 124.66015625 260.606515906 18.3076171875 436.657226562 18 c 0
 576.468581667 17.6617635091 623.484413359 114.309577094 628.7265625 193 c 0
 637.765795957 276.675803829 561.62537496 330.303784321 378.82421875 325 c 1
 382.043945312 467.536044876 443.940429688 561.446895364 550.578125 566 c 0
 608.5859375 568.168945312 678.557617188 538.954101562 673.676757812 453 c 0
 668.751953125 366.266601562 571.334960938 348 571.334960938 348 c 1
 563.802734375 369 l 1
 563.802734375 369 595.60546875 394.377929688 598.138671875 431 c 0
 601.3828125 477.916992188 565.760742188 510.185546875 520.592773438 509 c 0
 436.17578125 506.784179688 429.25 404 429.25 404 c 1
 553.149382694 414.533203125 675.100064899 332.559570312 666.306640625 176 c 0
 657.125001326 52.1201171875 561.249110103 -78.9723866046 351.014648438 -57 c 0
 175.499422186 -38.65625 200.168367731 110.997070312 100.748046875 25 c 1
 111.223632812 69 l 1
EndSplineSet
Layer: 2
Layer: 3
LCarets2: 2 0 0
Ligature2: "si_yansaya subtable" si_Halant zwj si_Ya
EndChar

StartChar: si_RAe
Encoding: 353 -1 371
GlifName: si_R_A_e
Width: 1068
VWidth: -5
Flags: HMW
LayerCount: 4
Back
SplineSet
686 286 m 0x40
 673.03149213 197.912101269 683.9552585 23.4596878133 851 13 c 0
 925.485704848 8.33599673795 962.101694915 38.7880859375 989 59 c 1
 1010 37 l 1
 993.342145647 -6.75 912.446649603 -65.0229953974 822 -63 c 0
 630.048097803 -58.706664466 595.259201143 73.8189539074 611 230 c 0
 633.347946036 451.737512925 768.240645813 647.688455021 821.163085938 712 c 1x40
 764.849913129 709.587890625 655.975856126 706.22265625 586 703.856445312 c 1
 637 779.116210938 l 1x80
 660.844270833 779.107421875 857.060351562 778.998046875 892 779 c 1
 892 723 l 1
 804.762510102 649.886284722 704.792626773 413.647916063 686 286 c 0x40
EndSplineSet
Refer: 4 3515 N 1 0 0 1 0 0 2
Fore
Refer: 62 3536 N 1 0 0 1 713 0 2
Refer: 4 3515 N 1 0 0 1 0 0 2
Layer: 2
Layer: 3
LCarets2: 1 0
Ligature2: "si_raer subtable" si_Ra si_MatraAe
EndChar

StartChar: si_RI
Encoding: 355 -1 373
GlifName: si_R_I_
Width: 1090
VWidth: -5
Flags: HMW
LayerCount: 4
Back
SplineSet
643 795 m 1
 643 717.080078125 566.435546875 670.377929688 458 604 c 0
 330 526 125 415 125 245 c 0
 125 138 214 48 360 48 c 0
 508.439453125 48 582.853515625 153 586 252 c 0
 590.389648438 389.393554688 492.021484375 476 367 476 c 0
 208.249023438 476 137 339 137 339 c 1
 165 428 l 0
 164 431 253.985351562 531.200195312 386 532 c 0
 536.497070312 532.912109375 668.461914062 424.852539062 665 245 c 0
 661.881835938 83.00390625 550.1171875 -52 356 -52 c 0
 153 -52 47.3369140625 93.9853515625 55 252 c 0
 67.9033203125 518.061523438 446 614 544 746 c 1
 584 834 l 1
 626.75390625 835.307617188 643 821.384765625 643 795 c 1
263 493 m 17
 162.110351562 451.639648438 106.826491728 577.491101825 179 703 c 0
 232.83203125 796.61328125 347.963867188 867.708984375 453 836 c 0
 541.97265625 809.140625 493 674 493 674 c 25
 459 666 l 25
 459 666 464.546875 750.15234375 395 758 c 0
 338.370117188 764.389648438 285.21875 739.506835938 241 692 c 0
 159.2421875 604.162109375 198.736328125 514.29296875 259 522 c 9
 263 493 l 17
EndSplineSet
Fore
Refer: 64 3538 N 1 0 0 1 713 0 2
Refer: 4 3515 N 1 0 0 1 0 0 2
Layer: 2
Layer: 3
LCarets2: 1 0
Ligature2: "si_abvs_1 subtable" si_Ra si_MatraI
EndChar

StartChar: si_LI
Encoding: 360 -1 378
GlifName: si_L_I_
Width: 1093
VWidth: -5
Flags: HMW
AnchorPoint: "si_MaI" 39.0889 559 mark 0
LayerCount: 4
Back
SplineSet
296 468 m 17
 243 468 190.475585938 521.147460938 195 598 c 0
 202.833984375 731.080078125 326.991210938 829.928710938 499 833 c 0
 722.965296868 836.998994298 819.440429688 717.55859375 816 601 c 0
 814.0625 535.350585938 762 486 727 472 c 9
 693 497 l 17
 716 517 753.9375 536.671875 751 598 c 0
 748.1953125 656.557617188 685.924804688 736.450195312 501 736 c 0
 355.9140625 735.646484375 257 679 248 604 c 0
 241.56640625 550.384765625 290 513 313 503 c 9
 296 468 l 17
EndSplineSet
Refer: 54 3517 N 1 0 0 1 0 0 2
Fore
Refer: 64 3538 N 1 0 0 1 716 0 2
Refer: 54 3517 N 1 0 0 1 0 0 2
Layer: 2
Layer: 3
LCarets2: 1 0
Ligature2: "si_abvs_1 subtable" si_La si_MatraI
EndChar

StartChar: si_V.halant
Encoding: 364 -1 382
GlifName: si_V_.halant
Width: 780
VWidth: -14
Flags: HMW
LayerCount: 4
Back
SplineSet
396 274 m 1
 260.50390625 291.37890625 133.465820312 252.458984375 138 158 c 0
 141.069335938 94.0595703125 229.272460938 45.0927734375 375 46 c 0
 549 47.083984375 647 180.395507812 647 339 c 0
 710 331 l 0
 710 111.353515625 601.00390625 -66.76171875 365 -68 c 0
 183.8203125 -69.0419921875 59.146484375 8.0341796875 56 137 c 0
 52.244140625 299.32421875 249.439453125 329.377929688 364 322 c 1
 364 392 314 428 222 428 c 1
 196 347 l 1
 145 340 110.760742188 368.857421875 119 415 c 0
 129 471 187 490 234 490 c 0
 310 490 399.999023438 453 404 349 c 0
 405.383789062 313.026367188 396 274 396 274 c 1
EndSplineSet
Refer: 576 -1 N 1 0 0 1 0 0 2
Fore
SplineSet
405.859375 284 m 1
 271.578125 301.37890625 141.119140625 252.458984375 139.048828125 158 c 0
 136.98046875 82.6845703125 225.856445312 39.095703125 377.796875 40 c 0
 568.0234375 41.1572265625 682.65234375 166.641601562 694.495117188 336 c 0
 757.35546875 334 l 0
 742.03515625 114.912109375 601.240234375 -48.603515625 380.944335938 -58 c 0
 192.448242188 -65.2548828125 50.0126953125 8.0341796875 55.580078125 137 c 0
 63.1748046875 299.32421875 263.170898438 339.377929688 377.215820312 332 c 1
 382.110351562 402 334.627929688 438 242.627929688 438 c 1
 210.963867188 357 l 1
 159.474609375 350 127.252929688 378.857421875 138.71875 425 c 0
 152.634765625 481 211.963867188 500 258.963867188 500 c 0
 334.963867188 500 422.375 463 419.103515625 359 c 0
 417.971679688 323.026367188 405.859375 284 405.859375 284 c 1
EndSplineSet
Refer: 576 -1 N 1 0 0.0699268 1 23 0 2
Layer: 2
Layer: 3
LCarets2: 1 0
Ligature2: "si_halant_1 subtable" si_Va si_Halant
EndChar

StartChar: si_VIi
Encoding: 366 -1 383
GlifName: si_V_I_i
Width: 719
VWidth: -14
Flags: HMW
LayerCount: 4
Back
SplineSet
376 262 m 1xfe80
 230 278 125 245 129 158 c 0
 131.939782368 94.0597335036 205 41 345 42 c 0
 514 43 607 173 607 326 c 0
 682 321 l 0
 682 107 571.002314781 -56.4236373831 335 -58 c 0
 179 -59.0419921875 49.3495196644 8.04349292099 46 137 c 0
 42 291 205 325 327 318 c 1
 337 378 304 428 212 428 c 1
 186 347 l 1
 135 340 100 369 109 415 c 0
 119 471 177 490 224 490 c 0
 300 490 380 453 384 349 c 0
 385.383592396 313.026597713 376 262 376 262 c 1xfe80
EndSplineSet
Refer: 561 -1 N 1 0 0 1 0 0 2
Fore
Refer: 65 3539 N 1 0 0 1 675 0 2
Refer: 2 3520 N 1 0 0 1 0 0 2
Layer: 2
Layer: 3
Ligature2: "si_abvs_2 subtable" si_Va si_MatraIi
LCarets2: 1 0
Ligature2: "'abvs' Above Base Substitutions in Sinhala lookup 0-2" si_Va si_MatraIi
EndChar

StartChar: si_SU
Encoding: 397 -1 413
GlifName: si_S_U_
Width: 855
VWidth: -24
Flags: HMW
LayerCount: 4
Back
SplineSet
282 -117 m 5xee80
 298.772460938 -152 l 5
 298.76953125 -143.934570312 232.1875 -188.71875 232.190429688 -228 c 4
 232.1953125 -274.552734375 259.481445312 -288 318 -288 c 5
 795 -288 l 1
 795 127 l 1
 842 127 l 1
 848 -369 l 1
 848 -369 457.048828125 -371.4765625 246 -372.586914062 c 4
 166 -373 124.755859375 -323.6015625 124 -273 c 4
 122.37109375 -163.938476562 282 -117 282 -117 c 5xee80
EndSplineSet
Refer: 6 3523 N 1 0 0 1 0 0 2
Fore
Refer: 66 3540 N 1 0 0 1 885 0 2
Refer: 6 3523 N 1 0 0 1 0 0 2
Layer: 2
Layer: 3
LCarets2: 1 0
Ligature2: "si_blws_1 subtable" si_Sa si_MatraU
EndChar

StartChar: si_KSsa
Encoding: 429 -1 445
GlifName: si_K_S_sa
Width: 1368
VWidth: -24
Flags: HMW
AnchorPoint: "si_hal" 1298.94 514 basechar 0
LayerCount: 4
Back
SplineSet
800 501.65234375 m 0x3d38
 773.259765625 506.147460938 663.797973016 505.722958876 607 492 c 0
 507.888671875 468.053710938 448.959960938 431.771484375 355 374 c 1
 338 362 349 367 335 355 c 1
 238 276 156 211 56 79 c 1
 56 79 21.1274838429 98.5435767337 27 107 c 0
 127 251 217 322 315 413 c 1
 322 419 331 420 338 425 c 1
 430.000450271 495 545.206560929 544.1498541 664 561 c 0
 706.148290934 566.978485489 778.02734375 566.530273438 799 564.625 c 0
 800 501.65234375 l 0x3d38
288 377 m 1
 300 400 303.857492926 420.99264856 303 439 c 0
 301 481 264.760721452 505.678931467 215 501 c 0
 180.934570312 497.796875 145 470 151 426 c 1
 191 371 l 1
 177 347 154.001938688 335.022136058 132 336 c 0
 87 338 67 369 67 415 c 0
 67 495 133.983392553 563.181504095 231 559 c 0
 313.926757812 555.42578125 362.716238441 480.118972259 336 416 c 0
 321 380 336 404 323 387 c 1
 288 377 l 1
107 165 m 1
 115 169 124.001518603 171.854198304 131 172 c 0
 179 173 188 72 271 72 c 0
 320 72 370 101 371 197 c 1
 406 197 l 0
 407 94 466.997454367 71.1666228257 527 72 c 0
 587.003054614 72.8333842436 638 118 638 194 c 0
 638 273 566 340.000000001 452 345 c 0
 390.059547834 347.716686498 314 329 281 311 c 1
 335 364 l 1
 348 368 381.996090944 390.330400791 459 391 c 0
 574 392 696 332 696 182 c 0
 696 48 620.994671777 -34.9422200603 516 -36 c 0
 430.693480131 -36.8594295683 397.721679688 8.326171875 379 49 c 1
 397 49 l 1
 379.737304688 7.81640625 336.954248144 -36 272 -36 c 0x79b8
 113.996835475 -36 160 169 95 130 c 0
 107 165 l 1
EndSplineSet
Refer: 56 3522 N 1 0 0 1 598 8 2
Fore
SplineSet
835.079101562 501.65234375 m 0
 808.653320312 506.147460938 699.161132812 505.72265625 641.404296875 492 c 0
 540.618164062 468.053710938 479.15234375 431.771484375 381.15234375 374 c 1
 363.313476562 362 374.663085938 367 359.82421875 355 c 1
 257.299804688 276 170.754882812 211 61.5244140625 79 c 1
 61.5244140625 79 28.0185546875 98.5439453125 34.482421875 107 c 0
 144.551757812 251 239.516601562 322 343.879882812 413 c 1
 351.299804688 419 360.369140625 420 367.71875 425 c 1
 464.614257812 495 583.256835938 544.149414062 703.228515625 561 c 0
 745.794921875 566.978515625 817.642578125 566.530273438 838.482421875 564.625 c 0
 835.079101562 501.65234375 l 0
314.362304688 377 m 1
 327.970703125 400 333.295898438 420.9921875 333.698242188 439 c 0
 334.634765625 481 300.12109375 505.678710938 250.033203125 501 c 0
 215.744140625 497.796875 177.865234375 470 180.7890625 426 c 1
 216.942382812 371 l 1
 201.264648438 347 177.428710938 335.022460938 155.495117188 336 c 0
 110.635742188 338 92.802734375 369 96.01953125 415 c 0
 101.614257812 495 173.365234375 563.181640625 270.088867188 559 c 0
 352.765625 555.42578125 396.2890625 480.119140625 365.08984375 416 c 0
 347.572265625 380 364.25 404 350.061523438 387 c 1
 314.362304688 377 l 1
118.538085938 165 m 1
 126.817382812 169 136.018554688 171.854492188 143.02734375 172 c 0
 191.09765625 173 193.03515625 72 276.03515625 72 c 0
 325.03515625 72 377.0625 101 384.775390625 197 c 1
 419.775390625 197 l 0
 413.573242188 94 471.973632812 71.1669921875 532.03515625 72 c 0
 592.095703125 72.8330078125 646.250976562 118 651.565429688 194 c 0
 657.08984375 273 589.775390625 340 476.125 345 c 0
 414.374023438 347.716796875 337.005859375 329 302.747070312 311 c 1
 360.453125 364 l 1
 373.733398438 368 409.291015625 390.330078125 486.341796875 391 c 0
 601.411132812 392 719.215820312 332 708.7265625 182 c 0
 699.356445312 48 618.551757812 -34.9423828125 513.482421875 -36 c 0
 428.116210938 -36.859375 398.303710938 8.326171875 382.426757812 49 c 1
 400.426757812 49 l 1
 380.284179688 7.81640625 334.436523438 -36 269.482421875 -36 c 0
 111.479492188 -36 171.817382812 169 104.090820312 130 c 0
 118.538085938 165 l 1
EndSplineSet
Refer: 56 3522 N 1 0 0.0699268 1 598.559 8 2
Layer: 2
Layer: 3
LCarets2: 1 0
Ligature2: "si_akhands subtable" si_Ka si_Halantfzwjnsi_SsaC2
EndChar

StartChar: I_comp
Encoding: 569 -1 560
GlifName: I__comp
Width: 726
VWidth: -14
Flags: HMW
LayerCount: 4
Back
SplineSet
139.149414062 703.880859375 m 4
 139.149414062 815 273.150390625 875.750976562 434 877 c 4
 631.375 878.533203125 716.248046875 776.428710938 697 677 c 4
 684.538085938 612.626953125 629.57421875 569.895507812 570 576 c 13
 536 629 l 21
 586 605 621.004882812 633.44140625 619 684 c 4
 616.580078125 745.025390625 554.841796875 801.115234375 398 801 c 4
 293.033203125 800.922851562 214.092773438 769.6875 209.40625 708.064453125 c 4
 207.170898438 678.671875 219.657226562 657.563476562 252 648.33984375 c 4
 296.94140625 635.522460938 366.30078125 649.194335938 437 646.131835938 c 4
 617.857421875 638.298828125 756 515.607421875 756 321 c 0
 694 321 l 1
 694 484.856445312 584.022460938 584.602539062 433 592.443359375 c 4
 357.883789062 596.34375 287.2109375 584.611328125 231 595.53515625 c 4
 167.021484375 607.96875 139.149414062 650.7890625 139.149414062 703.880859375 c 4
EndSplineSet
Fore
SplineSet
103.768554688 723.880859375 m 4
 111.987304688 841.418945312 250.481445312 905.678710938 411.423828125 907 c 0
 608.90625 908.533203125 691.265625 805.403320312 660.438476562 707 c 0
 641.869140625 647.725585938 575.498046875 608.37890625 506.935546875 614 c 1
 486.08203125 659 l 1
 540.366210938 634.126953125 581.38671875 663.592773438 583.067382812 716 c 0
 585.024414062 777.025390625 530.000976562 833.106445312 380.249023438 833 c 0
 269.7109375 832.920898438 184.208007812 801.025390625 175.016601562 738.064453125 c 0
 170.725585938 708.671875 181.736328125 687.564453125 213.434570312 678.33984375 c 0
 257.479492188 665.522460938 327.814453125 679.364257812 398.279296875 676.131835938 c 0
 584.775390625 667.576171875 718.310546875 533.563476562 703.446289062 321 c 0
 640.446289062 321 l 1
 652.326171875 490.892578125 538.880859375 590.5390625 399.126953125 602.443359375 c 0
 324.553710938 608.254882812 245.642578125 596.140625 197.342773438 605.53515625 c 0
 127.244140625 618.756835938 99.712890625 665.888671875 103.768554688 723.880859375 c 4
EndSplineSet
Layer: 2
Layer: 3
EndChar

StartChar: Ii_comp
Encoding: 570 -1 561
GlifName: I_i_comp
Width: 726
VWidth: -14
Flags: HMW
LayerCount: 4
Back
SplineSet
543 742 m 5xf0
 480.828125 758.302734375 446.037109375 721.200195312 446.037109375 687 c 0
 446.037109375 653.5625 471.477783521 631.284572707 507 629.793945312 c 0
 533.105460132 628.698475551 564.620117188 644.154296875 564 684 c 0xf0
 563.049632792 745.065957169 478.841796875 801.115234375 332 801 c 4
 227.033207095 800.917627113 148.092773438 769.6875 143.40625 708.064453125 c 0
 141.170898438 678.671875 153.657226562 657.563476562 186 648.33984375 c 0
 230.94140625 635.522460938 300.30078125 649.194335938 371 646.131835938 c 0
 551.857421875 638.298828125 682 515.607421875 682 321 c 0
 607 321 l 1xe8
 607 484.856445312 518.022460938 584.602539062 367 592.443359375 c 0
 291.883789062 596.34375 221.2109375 584.611328125 165 595.53515625 c 0
 101.021484375 607.96875 73.1494140625 650.7890625 73.1494140625 703.880859375 c 0
 73.1494140625 815 207.15234375 875.526367188 368 877 c 0
 535.375 878.533203125 634.248046875 806.428710938 635 697 c 0
 635.450195312 631.43359375 578.60546875 575.654296875 505 579 c 0
 483 580 393.407908266 591.726646891 394 684.200195312 c 0
 394.398508529 746.439702462 454.563476562 797.881835938 524 776 c 13
 543 742 l 5xf0
EndSplineSet
Fore
SplineSet
596.284179688 762 m 1
 535.251953125 778.302734375 497.8671875 741.200195312 495.475585938 707 c 0
 493.13671875 673.5625 517.020507812 651.284179688 552.438476562 649.793945312 c 0
 578.466796875 648.698242188 611.0625 664.154296875 613.228515625 704 c 0
 616.547851562 765.06640625 536.259765625 821.115234375 389.41015625 821 c 0
 284.4375 820.91796875 203.313476562 789.6875 194.317382812 728.064453125 c 0
 190.026367188 698.671875 201.037109375 677.563476562 232.735351562 668.33984375 c 0
 276.780273438 655.522460938 347.095703125 669.194335938 417.580078125 666.131835938 c 0
 597.856445312 657.817382812 718.891601562 527.578125 704.446289062 321 c 0
 629.446289062 321 l 1
 640.904296875 484.856445312 558.901367188 584.602539062 408.427734375 592.443359375 c 4
 333.583984375 596.34375 262.090820312 584.611328125 206.643554688 595.53515625 c 4
 143.6953125 610.263671875 119.370117188 660.98828125 123.768554688 723.880859375 c 0
 131.538085938 835 269.7734375 895.526367188 430.724609375 897 c 0
 598.20703125 898.533203125 692.037109375 826.428710938 685.137695312 717 c 0
 681.002929688 651.43359375 620.2578125 595.654296875 546.885742188 599 c 0
 524.956054688 600 436.18359375 611.7265625 443.2421875 704.200195312 c 0
 447.993164062 766.439453125 511.754882812 817.881835938 579.662109375 796 c 9
 596.284179688 762 l 1
EndSplineSet
Layer: 2
Layer: 3
EndChar

StartChar: si_MatraI.alt
Encoding: 571 -1 562
GlifName: si_M_atraI_.alt
Width: 865
VWidth: -24
Flags: HMW
LayerCount: 4
Back
SplineSet
273 520 m 21
 200 530 160.888671875 585.918945312 172 652 c 4
 191 765 320.989257812 808.053710938 462 809 c 4
 611 810 741.903320312 764.702148438 754 652 c 4
 761.056640625 586.251953125 713 525 668 521 c 13
 655 557 l 21
 688 567 711.614257812 594.228515625 703 632 c 4
 691.770507812 681.23828125 581 716.9765625 463 717 c 4
 337.995117188 717.025390625 236 687 227 632 c 4
 218.279296875 578.708984375 259 562 282 552 c 13
 273 520 l 21
EndSplineSet
Fore
SplineSet
309.362304688 520 m 21
 237.061523438 530 201.860351562 585.918945312 217.591796875 652 c 4
 244.494140625 765 377.494140625 808.053710938 518.5703125 809 c 4
 667.640625 810 795.376953125 764.702148438 799.591796875 652 c 4
 802.051757812 586.251953125 749.711914062 525 704.431640625 521 c 13
 693.94921875 557 l 21
 727.6484375 567 753.166992188 594.228515625 747.193359375 632 c 4
 739.407226562 681.23828125 631.135742188 716.9765625 513.137695312 717 c 4
 388.134765625 717.025390625 284.040039062 687 271.193359375 632 c 4
 258.74609375 578.708984375 298.298828125 562 320.599609375 552 c 13
 309.362304688 520 l 21
EndSplineSet
Layer: 2
Layer: 3
EndChar

StartChar: si_MatraIi.alt
Encoding: 572 -1 563
GlifName: si_M_atraI_i.alt
Width: 776
VWidth: -24
Flags: HMW
LayerCount: 4
Back
SplineSet
214 520 m 17x60
 151 540 107.166992188 577.24609375 113 644 c 0
 122 747 259.990234375 790.13671875 401 789 c 0
 525 788 682.063476562 731.920898438 682 625 c 0
 681.955078125 549.627929688 638.186523438 507.028320312 582 505 c 0
 526.177734375 502.984375 465.423828125 529.80859375 461 586 c 0
 455.676757812 653.612304688 537.657226562 695.563476562 545 692 c 1
 601 682 l 1
 587.119140625 668.837890625 544 630.181640625 544 586 c 0
 544 569 558 549 583 549 c 24xa0
 602 549 622.310546875 561.890625 621 586 c 0
 617.19140625 656.051757812 461 695.96875 393 697 c 0
 298.005859375 698.44140625 185 695 176 630 c 0
 168.59375 576.510742188 208 565 231 555 c 9
 214 520 l 17x60
EndSplineSet
Fore
SplineSet
280.291992188 519 m 17
 213.720703125 530.370117188 171.016601562 578.032226562 181.2421875 647 c 0
 199.116210938 775.690429688 339.978515625 844.205078125 478.948242188 843 c 0
 623.376953125 841.798828125 756.217773438 774.435546875 747.172851562 646 c 0
 741.852539062 570.627929688 690.728515625 528.028320312 628.78125 526 c 0
 577.396484375 523.486328125 524.002929688 556.934570312 524.84375 627 c 4
 524.829101562 702.904296875 610.102539062 750.000976562 617.165039062 746 c 1
 672.465820312 736 l 1
 652.765625 722.426757812 591.729492188 682.5625 588.54296875 637 c 0
 586.390625 606.215820312 601.448242188 570 632.858398438 570 c 24
 656.858398438 570 683.90234375 589.858398438 684.84375 627 c 0
 686.541015625 705.255859375 556.358398438 747.6953125 467.514648438 751 c 0
 354.795898438 755.4296875 262.956054688 730.276367188 244.872070312 656 c 0
 229.840820312 594.26171875 274.763671875 567.599609375 299.739257812 554 c 9
 280.291992188 519 l 17
EndSplineSet
Layer: 2
Layer: 3
EndChar

StartChar: si_Rakar
Encoding: 82 -1 568
GlifName: zwj
Width: 959
VWidth: -24
Flags: HMW
LayerCount: 4
Back
Fore
SplineSet
912.180664062 260 m 13
 938.69140625 253 l 29
 938.69140625 253 931.139648438 175.618164062 915.111328125 116 c 4
 859.848632812 -96.4677734375 746.7421875 -334.162109375 465.294921875 -339 c 4
 206.987304688 -343.510742188 110.900390625 -195.384765625 106.182617188 -169 c 13
 144.650390625 -148 l 29
 144.650390625 -148 244.59765625 -250.095703125 461.217773438 -240 c 4
 737.1015625 -227.94921875 898.017578125 45.8642578125 912.180664062 260 c 13
EndSplineSet
Layer: 2
Layer: 3
EndChar

StartChar: si_MatraI.alt1
Encoding: 574 -1 573
GlifName: si_M_atraI_.alt1
Width: 0
VWidth: -24
Flags: HMW
AnchorPoint: "si_MaI" 33.8447 484 mark 0
LayerCount: 4
Back
SplineSet
-305 422 m 17
 -302.413085938 684.754882812 -141.481445312 811.205078125 30 828 c 0
 164.000976562 841.124023438 297.903320312 772.702148438 294 637 c 0
 292.098632812 570.901367188 259 491 174 467 c 9
 155 492 l 17
 178 512 204.944335938 561.612304688 203 603 c 0
 198.84375 691.477539062 95.8857421875 741.201171875 -12 731 c 0
 -136.015625 719.2734375 -256.22265625 636.188476562 -258 422 c 9
 -305 422 l 17
EndSplineSet
Fore
SplineSet
-275.491210938 422 m 17
 -254.530273438 684.754882812 -84.7568359375 811.205078125 87.8994140625 828 c 0
 222.818359375 841.124023438 351.935546875 772.702148438 338.54296875 637 c 0
 332.01953125 570.901367188 293.333984375 491 206.65625 467 c 9
 189.404296875 492 l 17
 213.802734375 512 256.055664062 573.612304688 257.004882812 615 c 4
 259.036132812 703.477539062 159.5546875 753.201171875 50.9560546875 743 c 4
 -73.8798828125 731.2734375 -211.736328125 636.188476562 -228.491210938 422 c 9
 -275.491210938 422 l 17
EndSplineSet
Layer: 2
Layer: 3
EndChar

StartChar: si_MatraIi.alt1
Encoding: 575 -1 574
GlifName: si_M_atraI_i.alt2
Width: 0
VWidth: -24
Flags: HMW
AnchorPoint: "si_MaI" 33.8447 484 mark 0
LayerCount: 4
Back
SplineSet
-289 422 m 17
 -286.413085938 684.754882812 -125.481445312 811.205078125 46 828 c 0
 180.000976562 841.124023438 313.903320312 772.702148438 310 637 c 0
 308.098632812 570.901367188 275 491 190 467 c 9
 171 492 l 17
 194 512 220.944335938 561.612304688 219 603 c 0
 214.84375 691.477539062 111.885742188 741.201171875 4 731 c 0
 -120.015625 719.2734375 -240.22265625 636.188476562 -242 422 c 9
 -289 422 l 17
EndSplineSet
Fore
SplineSet
-275.491210938 422 m 17
 -255.229492188 674.754882812 -84.7568359375 811.205078125 87.8994140625 828 c 0
 222.818359375 841.124023438 348.609375 782.7578125 339.2421875 647 c 0
 331.921875 540.901367188 263.418945312 493.997070312 186.404296875 492 c 0
 122.462890625 490.341796875 87.93359375 525.135742188 84.1376953125 574 c 0
 80.3603515625 622.627929688 115.060546875 673 162.319335938 691 c 0
 211.708984375 709.811523438 266.571289062 666 266.571289062 666 c 1
 266.571289062 666 156.361328125 663 137.444335938 604 c 24
 124.369140625 563 149.99609375 526.349609375 192.201171875 532 c 0
 229.55078125 537 246.915039062 571.612304688 247.865234375 613 c 4
 249.895507812 701.477539062 169.349609375 753.140625 50.8154296875 741 c 0
 -54.0576171875 730.258789062 -212.435546875 626.188476562 -228.491210938 422 c 9
 -275.491210938 422 l 17
EndSplineSet
Layer: 2
Layer: 3
EndChar

StartChar: U_comp
Encoding: 576 -1 575
Width: 0
VWidth: -24
Flags: HMW
LayerCount: 4
Back
SplineSet
1 8 m 13
 31 -22 l 21
 18 -40 -21.3466796875 -70.2509765625 -15 -124 c 4
 -9.234375 -172.82421875 41 -203 110 -202 c 4
 172.642578125 -201.091796875 218 -174 253 -139 c 13
 297 -228 l 4
 244 -278 164.443359375 -295.733398438 100 -294 c 4
 8.02734375 -291.526367188 -73.791015625 -256.041015625 -74 -140 c 4
 -74.1220703125 -71.982421875 -23.5234375 -13.462890625 1 8 c 13
EndSplineSet
Fore
SplineSet
1.5595703125 8 m 13
 29.4619140625 -22 l 21
 15.203125 -40 -26.2587890625 -70.2509765625 -23.6708984375 -124 c 4
 -21.3193359375 -172.82421875 26.8046875 -203 95.875 -202 c 4
 158.581054688 -201.091796875 205.833007812 -174 243.280273438 -139 c 13
 281.056640625 -228 l 4
 224.560546875 -278 143.763671875 -295.733398438 79.44140625 -294 c 4
 -12.3583984375 -291.526367188 -91.6953125 -256.041015625 -83.7900390625 -140 c 4
 -79.1552734375 -71.982421875 -24.46484375 -13.462890625 1.5595703125 8 c 13
EndSplineSet
Layer: 2
Layer: 3
EndChar

StartChar: al_comp
Encoding: 577 -1 576
Width: 760
VWidth: -14
Flags: HMW
LayerCount: 4
Back
SplineSet
539 640 m 5
 574.268554688 626.919921875 596.11328125 661.811523438 593 692 c 4
 584.83984375 771.116210938 478.083984375 819.1640625 375 817 c 4
 295.946289062 815.340820312 253 794 253 794 c 21
 279.80859375 751.53125 284.022460938 665.860351562 205 636 c 13
 171 650 l 21
 244.673828125 679.870117188 229.099609375 776.052734375 192 792 c 5
 214 783.063476562 l 5
 143 744 l 5
 120 790 l 13
 120 790 229.981445312 874.889648438 387 878 c 4
 556.05078125 881.348632812 670.799804688 807.418945312 671 704 c 4
 671.169921875 616.013671875 607.700195312 591 580 591 c 5
 573 569 l 5
 539 640 l 5
647 339 m 5
 647 545.866210938 525.30859375 625.688476562 332 623 c 4
 214.836914062 621.370117188 162.155273438 578 159 578 c 5
 137 628 l 5
 177.618164062 655 214.690429688 683.690429688 348 683 c 4
 541.403320312 682.025390625 710 580.453125 710 331 c 4
 647 339 l 5
EndSplineSet
Fore
SplineSet
563.752929688 640 m 5
 598.107421875 626.919921875 622.391601562 661.811523438 621.389648438 692 c 4
 618.76171875 771.116210938 515.365234375 819.1640625 412.129882812 817 c 4
 332.9609375 815.340820312 288.521484375 794 288.521484375 794 c 21
 312.360351562 751.53125 310.583984375 665.860351562 229.473632812 636 c 13
 196.452148438 650 l 21
 272.21484375 679.870117188 263.366210938 776.052734375 227.381835938 792 c 5
 248.756835938 783.063476562 l 5
 175.025390625 744 l 5
 155.2421875 790 l 13
 155.2421875 790 271.16015625 874.889648438 428.395507812 878 c 4
 597.680664062 881.348632812 707.259765625 807.418945312 700.228515625 704 c 4
 694.24609375 616.013671875 629.02734375 591 601.327148438 591 c 5
 592.788085938 569 l 5
 563.752929688 640 l 5
670.005859375 329 m 5
 684.98046875 543.150390625 561.340820312 625.783203125 355.564453125 623 c 4
 238.287109375 621.370117188 182.573242188 578 179.41796875 578 c 5
 160.9140625 628 l 5
 203.419921875 655 242.499023438 683.690429688 375.759765625 683 c 4
 585.123046875 682.025390625 760.588867188 580.453125 743.145507812 331 c 4
 670.005859375 329 l 5
EndSplineSet
Layer: 2
Layer: 3
EndChar

StartChar: uni002F
Encoding: 578 47 577
Width: 533
VWidth: 0
Flags: HMW
LayerCount: 4
Back
SplineSet
4 -80 m 17
 426 842 l 9
 528 846 l 17
 499.073242188 787.296875 443.291015625 669.911132812 392.92578125 560 c 0
 105 -80 l 9
 4 -80 l 17
EndSplineSet
Fore
SplineSet
-1.59375 -80 m 21
 484.877929688 842 l 13
 587.158203125 846 l 21
 554.125976562 787.296875 490.135742188 669.911132812 432.084960938 560 c 4
 99.40625 -80 l 13
 -1.59375 -80 l 21
EndSplineSet
Layer: 2
Layer: 3
EndChar

StartChar: uni0021
Encoding: 581 33 580
Width: 330
VWidth: 153
Flags: HMW
LayerCount: 4
Back
SplineSet
89 772 m 1xa0
 116 796 203 805 237 801 c 1
 215.63671875 608.21875 200.844726562 435.486328125 193 208 c 1
 112 206 l 1
 105 399 97 610 89 772 c 1xa0
EndSplineSet
Refer: 593 46 N 1 0 0 1 29 -10 2
Fore
SplineSet
142.983398438 772 m 1
 171.662109375 796 259.291015625 805 293.01171875 801 c 1
 258.16796875 608.21875 231.296875 435.486328125 207.544921875 208 c 1
 126.405273438 206 l 1
 132.900390625 399 139.655273438 610 142.983398438 772 c 1
EndSplineSet
Refer: 593 46 N 1 0 0.0699268 1 28.3007 -10 2
Layer: 2
Layer: 3
EndChar

StartChar: uni0027
Encoding: 587 39 586
Width: 206
VWidth: 79
Flags: HMW
LayerCount: 4
Back
SplineSet
52.576171875 777.809570312 m 1
 49.130859375 714.051757812 36.572265625 624.30078125 25.99609375 551.19921875 c 0
 67.4169921875 532.291015625 l 0
 104.537109375 593.125976562 158.446289062 709.481445312 171.279296875 780.151367188 c 1
 132.608398438 811.336914062 70.1064453125 792.428710938 52.576171875 777.809570312 c 1
EndSplineSet
Fore
SplineSet
106.965820312 777.809570312 m 1
 99.0625 714.051757812 80.2275390625 624.30078125 64.5400390625 551.19921875 c 0
 104.638671875 532.291015625 l 0
 146.012695312 593.125976562 208.057617188 709.481445312 225.833007812 780.151367188 c 1
 189.342773438 811.336914062 125.518554688 792.428710938 106.965820312 777.809570312 c 1
EndSplineSet
Layer: 2
Layer: 3
EndChar

StartChar: uni0028
Encoding: 588 40 587
Width: 371
VWidth: 153
Flags: HMW
LayerCount: 4
Back
SplineSet
81 235 m 0
 63 462 145 696 265 883 c 1
 336 849 l 1
 255 717 199 483 201 322 c 0
 202 191 215 18 319 -110 c 1
 257 -164 l 1
 199 -118 96 41 81 235 c 0
EndSplineSet
Fore
SplineSet
97.4326171875 235 m 0
 95.306640625 462 193.668945312 696 326.745117188 883 c 1
 395.368164062 849 l 1
 305.137695312 717 232.774414062 483 223.516601562 322 c 0
 215.356445312 191 216.258789062 18 311.307617188 -110 c 1
 245.532226562 -164 l 1
 190.749023438 -118 98.8671875 41 97.4326171875 235 c 0
EndSplineSet
Layer: 2
Layer: 3
EndChar

StartChar: uni0029
Encoding: 589 41 588
Width: 371
VWidth: 153
Flags: HMW
LayerCount: 4
Back
SplineSet
52 -95 m 5
 133 37 189.716796875 241.00390625 192 402 c 4
 194 543 163 696 69 814 c 5
 131 865 l 5
 184 817 292 683 307 489 c 4
 325 262 237 54 117 -133 c 5
 52 -95 l 5
EndSplineSet
Fore
SplineSet
45.357421875 -95 m 5
 135.586914062 37 206.569335938 241.00390625 220.110351562 402 c 4
 231.970703125 543 211.668945312 696 125.920898438 814 c 5
 191.486328125 865 l 5
 241.129882812 817 339.759765625 683 341.194335938 489 c 4
 343.321289062 262 240.776367188 54 107.700195312 -133 c 5
 45.357421875 -95 l 5
EndSplineSet
Layer: 2
Layer: 3
EndChar

StartChar: uni002B
Encoding: 591 43 590
Width: 618
VWidth: 153
Flags: HMW
LayerCount: 4
Back
SplineSet
272 632 m 1
 354 618 l 1
 344 425 344 303 354 131 c 1
 327 133 306 139 272 141 c 1
 272 632 l 1
47 343 m 5
 61 432 l 5
 254 422 396 422 568 432 c 5
 566 405 560 377 558 343 c 5
 47 343 l 5
EndSplineSet
Fore
SplineSet
316.193359375 632 m 1
 397.21484375 618 l 1
 373.71875 425 365.1875 303 363.16015625 131 c 1
 336.299804688 133 315.719726562 139 281.859375 141 c 1
 316.193359375 632 l 1
70.9853515625 343 m 5
 91.2080078125 432 l 5
 283.508789062 422 425.508789062 422 598.208007812 432 c 5
 594.3203125 405 586.362304688 377 581.985351562 343 c 5
 70.9853515625 343 l 5
EndSplineSet
Layer: 2
Layer: 3
EndChar

StartChar: uni002C
Encoding: 592 44 591
Width: 198
VWidth: 79
Flags: HMW
LayerCount: 4
Back
SplineSet
51.1708984375 85.06640625 m 1
 77.84765625 -15.8251953125 61.216796875 -108.592773438 37.705078125 -152.932617188 c 0
 81.69140625 -177.944335938 l 4
 124.313074919 -134.368164062 193.261731323 -3.9580078125 178.772460938 79.734375 c 1
 141.956054688 113.088867188 69.5107421875 98.654296875 51.1708984375 85.06640625 c 1
EndSplineSet
Fore
SplineSet
57.119140625 85.06640625 m 1
 76.7412109375 -15.8251953125 53.623046875 -108.592773438 27.0107421875 -152.932617188 c 0
 69.248046875 -177.944335938 l 4
 114.916992188 -134.368164062 192.985351562 -3.9580078125 184.34765625 79.734375 c 1
 149.864257812 113.088867188 76.4091796875 98.654296875 57.119140625 85.06640625 c 1
EndSplineSet
Layer: 2
Layer: 3
EndChar

StartChar: uni002D
Encoding: 593 45 592
Width: 589
VWidth: 153
Flags: HMW
LayerCount: 4
Back
SplineSet
47 343 m 1
 61 432 l 1
 254 422 356 422 528 432 c 1
 526 405 520 377 518 343 c 1
 47 343 l 1
EndSplineSet
Fore
SplineSet
70.9853515625 343 m 1
 91.2080078125 432 l 1
 283.508789062 422 385.508789062 422 558.208007812 432 c 1
 554.3203125 405 546.362304688 377 541.985351562 343 c 1
 70.9853515625 343 l 1
EndSplineSet
Layer: 2
Layer: 3
EndChar

StartChar: uni002E
Encoding: 594 46 593
Width: 247
VWidth: 79
Flags: HMW
LayerCount: 4
Back
SplineSet
43.8271484375 48.6171875 m 0
 43.8271484375 95.7560889354 79.5591184663 129.618164062 125.59375 129.618164062 c 0
 166.916992188 129.618164062 202.801757812 100.114369841 202.801757812 53.0751953125 c 0
 202.801757812 4.19140625 167.746731138 -28.3994140625 120.59375 -28.3994140625 c 0
 74.0818904992 -28.3994140625 43.8271484375 -0.265625 43.8271484375 48.6171875 c 0
EndSplineSet
Fore
SplineSet
47.2265625 48.6171875 m 0
 50.5234375 95.755859375 88.623046875 129.618164062 134.657226562 129.618164062 c 0
 175.98046875 129.618164062 209.802734375 100.114257812 206.512695312 53.0751953125 c 0
 203.094726562 4.19140625 165.760742188 -28.3994140625 118.607421875 -28.3994140625 c 0
 72.095703125 -28.3994140625 43.80859375 -0.265625 47.2265625 48.6171875 c 0
EndSplineSet
Layer: 2
Layer: 3
EndChar

